<?xml version="1.0" standalone="no"?>
<!DOCTYPE svg PUBLIC "-//W3C//DTD SVG 1.1//EN" "http://www.w3.org/Graphics/SVG/1.1/DTD/svg11.dtd" >
<svg>
<metadata>
Created by FontForge 20090622 at Thu Feb 11 16:52:56 2016
 By ffonts
Copyright \(c\) 2015 by Seniors Studio. All rights reserved.
</metadata>
<defs>
<font id="Nickainley-Normal" horiz-adv-x="0" >
  <font-face 
    font-family="Nickainley Normal"
    font-weight="400"
    font-style="italic"
    font-stretch="normal"
    units-per-em="1000"
    panose-1="0 0 5 0 0 0 0 0 0 0"
    ascent="800"
    descent="-200"
    x-height="473"
    cap-height="778"
    bbox="-372.366 -283 1256 1001"
    underline-thickness="50"
    underline-position="-50"
    slope="-19"
    stemh="25"
    unicode-range="U+0020-U+2212"
  />
<missing-glyph horiz-adv-x="500" 
d="M410 800v-1000h-317v1000h317zM333 733h-165v-33h65v-37h-66v-33h166v33h-66v37h66v33zM267 604h-100v-104h166v34h-66v70zM233 570v-36h-33v36h33zM333 473h-166v-33h66v-37h-66v-33h100v70h66v33zM333 413h-33v-66h-133v-34h166v100zM333 291h-100v-56h34v23h33v-47
h-100v80h-33v-113h166v113zM333 118h-166v-113h166v113zM300 85v-47h-100v47h100zM333 -18h-166v-33h70l-70 -47v-33h166v33h-102l70 47h32v33z" />
    <glyph glyph-name=".notdef" horiz-adv-x="500" 
d="M410 800v-1000h-317v1000h317zM333 733h-165v-33h65v-37h-66v-33h166v33h-66v37h66v33zM267 604h-100v-104h166v34h-66v70zM233 570v-36h-33v36h33zM333 473h-166v-33h66v-37h-66v-33h100v70h66v33zM333 413h-33v-66h-133v-34h166v100zM333 291h-100v-56h34v23h33v-47
h-100v80h-33v-113h166v113zM333 118h-166v-113h166v113zM300 85v-47h-100v47h100zM333 -18h-166v-33h70l-70 -47v-33h166v33h-102l70 47h32v33z" />
    <glyph glyph-name="A" unicode="A" horiz-adv-x="765" 
d="M747 388c-22 -62 -39 -108 -44 -120c-39 -106 -108 -292 -108 -344c0 -63 20 -91 67 -91c11 0 21 -10 21 -22c0 -11 -10 -21 -21 -21c-75 2 -110 51 -110 134c0 61 72 251 112 358l4 11h-212c-80 -138 -181 -293 -304 -293c-83 0 -152 54 -152 137c0 88 74 165 154 165
c15 0 31 -3 46 -10c8 -4 12 -11 12 -19c0 -11 -9 -21 -21 -21c-5 0 -22 8 -37 8c-58 0 -112 -61 -112 -123c0 -57 50 -94 110 -94c101 0 187 136 255 250h-49c-12 0 -22 10 -22 21c0 12 10 22 22 22h74l73 132c47 87 89 166 125 213c29 35 68 59 103 59c60 0 80 -38 80 -93
c0 -75 -38 -180 -66 -259zM707 403c23 64 65 174 65 239c0 33 -10 55 -39 55c-23 0 -52 -20 -69 -42c-34 -44 -76 -122 -122 -207l-62 -112h203z" />
    <glyph glyph-name="Aacute" unicode="&#xc1;" horiz-adv-x="765" 
d="M736 841l135 93c10 7 24 3 30 -7s4 -24 -7 -31l-138 -91c-11 -6 -22 -2 -28 7c-4 10 -2 22 8 29zM747 388c-22 -62 -39 -108 -44 -120c-39 -106 -108 -292 -108 -344c0 -63 20 -91 67 -91c11 0 21 -10 21 -22c0 -11 -10 -21 -21 -21c-75 2 -110 51 -110 134
c0 61 72 251 112 358l4 11h-212c-80 -138 -181 -293 -304 -293c-83 0 -152 54 -152 137c0 88 74 165 154 165c15 0 31 -3 46 -10c8 -4 12 -11 12 -19c0 -11 -9 -21 -21 -21c-5 0 -22 8 -37 8c-58 0 -112 -61 -112 -123c0 -57 50 -94 110 -94c101 0 187 136 255 250h-49
c-12 0 -22 10 -22 21c0 12 10 22 22 22h74l73 132c47 87 89 166 125 213c29 35 68 59 103 59c60 0 80 -38 80 -93c0 -75 -38 -180 -66 -259zM707 403c23 64 65 174 65 239c0 33 -10 55 -39 55c-23 0 -52 -20 -69 -42c-34 -44 -76 -122 -122 -207l-62 -112h203z" />
    <glyph glyph-name="Abreve" unicode="&#x102;" horiz-adv-x="765" 
d="M926 910c-30 -72 -76 -110 -134 -110c-72 0 -122 53 -101 124c3 9 11 16 21 16c14 0 23 -14 20 -27c-13 -46 17 -71 57 -71s74 29 98 85c3 8 11 13 19 13c13 0 26 -15 20 -30zM747 388c-22 -62 -39 -108 -44 -120c-39 -106 -108 -292 -108 -344c0 -63 20 -91 67 -91
c11 0 21 -10 21 -22c0 -11 -10 -21 -21 -21c-75 2 -110 51 -110 134c0 61 72 251 112 358l4 11h-212c-80 -138 -181 -293 -304 -293c-83 0 -152 54 -152 137c0 88 74 165 154 165c15 0 31 -3 46 -10c8 -4 12 -11 12 -19c0 -11 -9 -21 -21 -21c-5 0 -22 8 -37 8
c-58 0 -112 -61 -112 -123c0 -57 50 -94 110 -94c101 0 187 136 255 250h-49c-12 0 -22 10 -22 21c0 12 10 22 22 22h74l73 132c47 87 89 166 125 213c29 35 68 59 103 59c60 0 80 -38 80 -93c0 -75 -38 -180 -66 -259zM707 403c23 64 65 174 65 239c0 33 -10 55 -39 55
c-23 0 -52 -20 -69 -42c-34 -44 -76 -122 -122 -207l-62 -112h203z" />
    <glyph glyph-name="Acircumflex" unicode="&#xc2;" horiz-adv-x="765" 
d="M886 818c6 -11 0 -22 -8 -25c-6 -2 -18 -1 -25 9l-50 75l-103 -73c-10 -7 -20 -5 -26 2c-6 9 -6 21 3 28l117 91c14 11 30 6 36 -5zM747 388c-22 -62 -39 -108 -44 -120c-39 -106 -108 -292 -108 -344c0 -63 20 -91 67 -91c11 0 21 -10 21 -22c0 -11 -10 -21 -21 -21
c-75 2 -110 51 -110 134c0 61 72 251 112 358l4 11h-212c-80 -138 -181 -293 -304 -293c-83 0 -152 54 -152 137c0 88 74 165 154 165c15 0 31 -3 46 -10c8 -4 12 -11 12 -19c0 -11 -9 -21 -21 -21c-5 0 -22 8 -37 8c-58 0 -112 -61 -112 -123c0 -57 50 -94 110 -94
c101 0 187 136 255 250h-49c-12 0 -22 10 -22 21c0 12 10 22 22 22h74l73 132c47 87 89 166 125 213c29 35 68 59 103 59c60 0 80 -38 80 -93c0 -75 -38 -180 -66 -259zM707 403c23 64 65 174 65 239c0 33 -10 55 -39 55c-23 0 -52 -20 -69 -42c-34 -44 -76 -122 -122 -207
l-62 -112h203z" />
    <glyph glyph-name="Adieresis" unicode="&#xc4;" horiz-adv-x="765" 
d="M720 869c19 0 35 -16 35 -35s-16 -34 -35 -34s-34 15 -34 34s15 35 34 35zM830 869c19 0 35 -16 35 -35s-16 -34 -35 -34s-34 15 -34 34s15 35 34 35zM747 388c-22 -62 -39 -108 -44 -120c-39 -106 -108 -292 -108 -344c0 -63 20 -91 67 -91c11 0 21 -10 21 -22
c0 -11 -10 -21 -21 -21c-75 2 -110 51 -110 134c0 61 72 251 112 358l4 11h-212c-80 -138 -181 -293 -304 -293c-83 0 -152 54 -152 137c0 88 74 165 154 165c15 0 31 -3 46 -10c8 -4 12 -11 12 -19c0 -11 -9 -21 -21 -21c-5 0 -22 8 -37 8c-58 0 -112 -61 -112 -123
c0 -57 50 -94 110 -94c101 0 187 136 255 250h-49c-12 0 -22 10 -22 21c0 12 10 22 22 22h74l73 132c47 87 89 166 125 213c29 35 68 59 103 59c60 0 80 -38 80 -93c0 -75 -38 -180 -66 -259zM707 403c23 64 65 174 65 239c0 33 -10 55 -39 55c-23 0 -52 -20 -69 -42
c-34 -44 -76 -122 -122 -207l-62 -112h203z" />
    <glyph glyph-name="Agrave" unicode="&#xc0;" horiz-adv-x="765" 
d="M837 834c9 -8 9 -19 3 -28c-6 -7 -17 -10 -26 -2l-110 97c-10 9 -10 22 -3 32c8 8 21 11 31 2zM747 388c-22 -62 -39 -108 -44 -120c-39 -106 -108 -292 -108 -344c0 -63 20 -91 67 -91c11 0 21 -10 21 -22c0 -11 -10 -21 -21 -21c-75 2 -110 51 -110 134
c0 61 72 251 112 358l4 11h-212c-80 -138 -181 -293 -304 -293c-83 0 -152 54 -152 137c0 88 74 165 154 165c15 0 31 -3 46 -10c8 -4 12 -11 12 -19c0 -11 -9 -21 -21 -21c-5 0 -22 8 -37 8c-58 0 -112 -61 -112 -123c0 -57 50 -94 110 -94c101 0 187 136 255 250h-49
c-12 0 -22 10 -22 21c0 12 10 22 22 22h74l73 132c47 87 89 166 125 213c29 35 68 59 103 59c60 0 80 -38 80 -93c0 -75 -38 -180 -66 -259zM707 403c23 64 65 174 65 239c0 33 -10 55 -39 55c-23 0 -52 -20 -69 -42c-34 -44 -76 -122 -122 -207l-62 -112h203z" />
    <glyph glyph-name="Amacron" unicode="&#x100;" horiz-adv-x="765" 
d="M871 855c13 0 21 -9 22 -21c0 -11 -8 -21 -21 -21h-195c-13 0 -21 10 -21 21c1 12 9 21 22 21h193zM747 388c-22 -62 -39 -108 -44 -120c-39 -106 -108 -292 -108 -344c0 -63 20 -91 67 -91c11 0 21 -10 21 -22c0 -11 -10 -21 -21 -21c-75 2 -110 51 -110 134
c0 61 72 251 112 358l4 11h-212c-80 -138 -181 -293 -304 -293c-83 0 -152 54 -152 137c0 88 74 165 154 165c15 0 31 -3 46 -10c8 -4 12 -11 12 -19c0 -11 -9 -21 -21 -21c-5 0 -22 8 -37 8c-58 0 -112 -61 -112 -123c0 -57 50 -94 110 -94c101 0 187 136 255 250h-49
c-12 0 -22 10 -22 21c0 12 10 22 22 22h74l73 132c47 87 89 166 125 213c29 35 68 59 103 59c60 0 80 -38 80 -93c0 -75 -38 -180 -66 -259zM707 403c23 64 65 174 65 239c0 33 -10 55 -39 55c-23 0 -52 -20 -69 -42c-34 -44 -76 -122 -122 -207l-62 -112h203z" />
    <glyph glyph-name="Aogonek" unicode="&#x104;" horiz-adv-x="765" 
d="M733 740c60 0 80 -38 80 -93c0 -75 -38 -180 -66 -259c-22 -62 -40 -108 -44 -120c-25 -69 -49 -136 -71 -187c-18 -42 -29 -57 -56 -80c-42 -36 -83 -85 -83 -116c0 -21 14 -35 36 -35c26 0 38 4 60 16c25 14 42 -21 17 -35c-30 -17 -47 -23 -74 -23
c-49 0 -81 29 -81 72c0 57 76 127 87 136c36 29 39 45 53 78c25 60 50 123 73 188l4 11h-212c-80 -138 -181 -293 -304 -293c-83 0 -152 54 -152 137c0 88 74 165 154 165c15 0 31 -3 46 -10c8 -4 12 -11 12 -19c0 -11 -9 -21 -21 -21c-5 0 -22 8 -37 8
c-58 0 -112 -61 -112 -123c0 -57 50 -94 110 -94c101 0 187 136 255 250h-49c-12 0 -22 10 -22 21c0 12 10 22 22 22h74l73 132c47 87 89 166 125 213c29 35 68 59 103 59zM707 403c23 64 65 174 65 239c0 33 -10 55 -39 55c-23 0 -52 -20 -69 -42
c-34 -44 -76 -122 -122 -207l-62 -112h203z" />
    <glyph glyph-name="Aring" unicode="&#xc5;" horiz-adv-x="765" 
d="M799 800c-53 0 -91 44 -83 97c8 48 50 84 98 84c52 0 91 -44 83 -96c-8 -48 -50 -85 -98 -85zM799 842c27 0 52 22 56 49s-14 48 -41 48s-52 -22 -56 -48c-4 -28 13 -49 41 -49zM747 388c-22 -62 -39 -108 -44 -120c-39 -106 -108 -292 -108 -344c0 -63 20 -91 67 -91
c11 0 21 -10 21 -22c0 -11 -10 -21 -21 -21c-75 2 -110 51 -110 134c0 61 72 251 112 358l4 11h-212c-80 -138 -181 -293 -304 -293c-83 0 -152 54 -152 137c0 88 74 165 154 165c15 0 31 -3 46 -10c8 -4 12 -11 12 -19c0 -11 -9 -21 -21 -21c-5 0 -22 8 -37 8
c-58 0 -112 -61 -112 -123c0 -57 50 -94 110 -94c101 0 187 136 255 250h-49c-12 0 -22 10 -22 21c0 12 10 22 22 22h74l73 132c47 87 89 166 125 213c29 35 68 59 103 59c60 0 80 -38 80 -93c0 -75 -38 -180 -66 -259zM707 403c23 64 65 174 65 239c0 33 -10 55 -39 55
c-23 0 -52 -20 -69 -42c-34 -44 -76 -122 -122 -207l-62 -112h203z" />
    <glyph glyph-name="Atilde" unicode="&#xc3;" horiz-adv-x="765" 
d="M912 881c0 -5 -2 -10 -4 -13c-15 -23 -46 -41 -73 -41c-23 0 -46 11 -62 30c-9 11 -19 16 -30 16c-14 0 -28 -8 -36 -19c-6 -8 -14 -14 -20 -14c-13 0 -21 8 -21 21c0 3 2 9 6 15c14 23 44 39 71 39c23 0 46 -11 62 -30c9 -11 19 -16 30 -16c14 0 30 10 37 22
c4 7 11 11 19 11c12 0 21 -9 21 -21zM747 388c-22 -62 -39 -108 -44 -120c-39 -106 -108 -292 -108 -344c0 -63 20 -91 67 -91c11 0 21 -10 21 -22c0 -11 -10 -21 -21 -21c-75 2 -110 51 -110 134c0 61 72 251 112 358l4 11h-212c-80 -138 -181 -293 -304 -293
c-83 0 -152 54 -152 137c0 88 74 165 154 165c15 0 31 -3 46 -10c8 -4 12 -11 12 -19c0 -11 -9 -21 -21 -21c-5 0 -22 8 -37 8c-58 0 -112 -61 -112 -123c0 -57 50 -94 110 -94c101 0 187 136 255 250h-49c-12 0 -22 10 -22 21c0 12 10 22 22 22h74l73 132
c47 87 89 166 125 213c29 35 68 59 103 59c60 0 80 -38 80 -93c0 -75 -38 -180 -66 -259zM707 403c23 64 65 174 65 239c0 33 -10 55 -39 55c-23 0 -52 -20 -69 -42c-34 -44 -76 -122 -122 -207l-62 -112h203z" />
    <glyph glyph-name="AE" unicode="&#xc6;" horiz-adv-x="1106" 
d="M1151 239c8 -4 13 -12 13 -20c0 -3 -1 -5 -2 -8c-71 -174 -170 -271 -324 -271c-122 0 -208 77 -208 198c0 47 10 88 27 124c2 7 5 14 7 20l4 11h-212c-80 -138 -181 -293 -304 -293c-83 0 -152 54 -152 137c0 88 74 165 154 165c15 0 31 -3 46 -10c8 -4 12 -11 12 -19
c0 -11 -9 -21 -21 -21c-5 0 -22 8 -37 8c-58 0 -112 -61 -112 -123c0 -57 50 -94 110 -94c101 0 187 136 255 250h-49c-12 0 -22 10 -22 21c0 12 10 22 22 22h74l73 132c47 87 89 166 125 213c29 35 68 59 103 59c60 0 80 -38 80 -93v-11c44 63 119 105 202 105
c63 0 109 -30 109 -80c-1 -28 -16 -53 -39 -73c-4 -4 -9 -6 -15 -6c-12 0 -21 9 -21 21c0 7 3 13 8 17c15 12 24 26 25 41c0 26 -33 38 -67 38c-113 0 -202 -92 -202 -194c0 -31 19 -62 44 -84c23 6 69 14 87 14c30 0 61 -16 61 -44c0 -33 -25 -51 -59 -51
c-32 0 -64 12 -97 34c-108 -39 -177 -132 -177 -236c0 -101 72 -156 166 -156c136 0 220 87 285 245c4 11 17 16 28 12zM480 336h203l24 67c23 64 65 174 65 239c0 33 -10 55 -39 55c-23 0 -52 -20 -69 -42c-34 -44 -76 -122 -122 -207zM813 405c-17 18 -31 41 -38 65
c-9 -29 -19 -57 -28 -82c-3 -9 -7 -18 -10 -27c23 18 48 32 76 44zM946 393c-5 0 -18 -1 -36 -4c15 -6 30 -8 44 -7c7 1 10 3 9 5c0 3 -6 6 -17 6z" />
    <glyph glyph-name="B" unicode="B" horiz-adv-x="794" 
d="M758 530c0 -72 -45 -145 -108 -187l18 -21c34 -43 50 -99 50 -154c0 -129 -90 -230 -220 -230c-100 0 -173 48 -173 130c0 63 50 109 103 109c46 0 80 -33 98 -80c5 -13 -4 -28 -20 -28c-9 0 -17 5 -20 14c-11 32 -34 52 -57 52c-34 0 -62 -32 -62 -67
c0 -62 64 -88 131 -88c111 0 177 85 177 190c0 58 -23 119 -66 153c-22 -9 -64 -17 -88 -17c-45 0 -81 8 -81 51c0 32 20 49 52 49c37 0 90 -13 122 -35c62 33 102 100 102 161c3 99 -79 165 -181 165c-191 0 -281 -129 -287 -334c0 -14 -12 -21 -22 -21c-11 0 -21 9 -21 21
c0 219 114 376 331 376c126 0 225 -83 222 -209zM491 582c-27 -52 -49 -124 -72 -198c-57 -188 -116 -384 -283 -384c-82 0 -146 53 -146 134c0 87 69 165 144 165c10 0 19 0 29 -4c9 -4 15 -11 15 -20c0 -14 -13 -25 -27 -21c-5 2 -10 2 -16 2c-54 0 -103 -61 -103 -120
c0 -62 47 -94 103 -94c142 0 197 198 244 354c23 77 46 151 74 206c21 39 63 76 95 76c10 0 19 -7 21 -18c0 -15 -9 -22 -17 -24c-23 -4 -50 -30 -61 -54zM526 348c11 0 21 2 31 4c-10 4 -52 12 -61 12c-8 0 -14 -1 -14 -8c0 -8 29 -8 44 -8z" />
    <glyph glyph-name="C" unicode="C" horiz-adv-x="593" 
d="M637 239c11 -5 16 -17 12 -28c-72 -174 -169 -279 -325 -279c-130 0 -198 81 -198 205c0 61 18 130 42 205c-102 24 -168 93 -168 195c0 68 28 141 72 195c4 5 10 7 16 7c11 0 21 -8 21 -21c0 -5 -1 -10 -5 -14c-36 -40 -62 -110 -62 -165c0 -89 58 -139 141 -157
c56 160 171 358 313 355c82 -2 124 -61 124 -140c0 -168 -196 -265 -366 -265c-15 0 -27 1 -44 3c-23 -74 -42 -140 -42 -198c0 -107 58 -163 156 -163c138 0 221 94 286 253c4 11 17 16 27 12zM225 375c8 -1 17 -1 26 -1c148 0 327 81 327 223c0 57 -27 98 -82 98
c-118 0 -224 -188 -271 -320z" />
    <glyph glyph-name="Cacute" unicode="&#x106;" horiz-adv-x="593" 
d="M476 838l135 93c10 7 24 3 30 -7s4 -24 -7 -31l-138 -91c-11 -6 -22 -2 -28 7c-4 10 -2 22 8 29zM637 239c11 -5 16 -17 12 -28c-72 -174 -169 -279 -325 -279c-130 0 -198 81 -198 205c0 61 18 130 42 205c-102 24 -168 93 -168 195c0 68 28 141 72 195c4 5 10 7 16 7
c11 0 21 -8 21 -21c0 -5 -1 -10 -5 -14c-36 -40 -62 -110 -62 -165c0 -89 58 -139 141 -157c56 160 171 358 313 355c82 -2 124 -61 124 -140c0 -168 -196 -265 -366 -265c-15 0 -27 1 -44 3c-23 -74 -42 -140 -42 -198c0 -107 58 -163 156 -163c138 0 221 94 286 253
c4 11 17 16 27 12zM225 375c8 -1 17 -1 26 -1c148 0 327 81 327 223c0 57 -27 98 -82 98c-118 0 -224 -188 -271 -320z" />
    <glyph glyph-name="Ccaron" unicode="&#x10c;" horiz-adv-x="593" 
d="M455 902c-5 11 0 20 8 25s21 1 26 -9l32 -67l100 74c10 8 20 5 26 -2c6 -9 6 -20 -3 -28l-115 -92c-14 -12 -32 -6 -36 5zM637 239c11 -5 16 -17 12 -28c-72 -174 -169 -279 -325 -279c-130 0 -198 81 -198 205c0 61 18 130 42 205c-102 24 -168 93 -168 195
c0 68 28 141 72 195c4 5 10 7 16 7c11 0 21 -8 21 -21c0 -5 -1 -10 -5 -14c-36 -40 -62 -110 -62 -165c0 -89 58 -139 141 -157c56 160 171 358 313 355c82 -2 124 -61 124 -140c0 -168 -196 -265 -366 -265c-15 0 -27 1 -44 3c-23 -74 -42 -140 -42 -198
c0 -107 58 -163 156 -163c138 0 221 94 286 253c4 11 17 16 27 12zM225 375c8 -1 17 -1 26 -1c148 0 327 81 327 223c0 57 -27 98 -82 98c-118 0 -224 -188 -271 -320z" />
    <glyph glyph-name="Ccedilla" unicode="&#xc7;" horiz-adv-x="593" 
d="M637 239c11 -5 16 -17 12 -28c-72 -174 -169 -279 -325 -279h-2l-17 -37c46 4 72 -23 66 -68c-7 -51 -43 -78 -104 -78c-26 0 -47 8 -65 22c-22 17 4 49 25 33c13 -9 29 -13 46 -13c34 0 53 12 56 36c4 28 -10 38 -43 32c-17 -4 -30 7 -25 19l26 56
c-106 15 -161 91 -161 203c0 61 18 130 42 205c-102 24 -168 93 -168 195c0 68 28 141 72 195c4 5 10 7 16 7c11 0 21 -8 21 -21c0 -5 -1 -10 -5 -14c-36 -40 -62 -110 -62 -165c0 -89 58 -139 141 -157c56 160 171 358 313 355c82 -2 124 -61 124 -140
c0 -168 -196 -265 -366 -265c-15 0 -27 1 -44 3c-23 -74 -42 -140 -42 -198c0 -107 58 -163 156 -163c138 0 221 94 286 253c4 11 17 16 27 12zM496 695c-118 0 -224 -188 -271 -320c8 -1 17 -1 26 -1c148 0 327 81 327 223c0 57 -27 98 -82 98z" />
    <glyph glyph-name="Cdotaccent" unicode="&#x10a;" horiz-adv-x="593" 
d="M514 797c-21 0 -38 16 -38 37c0 20 17 37 38 37s37 -17 37 -37c0 -21 -16 -37 -37 -37zM637 239c11 -5 16 -17 12 -28c-72 -174 -169 -279 -325 -279c-130 0 -198 81 -198 205c0 61 18 130 42 205c-102 24 -168 93 -168 195c0 68 28 141 72 195c4 5 10 7 16 7
c11 0 21 -8 21 -21c0 -5 -1 -10 -5 -14c-36 -40 -62 -110 -62 -165c0 -89 58 -139 141 -157c56 160 171 358 313 355c82 -2 124 -61 124 -140c0 -168 -196 -265 -366 -265c-15 0 -27 1 -44 3c-23 -74 -42 -140 -42 -198c0 -107 58 -163 156 -163c138 0 221 94 286 253
c4 11 17 16 27 12zM225 375c8 -1 17 -1 26 -1c148 0 327 81 327 223c0 57 -27 98 -82 98c-118 0 -224 -188 -271 -320z" />
    <glyph glyph-name="D" unicode="D" horiz-adv-x="833" 
d="M799 406c0 -211 -109 -474 -308 -474c-95 0 -166 50 -166 131c0 65 48 110 103 110c47 0 81 -33 97 -80c4 -13 -5 -28 -19 -28c-9 0 -17 5 -20 14c-11 28 -32 52 -58 52c-33 0 -61 -30 -61 -68c0 -60 61 -89 124 -89c174 0 266 251 266 432c0 165 -63 283 -222 291
c-182 0 -286 -142 -288 -334c0 -12 -9 -21 -21 -21c-11 0 -21 9 -21 21c2 220 127 376 330 376c186 -9 264 -145 264 -333zM501 582c-27 -52 -49 -124 -72 -198c-55 -180 -117 -385 -283 -385c-82 0 -146 53 -146 135c0 87 68 165 144 165c10 0 19 -1 29 -4
c9 -3 15 -11 15 -20c0 -14 -13 -24 -27 -21c-5 1 -10 2 -16 2c-55 0 -103 -62 -103 -120c0 -62 47 -95 103 -95c140 0 197 202 244 355c23 77 46 151 74 206c20 38 52 66 91 76c14 3 23 -5 25 -18c0 -15 -9 -22 -17 -24c-23 -4 -50 -30 -61 -54z" />
    <glyph glyph-name="Eth" unicode="&#xd0;" horiz-adv-x="833" 
d="M535 739c186 -9 264 -145 264 -333c0 -211 -109 -474 -308 -474c-95 0 -166 50 -166 131c0 65 48 110 103 110c47 0 81 -33 97 -80c4 -13 -5 -28 -19 -28c-9 0 -17 5 -20 14c-11 28 -32 52 -58 52c-33 0 -61 -30 -61 -68c0 -60 61 -89 124 -89c174 0 266 251 266 432
c0 165 -63 283 -222 291c-182 0 -286 -142 -288 -334c0 -12 -9 -21 -21 -21c-11 0 -21 9 -21 21c2 220 127 376 330 376zM501 342h-85c-52 -168 -117 -343 -270 -343c-82 0 -146 53 -146 135c0 87 68 165 144 165c10 0 19 -1 29 -4c9 -3 15 -11 15 -20
c0 -14 -13 -24 -27 -21c-5 1 -10 2 -16 2c-55 0 -103 -62 -103 -120c0 -62 47 -95 103 -95c124 0 183 158 227 301h-56c-13 0 -21 10 -21 21c1 12 9 21 22 21h68c2 4 3 8 4 12c23 77 46 151 74 206c20 38 52 66 91 76c14 3 23 -5 25 -18c0 -15 -9 -22 -17 -24
c-23 -4 -50 -30 -61 -54c-27 -52 -49 -124 -72 -198h71c13 0 21 -9 22 -21c0 -11 -8 -21 -21 -21z" />
    <glyph glyph-name="Dcaron" unicode="&#x10e;" horiz-adv-x="833" 
d="M552 905c-5 11 0 20 8 25s21 1 26 -9l32 -67l100 74c10 8 20 5 26 -2c6 -9 6 -20 -3 -28l-115 -92c-14 -12 -32 -6 -36 5zM799 406c0 -211 -109 -474 -308 -474c-95 0 -166 50 -166 131c0 65 48 110 103 110c47 0 81 -33 97 -80c4 -13 -5 -28 -19 -28c-9 0 -17 5 -20 14
c-11 28 -32 52 -58 52c-33 0 -61 -30 -61 -68c0 -60 61 -89 124 -89c174 0 266 251 266 432c0 165 -63 283 -222 291c-182 0 -286 -142 -288 -334c0 -12 -9 -21 -21 -21c-11 0 -21 9 -21 21c2 220 127 376 330 376c186 -9 264 -145 264 -333zM501 582
c-27 -52 -49 -124 -72 -198c-55 -180 -117 -385 -283 -385c-82 0 -146 53 -146 135c0 87 68 165 144 165c10 0 19 -1 29 -4c9 -3 15 -11 15 -20c0 -14 -13 -24 -27 -21c-5 1 -10 2 -16 2c-55 0 -103 -62 -103 -120c0 -62 47 -95 103 -95c140 0 197 202 244 355
c23 77 46 151 74 206c20 38 52 66 91 76c14 3 23 -5 25 -18c0 -15 -9 -22 -17 -24c-23 -4 -50 -30 -61 -54z" />
    <glyph glyph-name="Dcroat" unicode="&#x110;" horiz-adv-x="833" 
d="M535 739c186 -9 264 -145 264 -333c0 -211 -109 -474 -308 -474c-95 0 -166 50 -166 131c0 65 48 110 103 110c47 0 81 -33 97 -80c4 -13 -5 -28 -19 -28c-9 0 -17 5 -20 14c-11 28 -32 52 -58 52c-33 0 -61 -30 -61 -68c0 -60 61 -89 124 -89c174 0 266 251 266 432
c0 165 -63 283 -222 291c-182 0 -286 -142 -288 -334c0 -12 -9 -21 -21 -21c-11 0 -21 9 -21 21c2 220 127 376 330 376zM501 342h-85c-52 -168 -117 -343 -270 -343c-82 0 -146 53 -146 135c0 87 68 165 144 165c10 0 19 -1 29 -4c9 -3 15 -11 15 -20
c0 -14 -13 -24 -27 -21c-5 1 -10 2 -16 2c-55 0 -103 -62 -103 -120c0 -62 47 -95 103 -95c124 0 183 158 227 301h-56c-13 0 -21 10 -21 21c1 12 9 21 22 21h68c2 4 3 8 4 12c23 77 46 151 74 206c20 38 52 66 91 76c14 3 23 -5 25 -18c0 -15 -9 -22 -17 -24
c-23 -4 -50 -30 -61 -54c-27 -52 -49 -124 -72 -198h71c13 0 21 -9 22 -21c0 -11 -8 -21 -21 -21z" />
    <glyph glyph-name="E" unicode="E" horiz-adv-x="476" 
d="M521 239c8 -4 13 -12 13 -20c0 -3 -1 -5 -2 -8c-71 -174 -170 -271 -324 -271c-122 0 -208 77 -208 198c0 130 75 221 183 267c-25 27 -43 63 -43 99c0 28 7 51 9 59c-60 27 -111 83 -140 145c-1 3 -2 6 -2 10c0 7 4 14 12 18c3 1 6 2 9 2c8 0 15 -4 19 -12
c31 -64 60 -89 116 -124c40 86 127 139 222 139c63 0 109 -30 109 -80c-2 -78 -114 -129 -211 -129c-38 0 -68 7 -95 15c-3 -11 -5 -24 -5 -42c0 -31 19 -62 44 -84c23 6 69 14 87 14c30 0 61 -16 61 -44c0 -33 -25 -51 -59 -51c-32 0 -64 12 -97 34
c-108 -39 -177 -132 -177 -236c0 -101 72 -156 166 -156c136 0 220 87 285 245c4 11 17 16 28 12zM202 587c26 -8 50 -12 81 -12c72 0 166 36 169 86c0 26 -33 38 -67 38c-79 0 -152 -47 -183 -112zM280 389c15 -6 30 -8 44 -7c7 1 10 3 9 5c0 3 -6 6 -17 6
c-5 0 -18 -1 -36 -4z" />
    <glyph glyph-name="Eacute" unicode="&#xc9;" horiz-adv-x="476" 
d="M362 842l135 93c10 7 24 3 30 -7s4 -24 -7 -31l-138 -91c-11 -6 -22 -2 -28 7c-4 10 -2 22 8 29zM521 239c8 -4 13 -12 13 -20c0 -3 -1 -5 -2 -8c-71 -174 -170 -271 -324 -271c-122 0 -208 77 -208 198c0 130 75 221 183 267c-25 27 -43 63 -43 99c0 28 7 51 9 59
c-60 27 -111 83 -140 145c-1 3 -2 6 -2 10c0 7 4 14 12 18c3 1 6 2 9 2c8 0 15 -4 19 -12c31 -64 60 -89 116 -124c40 86 127 139 222 139c63 0 109 -30 109 -80c-2 -78 -114 -129 -211 -129c-38 0 -68 7 -95 15c-3 -11 -5 -24 -5 -42c0 -31 19 -62 44 -84c23 6 69 14 87 14
c30 0 61 -16 61 -44c0 -33 -25 -51 -59 -51c-32 0 -64 12 -97 34c-108 -39 -177 -132 -177 -236c0 -101 72 -156 166 -156c136 0 220 87 285 245c4 11 17 16 28 12zM202 587c26 -8 50 -12 81 -12c72 0 166 36 169 86c0 26 -33 38 -67 38c-79 0 -152 -47 -183 -112zM280 389
c15 -6 30 -8 44 -7c7 1 10 3 9 5c0 3 -6 6 -17 6c-5 0 -18 -1 -36 -4z" />
    <glyph glyph-name="Ecaron" unicode="&#x11a;" horiz-adv-x="476" 
d="M341 906c-5 11 0 20 8 25s21 1 26 -9l32 -67l100 74c10 8 20 5 26 -2c6 -9 6 -20 -3 -28l-115 -92c-14 -12 -32 -6 -36 5zM521 239c8 -4 13 -12 13 -20c0 -3 -1 -5 -2 -8c-71 -174 -170 -271 -324 -271c-122 0 -208 77 -208 198c0 130 75 221 183 267
c-25 27 -43 63 -43 99c0 28 7 51 9 59c-60 27 -111 83 -140 145c-1 3 -2 6 -2 10c0 7 4 14 12 18c3 1 6 2 9 2c8 0 15 -4 19 -12c31 -64 60 -89 116 -124c40 86 127 139 222 139c63 0 109 -30 109 -80c-2 -78 -114 -129 -211 -129c-38 0 -68 7 -95 15c-3 -11 -5 -24 -5 -42
c0 -31 19 -62 44 -84c23 6 69 14 87 14c30 0 61 -16 61 -44c0 -33 -25 -51 -59 -51c-32 0 -64 12 -97 34c-108 -39 -177 -132 -177 -236c0 -101 72 -156 166 -156c136 0 220 87 285 245c4 11 17 16 28 12zM202 587c26 -8 50 -12 81 -12c72 0 166 36 169 86
c0 26 -33 38 -67 38c-79 0 -152 -47 -183 -112zM280 389c15 -6 30 -8 44 -7c7 1 10 3 9 5c0 3 -6 6 -17 6c-5 0 -18 -1 -36 -4z" />
    <glyph glyph-name="Ecircumflex" unicode="&#xca;" horiz-adv-x="476" 
d="M512 819c6 -11 0 -22 -8 -25c-6 -2 -18 -1 -25 9l-50 75l-103 -73c-10 -7 -20 -5 -26 2c-6 9 -6 21 3 28l117 91c14 11 30 6 36 -5zM521 239c8 -4 13 -12 13 -20c0 -3 -1 -5 -2 -8c-71 -174 -170 -271 -324 -271c-122 0 -208 77 -208 198c0 130 75 221 183 267
c-25 27 -43 63 -43 99c0 28 7 51 9 59c-60 27 -111 83 -140 145c-1 3 -2 6 -2 10c0 7 4 14 12 18c3 1 6 2 9 2c8 0 15 -4 19 -12c31 -64 60 -89 116 -124c40 86 127 139 222 139c63 0 109 -30 109 -80c-2 -78 -114 -129 -211 -129c-38 0 -68 7 -95 15c-3 -11 -5 -24 -5 -42
c0 -31 19 -62 44 -84c23 6 69 14 87 14c30 0 61 -16 61 -44c0 -33 -25 -51 -59 -51c-32 0 -64 12 -97 34c-108 -39 -177 -132 -177 -236c0 -101 72 -156 166 -156c136 0 220 87 285 245c4 11 17 16 28 12zM202 587c26 -8 50 -12 81 -12c72 0 166 36 169 86
c0 26 -33 38 -67 38c-79 0 -152 -47 -183 -112zM280 389c15 -6 30 -8 44 -7c7 1 10 3 9 5c0 3 -6 6 -17 6c-5 0 -18 -1 -36 -4z" />
    <glyph glyph-name="Edieresis" unicode="&#xcb;" horiz-adv-x="476" 
d="M346 870c19 0 35 -16 35 -35s-16 -34 -35 -34s-34 15 -34 34s15 35 34 35zM456 870c19 0 35 -16 35 -35s-16 -34 -35 -34s-34 15 -34 34s15 35 34 35zM521 239c8 -4 13 -12 13 -20c0 -3 -1 -5 -2 -8c-71 -174 -170 -271 -324 -271c-122 0 -208 77 -208 198
c0 130 75 221 183 267c-25 27 -43 63 -43 99c0 28 7 51 9 59c-60 27 -111 83 -140 145c-1 3 -2 6 -2 10c0 7 4 14 12 18c3 1 6 2 9 2c8 0 15 -4 19 -12c31 -64 60 -89 116 -124c40 86 127 139 222 139c63 0 109 -30 109 -80c-2 -78 -114 -129 -211 -129c-38 0 -68 7 -95 15
c-3 -11 -5 -24 -5 -42c0 -31 19 -62 44 -84c23 6 69 14 87 14c30 0 61 -16 61 -44c0 -33 -25 -51 -59 -51c-32 0 -64 12 -97 34c-108 -39 -177 -132 -177 -236c0 -101 72 -156 166 -156c136 0 220 87 285 245c4 11 17 16 28 12zM202 587c26 -8 50 -12 81 -12
c72 0 166 36 169 86c0 26 -33 38 -67 38c-79 0 -152 -47 -183 -112zM280 389c15 -6 30 -8 44 -7c7 1 10 3 9 5c0 3 -6 6 -17 6c-5 0 -18 -1 -36 -4z" />
    <glyph glyph-name="Edotaccent" unicode="&#x116;" horiz-adv-x="476" 
d="M400 801c-21 0 -38 16 -38 37c0 20 17 37 38 37s37 -17 37 -37c0 -21 -16 -37 -37 -37zM521 239c8 -4 13 -12 13 -20c0 -3 -1 -5 -2 -8c-71 -174 -170 -271 -324 -271c-122 0 -208 77 -208 198c0 130 75 221 183 267c-25 27 -43 63 -43 99c0 28 7 51 9 59
c-60 27 -111 83 -140 145c-1 3 -2 6 -2 10c0 7 4 14 12 18c3 1 6 2 9 2c8 0 15 -4 19 -12c31 -64 60 -89 116 -124c40 86 127 139 222 139c63 0 109 -30 109 -80c-2 -78 -114 -129 -211 -129c-38 0 -68 7 -95 15c-3 -11 -5 -24 -5 -42c0 -31 19 -62 44 -84c23 6 69 14 87 14
c30 0 61 -16 61 -44c0 -33 -25 -51 -59 -51c-32 0 -64 12 -97 34c-108 -39 -177 -132 -177 -236c0 -101 72 -156 166 -156c136 0 220 87 285 245c4 11 17 16 28 12zM202 587c26 -8 50 -12 81 -12c72 0 166 36 169 86c0 26 -33 38 -67 38c-79 0 -152 -47 -183 -112zM280 389
c15 -6 30 -8 44 -7c7 1 10 3 9 5c0 3 -6 6 -17 6c-5 0 -18 -1 -36 -4z" />
    <glyph glyph-name="Egrave" unicode="&#xc8;" horiz-adv-x="476" 
d="M463 835c9 -8 9 -19 3 -28c-6 -7 -17 -10 -26 -2l-110 97c-10 9 -10 22 -3 32c8 8 21 11 31 2zM521 239c8 -4 13 -12 13 -20c0 -3 -1 -5 -2 -8c-71 -174 -170 -271 -324 -271c-122 0 -208 77 -208 198c0 130 75 221 183 267c-25 27 -43 63 -43 99c0 28 7 51 9 59
c-60 27 -111 83 -140 145c-1 3 -2 6 -2 10c0 7 4 14 12 18c3 1 6 2 9 2c8 0 15 -4 19 -12c31 -64 60 -89 116 -124c40 86 127 139 222 139c63 0 109 -30 109 -80c-2 -78 -114 -129 -211 -129c-38 0 -68 7 -95 15c-3 -11 -5 -24 -5 -42c0 -31 19 -62 44 -84c23 6 69 14 87 14
c30 0 61 -16 61 -44c0 -33 -25 -51 -59 -51c-32 0 -64 12 -97 34c-108 -39 -177 -132 -177 -236c0 -101 72 -156 166 -156c136 0 220 87 285 245c4 11 17 16 28 12zM202 587c26 -8 50 -12 81 -12c72 0 166 36 169 86c0 26 -33 38 -67 38c-79 0 -152 -47 -183 -112zM280 389
c15 -6 30 -8 44 -7c7 1 10 3 9 5c0 3 -6 6 -17 6c-5 0 -18 -1 -36 -4z" />
    <glyph glyph-name="Emacron" unicode="&#x112;" horiz-adv-x="476" 
d="M497 856c13 0 21 -9 22 -21c0 -11 -8 -21 -21 -21h-195c-13 0 -21 10 -21 21c1 12 9 21 22 21h193zM521 239c8 -4 13 -12 13 -20c0 -3 -1 -5 -2 -8c-71 -174 -170 -271 -324 -271c-122 0 -208 77 -208 198c0 130 75 221 183 267c-25 27 -43 63 -43 99c0 28 7 51 9 59
c-60 27 -111 83 -140 145c-1 3 -2 6 -2 10c0 7 4 14 12 18c3 1 6 2 9 2c8 0 15 -4 19 -12c31 -64 60 -89 116 -124c40 86 127 139 222 139c63 0 109 -30 109 -80c-2 -78 -114 -129 -211 -129c-38 0 -68 7 -95 15c-3 -11 -5 -24 -5 -42c0 -31 19 -62 44 -84c23 6 69 14 87 14
c30 0 61 -16 61 -44c0 -33 -25 -51 -59 -51c-32 0 -64 12 -97 34c-108 -39 -177 -132 -177 -236c0 -101 72 -156 166 -156c136 0 220 87 285 245c4 11 17 16 28 12zM202 587c26 -8 50 -12 81 -12c72 0 166 36 169 86c0 26 -33 38 -67 38c-79 0 -152 -47 -183 -112zM280 389
c15 -6 30 -8 44 -7c7 1 10 3 9 5c0 3 -6 6 -17 6c-5 0 -18 -1 -36 -4z" />
    <glyph glyph-name="Eogonek" unicode="&#x118;" horiz-adv-x="476" 
d="M532 211c-35 -87 -78 -154 -130 -200c-78 -68 -99 -96 -99 -126c0 -21 14 -35 36 -35c26 0 38 4 60 16c25 14 42 -21 17 -35c-30 -17 -47 -23 -74 -23c-49 0 -81 29 -81 72c0 23 10 47 27 70c-25 -7 -52 -10 -80 -10c-122 0 -208 77 -208 198c0 130 75 221 183 267
c-25 27 -43 63 -43 99c0 28 7 51 9 59c-60 27 -111 83 -140 145c-1 3 -2 6 -2 10c0 7 4 14 12 18c3 1 6 2 9 2c8 0 15 -4 19 -12c31 -64 60 -89 116 -124c40 86 127 139 222 139c63 0 109 -30 109 -80c-2 -78 -114 -129 -211 -129c-38 0 -68 7 -95 15c-3 -11 -5 -24 -5 -42
c0 -31 19 -62 44 -84c23 6 69 14 87 14c30 0 61 -16 61 -44c0 -33 -25 -51 -59 -51c-32 0 -64 12 -97 34c-108 -39 -177 -132 -177 -236c0 -101 72 -156 166 -156c136 0 220 87 285 245c4 11 17 16 28 12c8 -4 13 -12 13 -20c0 -3 -1 -5 -2 -8zM385 699
c-79 0 -152 -47 -183 -112c26 -8 50 -12 81 -12c72 0 166 36 169 86c0 26 -33 38 -67 38zM316 393c-5 0 -18 -1 -36 -4c15 -6 30 -8 44 -7c7 1 10 3 9 5c0 3 -6 6 -17 6z" />
    <glyph glyph-name="F" unicode="F" horiz-adv-x="632" 
d="M833 680c0 -45 -53 -70 -107 -70c-50 0 -95 5 -138 12c-37 -60 -76 -177 -99 -247l-12 -39h89c12 0 21 -10 21 -22c0 -11 -9 -21 -21 -21h-103c-89 -248 -123 -348 -290 -348c-112 0 -175 80 -173 180c6 121 104 210 216 212c12 0 21 -10 21 -21c0 -12 -9 -22 -21 -22
c-89 0 -174 -77 -174 -170c0 -79 46 -137 131 -137c139 0 164 89 245 306h-58c-12 0 -21 10 -21 21c0 12 9 22 21 22h72l17 52c21 66 62 190 95 243c-39 9 -75 20 -110 30c-69 20 -133 39 -202 39c-67 0 -131 -66 -131 -134c0 -72 48 -105 116 -105c29 0 61 8 91 21
c3 1 6 2 10 2c14 0 20 -13 20 -21s-4 -15 -12 -19c-35 -16 -74 -25 -110 -25c-97 0 -157 59 -157 146c0 97 85 177 173 177c74 0 141 -19 214 -41c39 -11 81 -23 126 -33c43 46 105 71 169 73c51 0 92 -21 92 -61zM790 681c0 12 -29 18 -49 18c-46 -1 -81 -17 -116 -40
c32 -4 65 -7 101 -7c31 0 64 11 64 29z" />
    <glyph glyph-name="G" unicode="G" horiz-adv-x="703" 
d="M748 237c8 -4 13 -11 13 -19c0 -3 -1 -6 -2 -9c-62 -146 -145 -239 -291 -282c-48 -137 -110 -208 -182 -209c-60 -1 -99 38 -99 97c0 63 49 109 169 131c25 4 52 9 79 16l53 151c-61 -81 -132 -135 -215 -135c-100 3 -147 63 -147 159c0 58 21 141 42 205
c-102 24 -168 93 -168 195c0 39 9 78 24 115c12 30 29 57 48 80c4 5 10 7 16 7c5 0 10 -2 14 -5c5 -4 7 -10 7 -16c0 -5 -1 -10 -5 -14c-17 -19 -31 -43 -41 -68c-13 -31 -21 -64 -21 -97c0 -89 58 -139 141 -157c75 215 182 358 296 358c85 0 141 -57 141 -143
c-7 -168 -188 -265 -366 -265c-15 0 -27 1 -44 3c-23 -67 -42 -148 -42 -198c0 -81 38 -114 105 -117c74 0 139 57 195 139c54 77 99 174 136 271l10 27c4 12 11 15 20 15c17 0 25 -15 20 -28l-74 -197l-53 -149l-42 -121c115 39 185 131 235 249c4 8 11 13 19 13
c3 0 6 -1 9 -2zM225 375c154 -19 353 81 353 222c0 61 -40 101 -99 101c-95 0 -185 -129 -254 -323zM419 -85c-19 -4 -37 -8 -55 -11c-92 -16 -131 -42 -135 -88c0 -35 23 -57 57 -56c54 1 100 54 133 155z" />
    <glyph glyph-name="Gbreve" unicode="&#x11e;" horiz-adv-x="703" 
d="M679 911c-30 -72 -76 -110 -134 -110c-72 0 -122 53 -101 124c3 9 11 16 21 16c14 0 23 -14 20 -27c-13 -46 17 -71 57 -71s74 29 98 85c3 8 11 13 19 13c13 0 26 -15 20 -30zM748 237c8 -4 13 -11 13 -19c0 -3 -1 -6 -2 -9c-62 -146 -145 -239 -291 -282
c-48 -137 -110 -208 -182 -209c-60 -1 -99 38 -99 97c0 63 49 109 169 131c25 4 52 9 79 16l53 151c-61 -81 -132 -135 -215 -135c-100 3 -147 63 -147 159c0 58 21 141 42 205c-102 24 -168 93 -168 195c0 39 9 78 24 115c12 30 29 57 48 80c4 5 10 7 16 7c5 0 10 -2 14 -5
c5 -4 7 -10 7 -16c0 -5 -1 -10 -5 -14c-17 -19 -31 -43 -41 -68c-13 -31 -21 -64 -21 -97c0 -89 58 -139 141 -157c75 215 182 358 296 358c85 0 141 -57 141 -143c-7 -168 -188 -265 -366 -265c-15 0 -27 1 -44 3c-23 -67 -42 -148 -42 -198c0 -81 38 -114 105 -117
c74 0 139 57 195 139c54 77 99 174 136 271l10 27c4 12 11 15 20 15c17 0 25 -15 20 -28l-74 -197l-53 -149l-42 -121c115 39 185 131 235 249c4 8 11 13 19 13c3 0 6 -1 9 -2zM225 375c154 -19 353 81 353 222c0 61 -40 101 -99 101c-95 0 -185 -129 -254 -323zM419 -85
c-19 -4 -37 -8 -55 -11c-92 -16 -131 -42 -135 -88c0 -35 23 -57 57 -56c54 1 100 54 133 155z" />
    <glyph glyph-name="Gcommaaccent" unicode="&#x122;" horiz-adv-x="703" 
d="M748 237c8 -4 13 -11 13 -19c0 -3 -1 -6 -2 -9c-62 -146 -145 -239 -291 -282c-22 -57 -65 -122 -115 -122c-35 0 -56 24 -56 56c0 54 48 79 139 104l52 148c-61 -81 -132 -135 -215 -135c-100 3 -147 63 -147 159c0 58 21 141 42 205c-102 24 -168 93 -168 195
c0 39 9 78 24 115c12 30 29 57 48 80c4 5 10 7 16 7c5 0 10 -2 14 -5c5 -4 7 -10 7 -16c0 -5 -1 -10 -5 -14c-17 -19 -31 -43 -41 -68c-13 -31 -21 -64 -21 -97c0 -89 58 -139 141 -157c75 215 182 358 296 358c85 0 141 -57 141 -143c-7 -168 -188 -265 -366 -265
c-15 0 -27 1 -44 3c-23 -67 -42 -148 -42 -198c0 -81 38 -114 105 -117c74 0 139 57 195 139c54 77 99 174 136 271l10 27c4 12 11 15 20 15c17 0 25 -15 20 -28l-74 -197l-53 -149l-42 -121c115 39 185 131 235 249c4 8 11 13 19 13c3 0 6 -1 9 -2zM479 698
c-95 0 -185 -129 -254 -323c154 -19 353 81 353 222c0 61 -40 101 -99 101zM353 -153c22 0 48 34 64 68c-51 -11 -78 -32 -78 -54c0 -8 6 -14 14 -14zM206 -135c19 -2 34 -19 32 -38c-1 -5 -2 -10 -5 -14l-36 -57c-5 -9 -12 -11 -20 -7c-8 3 -10 12 -5 20l17 31
c-14 6 -21 19 -20 34c2 19 18 33 37 31z" />
    <glyph glyph-name="Gdotaccent" unicode="&#x120;" horiz-adv-x="703" 
d="M527 801c-21 0 -38 16 -38 37c0 20 17 37 38 37s37 -17 37 -37c0 -21 -16 -37 -37 -37zM748 237c8 -4 13 -11 13 -19c0 -3 -1 -6 -2 -9c-62 -146 -145 -239 -291 -282c-48 -137 -110 -208 -182 -209c-60 -1 -99 38 -99 97c0 63 49 109 169 131c25 4 52 9 79 16l53 151
c-61 -81 -132 -135 -215 -135c-100 3 -147 63 -147 159c0 58 21 141 42 205c-102 24 -168 93 -168 195c0 39 9 78 24 115c12 30 29 57 48 80c4 5 10 7 16 7c5 0 10 -2 14 -5c5 -4 7 -10 7 -16c0 -5 -1 -10 -5 -14c-17 -19 -31 -43 -41 -68c-13 -31 -21 -64 -21 -97
c0 -89 58 -139 141 -157c75 215 182 358 296 358c85 0 141 -57 141 -143c-7 -168 -188 -265 -366 -265c-15 0 -27 1 -44 3c-23 -67 -42 -148 -42 -198c0 -81 38 -114 105 -117c74 0 139 57 195 139c54 77 99 174 136 271l10 27c4 12 11 15 20 15c17 0 25 -15 20 -28
l-74 -197l-53 -149l-42 -121c115 39 185 131 235 249c4 8 11 13 19 13c3 0 6 -1 9 -2zM225 375c154 -19 353 81 353 222c0 61 -40 101 -99 101c-95 0 -185 -129 -254 -323zM419 -85c-19 -4 -37 -8 -55 -11c-92 -16 -131 -42 -135 -88c0 -35 23 -57 57 -56
c54 1 100 54 133 155z" />
    <glyph glyph-name="H" unicode="H" horiz-adv-x="811" 
d="M884 717c17 0 25 -15 20 -28l-52 -148c-44 -126 -101 -290 -108 -309c-65 -177 -94 -259 -96 -311c-2 -50 17 -88 68 -88c11 0 21 -10 21 -22c-1 -11 -10 -21 -22 -21c-77 2 -109 58 -109 131c0 60 36 162 98 325l17 47h-258c-5 -14 -9 -27 -13 -40
c-51 -157 -101 -308 -277 -308c-112 0 -173 78 -173 180c0 121 105 210 216 212c12 0 21 -10 21 -21c0 -12 -9 -22 -21 -22c-89 0 -174 -73 -174 -170c0 -79 46 -137 132 -137c144 0 189 137 235 279c3 9 6 19 9 27h-42c-12 0 -21 10 -21 21c0 12 9 22 21 22h56l17 52
c23 72 51 163 90 234l3 6c-43 10 -82 22 -119 33c-64 20 -124 39 -191 39c-66 0 -131 -65 -131 -132c0 -74 48 -107 116 -107c29 0 61 8 91 21c3 1 6 2 10 2c14 0 20 -13 20 -21s-4 -15 -12 -19c-35 -16 -74 -25 -110 -25c-97 0 -157 59 -157 146c0 97 85 177 173 177
c74 0 136 -19 204 -40c41 -13 85 -27 134 -36c23 22 42 36 64 48c3 2 7 3 10 3c15 0 21 -13 21 -21s-4 -15 -12 -19c-32 -18 -62 -44 -77 -75c-36 -67 -64 -156 -87 -227l-12 -39h259l77 219c27 78 49 142 52 149c3 8 11 13 19 13z" />
    <glyph glyph-name="Hbar" unicode="&#x126;" horiz-adv-x="811" 
d="M884 717c17 0 25 -15 20 -28l-52 -148c-44 -126 -101 -290 -108 -309c-65 -177 -94 -259 -96 -311c-2 -50 17 -88 68 -88c11 0 21 -10 21 -22c-1 -11 -10 -21 -22 -21c-77 2 -109 58 -109 131c0 60 36 162 98 325l17 47h-258c-5 -14 -9 -27 -13 -40
c-51 -157 -101 -308 -277 -308c-112 0 -173 78 -173 180c0 121 105 210 216 212c12 0 21 -10 21 -21c0 -12 -9 -22 -21 -22c-89 0 -174 -73 -174 -170c0 -79 46 -137 132 -137c144 0 189 137 235 279c3 9 6 19 9 27h-42c-12 0 -21 10 -21 21c0 12 9 22 21 22h56l17 52l28 87
h-57c-13 0 -21 10 -21 21c1 12 9 21 22 21h71c14 37 29 73 47 105l3 6c-43 10 -82 22 -119 33c-64 20 -124 39 -191 39c-66 0 -131 -65 -131 -132c0 -74 48 -107 116 -107c29 0 61 8 91 21c3 1 6 2 10 2c14 0 20 -13 20 -21s-4 -15 -12 -19c-35 -16 -74 -25 -110 -25
c-97 0 -157 59 -157 146c0 97 85 177 173 177c74 0 136 -19 204 -40c41 -13 85 -27 134 -36c23 22 42 36 64 48c3 2 7 3 10 3c15 0 21 -13 21 -21s-4 -15 -12 -19c-32 -18 -62 -44 -77 -75c-14 -26 -27 -55 -38 -85h261c5 13 10 26 14 38c27 78 49 142 52 149
c3 8 11 13 19 13zM736 336l49 139h-263l-33 -100l-12 -39h259z" />
    <glyph glyph-name="I" unicode="I" horiz-adv-x="544" 
d="M713 722c0 -47 -72 -85 -143 -104c-4 -12 -55 -177 -62 -203c-57 -202 -134 -466 -339 -466c-99 0 -169 78 -169 184c0 115 113 209 221 207c12 0 21 -10 21 -22c0 -11 -10 -20 -22 -20c-93 0 -178 -80 -178 -166c-2 -83 55 -141 128 -141c172 0 242 251 297 436l55 179
l-29 -6c-91 -21 -216 -45 -216 -126c-2 -52 34 -90 79 -90c11 0 21 -10 20 -22c0 -11 -10 -20 -21 -20c-70 0 -123 59 -121 133c4 124 124 137 250 166l54 12c22 58 65 123 116 123c35 0 59 -22 59 -54zM590 668c42 9 78 38 78 54c0 8 -6 14 -14 14c-22 0 -48 -34 -64 -68z
" />
    <glyph glyph-name="IJ" unicode="&#x132;" horiz-adv-x="1021" 
d="M713 722c0 -47 -72 -85 -143 -104c-4 -12 -55 -177 -62 -203c-57 -202 -134 -466 -339 -466c-99 0 -169 78 -169 184c0 115 113 209 221 207c12 0 21 -10 21 -22c0 -11 -10 -20 -22 -20c-93 0 -178 -80 -178 -166c-2 -83 55 -141 128 -141c172 0 242 251 297 436l55 179
l-29 -6c-91 -21 -216 -45 -216 -126c-2 -52 34 -90 79 -90c11 0 21 -10 20 -22c0 -11 -10 -20 -21 -20c-70 0 -123 59 -121 133c4 124 124 137 250 166l54 12c22 58 65 123 116 123c35 0 59 -22 59 -54zM984 657c22 58 63 119 114 119c35 0 59 -22 59 -54
c0 -47 -72 -85 -143 -104c-38 -127 -162 -501 -212 -641c107 31 187 134 236 249c3 8 11 13 19 13c14 0 25 -15 20 -30c-63 -144 -146 -242 -292 -282l-12 -36c-36 -100 -68 -172 -154 -174c-72 0 -117 36 -119 98c0 99 78 113 174 131c25 4 51 9 78 16
c89 252 216 634 216 649c-21 -4 -43 -7 -64 -10c-127 -20 -297 -46 -297 -164c-2 -50 25 -84 79 -90c12 0 20 -10 20 -22c0 -11 -10 -20 -21 -20c-72 0 -122 60 -120 134c0 150 186 180 332 203c30 5 60 10 87 15zM590 668c42 9 78 38 78 54c0 8 -6 14 -14 14
c-22 0 -48 -34 -64 -68zM1034 668c42 9 78 38 78 54c0 8 -6 14 -14 14c-22 0 -48 -34 -64 -68zM733 -95l3 10c-19 -4 -37 -8 -55 -11c-77 -14 -139 -22 -139 -88c0 -42 36 -57 76 -57c63 2 86 65 115 146z" />
    <glyph glyph-name="Iacute" unicode="&#xcd;" horiz-adv-x="544" 
d="M619 880l135 93c10 7 24 3 30 -7s4 -24 -7 -31l-138 -91c-11 -6 -22 -2 -28 7c-4 10 -2 22 8 29zM713 722c0 -47 -72 -85 -143 -104c-4 -12 -55 -177 -62 -203c-57 -202 -134 -466 -339 -466c-99 0 -169 78 -169 184c0 115 113 209 221 207c12 0 21 -10 21 -22
c0 -11 -10 -20 -22 -20c-93 0 -178 -80 -178 -166c-2 -83 55 -141 128 -141c172 0 242 251 297 436l55 179l-29 -6c-91 -21 -216 -45 -216 -126c-2 -52 34 -90 79 -90c11 0 21 -10 20 -22c0 -11 -10 -20 -21 -20c-70 0 -123 59 -121 133c4 124 124 137 250 166l54 12
c22 58 65 123 116 123c35 0 59 -22 59 -54zM590 668c42 9 78 38 78 54c0 8 -6 14 -14 14c-22 0 -48 -34 -64 -68z" />
    <glyph glyph-name="Icircumflex" unicode="&#xce;" horiz-adv-x="544" 
d="M786 852c6 -11 0 -22 -8 -25c-6 -2 -18 -1 -25 9l-50 75l-103 -73c-10 -7 -20 -5 -26 2c-6 9 -6 21 3 28l117 91c14 11 30 6 36 -5zM713 722c0 -47 -72 -85 -143 -104c-4 -12 -55 -177 -62 -203c-57 -202 -134 -466 -339 -466c-99 0 -169 78 -169 184
c0 115 113 209 221 207c12 0 21 -10 21 -22c0 -11 -10 -20 -22 -20c-93 0 -178 -80 -178 -166c-2 -83 55 -141 128 -141c172 0 242 251 297 436l55 179l-29 -6c-91 -21 -216 -45 -216 -126c-2 -52 34 -90 79 -90c11 0 21 -10 20 -22c0 -11 -10 -20 -21 -20
c-70 0 -123 59 -121 133c4 124 124 137 250 166l54 12c22 58 65 123 116 123c35 0 59 -22 59 -54zM590 668c42 9 78 38 78 54c0 8 -6 14 -14 14c-22 0 -48 -34 -64 -68z" />
    <glyph glyph-name="Idieresis" unicode="&#xcf;" horiz-adv-x="544" 
d="M635 903c19 0 35 -16 35 -35s-16 -34 -35 -34s-34 15 -34 34s15 35 34 35zM745 903c19 0 35 -16 35 -35s-16 -34 -35 -34s-34 15 -34 34s15 35 34 35zM713 722c0 -47 -72 -85 -143 -104c-4 -12 -55 -177 -62 -203c-57 -202 -134 -466 -339 -466c-99 0 -169 78 -169 184
c0 115 113 209 221 207c12 0 21 -10 21 -22c0 -11 -10 -20 -22 -20c-93 0 -178 -80 -178 -166c-2 -83 55 -141 128 -141c172 0 242 251 297 436l55 179l-29 -6c-91 -21 -216 -45 -216 -126c-2 -52 34 -90 79 -90c11 0 21 -10 20 -22c0 -11 -10 -20 -21 -20
c-70 0 -123 59 -121 133c4 124 124 137 250 166l54 12c22 58 65 123 116 123c35 0 59 -22 59 -54zM590 668c42 9 78 38 78 54c0 8 -6 14 -14 14c-22 0 -48 -34 -64 -68z" />
    <glyph glyph-name="Idotaccent" unicode="&#x130;" horiz-adv-x="544" 
d="M668 834c-21 0 -38 16 -38 37c0 20 17 37 38 37s37 -17 37 -37c0 -21 -16 -37 -37 -37zM713 722c0 -47 -72 -85 -143 -104c-4 -12 -55 -177 -62 -203c-57 -202 -134 -466 -339 -466c-99 0 -169 78 -169 184c0 115 113 209 221 207c12 0 21 -10 21 -22
c0 -11 -10 -20 -22 -20c-93 0 -178 -80 -178 -166c-2 -83 55 -141 128 -141c172 0 242 251 297 436l55 179l-29 -6c-91 -21 -216 -45 -216 -126c-2 -52 34 -90 79 -90c11 0 21 -10 20 -22c0 -11 -10 -20 -21 -20c-70 0 -123 59 -121 133c4 124 124 137 250 166l54 12
c22 58 65 123 116 123c35 0 59 -22 59 -54zM590 668c42 9 78 38 78 54c0 8 -6 14 -14 14c-22 0 -48 -34 -64 -68z" />
    <glyph glyph-name="Igrave" unicode="&#xcc;" horiz-adv-x="544" 
d="M720 873c9 -8 9 -19 3 -28c-6 -7 -17 -10 -26 -2l-110 97c-10 9 -10 22 -3 32c8 8 21 11 31 2zM713 722c0 -47 -72 -85 -143 -104c-4 -12 -55 -177 -62 -203c-57 -202 -134 -466 -339 -466c-99 0 -169 78 -169 184c0 115 113 209 221 207c12 0 21 -10 21 -22
c0 -11 -10 -20 -22 -20c-93 0 -178 -80 -178 -166c-2 -83 55 -141 128 -141c172 0 242 251 297 436l55 179l-29 -6c-91 -21 -216 -45 -216 -126c-2 -52 34 -90 79 -90c11 0 21 -10 20 -22c0 -11 -10 -20 -21 -20c-70 0 -123 59 -121 133c4 124 124 137 250 166l54 12
c22 58 65 123 116 123c35 0 59 -22 59 -54zM590 668c42 9 78 38 78 54c0 8 -6 14 -14 14c-22 0 -48 -34 -64 -68z" />
    <glyph glyph-name="Imacron" unicode="&#x12a;" horiz-adv-x="544" 
d="M754 894c13 0 21 -9 22 -21c0 -11 -8 -21 -21 -21h-195c-13 0 -21 10 -21 21c1 12 9 21 22 21h193zM713 722c0 -47 -72 -85 -143 -104c-4 -12 -55 -177 -62 -203c-57 -202 -134 -466 -339 -466c-99 0 -169 78 -169 184c0 115 113 209 221 207c12 0 21 -10 21 -22
c0 -11 -10 -20 -22 -20c-93 0 -178 -80 -178 -166c-2 -83 55 -141 128 -141c172 0 242 251 297 436l55 179l-29 -6c-91 -21 -216 -45 -216 -126c-2 -52 34 -90 79 -90c11 0 21 -10 20 -22c0 -11 -10 -20 -21 -20c-70 0 -123 59 -121 133c4 124 124 137 250 166l54 12
c22 58 65 123 116 123c35 0 59 -22 59 -54zM590 668c42 9 78 38 78 54c0 8 -6 14 -14 14c-22 0 -48 -34 -64 -68z" />
    <glyph glyph-name="Iogonek" unicode="&#x12e;" horiz-adv-x="544" 
d="M654 776c35 0 59 -22 59 -54c0 -47 -72 -85 -143 -104c-4 -12 -55 -177 -62 -203c-42 -149 -95 -332 -203 -418c-65 -58 -83 -84 -83 -112c0 -21 14 -35 36 -35c26 0 38 4 60 16c25 14 42 -21 17 -35c-30 -17 -47 -23 -74 -23c-49 0 -81 29 -81 72c0 25 11 49 29 73
c-13 -3 -26 -4 -40 -4c-99 0 -169 78 -169 184c0 115 113 209 221 207c12 0 21 -10 21 -22c0 -11 -10 -20 -22 -20c-93 0 -178 -80 -178 -166c-2 -83 55 -141 128 -141c172 0 242 251 297 436l55 179l-29 -6c-91 -21 -216 -45 -216 -126c-2 -52 34 -90 79 -90
c11 0 21 -10 20 -22c0 -11 -10 -20 -21 -20c-70 0 -123 59 -121 133c4 124 124 137 250 166l54 12c22 58 65 123 116 123zM590 668c42 9 78 38 78 54c0 8 -6 14 -14 14c-22 0 -48 -34 -64 -68z" />
    <glyph glyph-name="J" unicode="J" horiz-adv-x="521" 
d="M484 657c22 58 63 119 114 119c35 0 59 -22 59 -54c0 -47 -72 -85 -143 -104c-38 -127 -162 -501 -212 -641c107 31 187 134 236 249c3 8 11 13 19 13c14 0 25 -15 20 -30c-63 -144 -146 -242 -292 -282l-12 -36c-36 -100 -68 -172 -154 -174c-72 0 -117 36 -119 98
c0 99 78 113 174 131c25 4 51 9 78 16c89 252 216 634 216 649c-21 -4 -43 -7 -64 -10c-127 -20 -297 -46 -297 -164c-2 -50 25 -84 79 -90c12 0 20 -10 20 -22c0 -11 -10 -20 -21 -20c-72 0 -122 60 -120 134c0 150 186 180 332 203c30 5 60 10 87 15zM534 668
c42 9 78 38 78 54c0 8 -6 14 -14 14c-22 0 -48 -34 -64 -68zM233 -95l3 10c-19 -4 -37 -8 -55 -11c-77 -14 -139 -22 -139 -88c0 -42 36 -57 76 -57c63 2 86 65 115 146z" />
    <glyph glyph-name="K" unicode="K" horiz-adv-x="806" 
d="M1036 754c0 -10 -6 -18 -15 -21c-62 -20 -121 -96 -184 -176c-69 -87 -141 -179 -231 -218c61 -38 76 -119 76 -202c0 -49 -6 -98 -11 -140c-6 -46 -7 -53 -7 -76c0 -60 22 -88 68 -88c11 0 21 -10 21 -22c0 -11 -10 -21 -21 -21c-74 0 -110 51 -110 131c0 29 2 38 7 81
c5 41 10 89 11 135c0 123 -38 181 -124 183c-12 0 -21 9 -21 21c0 11 9 21 21 21c114 0 204 114 288 221c50 64 150 191 211 191c11 0 21 -8 21 -20zM576 602c-36 -67 -64 -156 -87 -227c-27 -83 -37 -117 -39 -122c-51 -158 -101 -308 -277 -308c-112 0 -175 80 -173 180
c6 121 104 210 216 212c12 0 21 -10 21 -21c0 -12 -9 -22 -21 -22c-91 0 -168 -74 -174 -170c0 -82 49 -137 132 -137c143 0 189 137 235 279l40 122c23 72 51 163 90 234l3 6c-43 10 -82 22 -119 33c-64 20 -124 39 -191 39s-131 -65 -131 -136c0 -70 48 -103 116 -103
c29 0 61 8 91 21c3 1 6 2 10 2c14 0 20 -13 20 -21s-4 -15 -12 -19c-35 -16 -74 -25 -110 -25c-96 0 -157 58 -157 145c0 98 85 178 173 178c74 0 136 -19 204 -40c41 -13 85 -27 134 -36c23 22 42 36 64 48c3 2 7 3 10 3c8 0 15 -4 19 -12c1 -3 2 -6 2 -9
c0 -8 -4 -15 -12 -19c-33 -18 -60 -42 -77 -75z" />
    <glyph glyph-name="Kcommaaccent" unicode="&#x136;" horiz-adv-x="806" 
d="M1036 754c0 -10 -6 -18 -15 -21c-62 -20 -121 -96 -184 -176c-69 -87 -141 -179 -231 -218c61 -38 76 -119 76 -202c0 -49 -6 -98 -11 -140c-6 -46 -7 -53 -7 -76c0 -60 22 -88 68 -88c11 0 21 -10 21 -22c0 -11 -10 -21 -21 -21c-74 0 -110 51 -110 131c0 29 2 38 7 81
c5 41 10 89 11 135c0 123 -38 181 -124 183c-12 0 -21 9 -21 21c0 11 9 21 21 21c114 0 204 114 288 221c50 64 150 191 211 191c11 0 21 -8 21 -20zM576 602c-36 -67 -64 -156 -87 -227c-27 -83 -37 -117 -39 -122c-51 -158 -101 -308 -277 -308c-112 0 -175 80 -173 180
c6 121 104 210 216 212c12 0 21 -10 21 -21c0 -12 -9 -22 -21 -22c-91 0 -168 -74 -174 -170c0 -82 49 -137 132 -137c143 0 189 137 235 279l40 122c23 72 51 163 90 234l3 6c-43 10 -82 22 -119 33c-64 20 -124 39 -191 39s-131 -65 -131 -136c0 -70 48 -103 116 -103
c29 0 61 8 91 21c3 1 6 2 10 2c14 0 20 -13 20 -21s-4 -15 -12 -19c-35 -16 -74 -25 -110 -25c-96 0 -157 58 -157 145c0 98 85 178 173 178c74 0 136 -19 204 -40c41 -13 85 -27 134 -36c23 22 42 36 64 48c3 2 7 3 10 3c8 0 15 -4 19 -12c1 -3 2 -6 2 -9
c0 -8 -4 -15 -12 -19c-33 -18 -60 -42 -77 -75zM482 -102c-1 -5 -2 -10 -5 -14l-36 -57c-5 -9 -12 -11 -20 -7c-8 3 -10 12 -5 20l17 31c-14 6 -21 19 -20 34c2 19 18 33 37 31s34 -19 32 -38z" />
    <glyph glyph-name="L" unicode="L" horiz-adv-x="508" 
d="M433 655c22 58 65 123 116 123c35 0 59 -22 59 -54c0 -47 -72 -85 -143 -104c-24 -60 -47 -134 -66 -199c-33 -105 -55 -172 -74 -219c-14 -34 -29 -65 -47 -93l82 -79c83 -83 172 -177 263 -177c50 0 96 20 112 55c3 8 11 13 19 13c14 0 21 -14 21 -22c0 -2 -1 -5 -2 -8
c-25 -56 -91 -81 -151 -81c-106 0 -205 103 -292 190c-26 25 -51 51 -76 73c-3 -4 -6 -8 -9 -11c-35 -41 -88 -67 -141 -67c-69 5 -104 37 -104 96c4 70 52 110 110 110c43 0 90 -26 136 -65c15 25 28 53 40 82c19 49 34 93 72 216c17 56 37 120 58 177
c-20 -4 -41 -7 -61 -10c-134 -21 -281 -44 -296 -152c-1 -4 -1 -8 -1 -12c-1 -22 5 -43 17 -59s29 -27 52 -30l10 -1c12 0 21 -10 20 -22c0 -11 -10 -20 -22 -20c-5 0 -10 0 -14 1c-35 5 -62 22 -80 47c-18 23 -26 54 -25 86c0 5 0 11 1 16c19 139 181 164 331 187zM485 670
c42 9 78 38 78 54c0 8 -6 14 -14 14c-22 0 -48 -34 -64 -68zM213 89c3 4 6 8 10 12c-42 34 -80 58 -114 58c-35 0 -65 -26 -67 -68c0 -39 28 -54 62 -54c40 0 82 21 109 52z" />
    <glyph glyph-name="Lacute" unicode="&#x139;" horiz-adv-x="508" 
d="M529 859l135 93c10 7 24 3 30 -7s4 -24 -7 -31l-138 -91c-11 -6 -22 -2 -28 7c-4 10 -2 22 8 29zM433 655c22 58 65 123 116 123c35 0 59 -22 59 -54c0 -47 -72 -85 -143 -104c-24 -60 -47 -134 -66 -199c-33 -105 -55 -172 -74 -219c-14 -34 -29 -65 -47 -93l82 -79
c83 -83 172 -177 263 -177c50 0 96 20 112 55c3 8 11 13 19 13c14 0 21 -14 21 -22c0 -2 -1 -5 -2 -8c-25 -56 -91 -81 -151 -81c-106 0 -205 103 -292 190c-26 25 -51 51 -76 73c-3 -4 -6 -8 -9 -11c-35 -41 -88 -67 -141 -67c-69 5 -104 37 -104 96c4 70 52 110 110 110
c43 0 90 -26 136 -65c15 25 28 53 40 82c19 49 34 93 72 216c17 56 37 120 58 177c-20 -4 -41 -7 -61 -10c-134 -21 -281 -44 -296 -152c-1 -4 -1 -8 -1 -12c-1 -22 5 -43 17 -59s29 -27 52 -30l10 -1c12 0 21 -10 20 -22c0 -11 -10 -20 -22 -20c-5 0 -10 0 -14 1
c-35 5 -62 22 -80 47c-18 23 -26 54 -25 86c0 5 0 11 1 16c19 139 181 164 331 187zM485 670c42 9 78 38 78 54c0 8 -6 14 -14 14c-22 0 -48 -34 -64 -68zM213 89c3 4 6 8 10 12c-42 34 -80 58 -114 58c-35 0 -65 -26 -67 -68c0 -39 28 -54 62 -54c40 0 82 21 109 52z" />
    <glyph glyph-name="Lcaron" unicode="&#x13d;" horiz-adv-x="508" 
d="M433 655c22 58 65 123 116 123c35 0 59 -22 59 -54c0 -47 -72 -85 -143 -104c-24 -60 -47 -134 -66 -199c-33 -105 -55 -172 -74 -219c-14 -34 -29 -65 -47 -93l82 -79c83 -83 172 -177 263 -177c50 0 96 20 112 55c3 8 11 13 19 13c14 0 21 -14 21 -22c0 -2 -1 -5 -2 -8
c-25 -56 -91 -81 -151 -81c-106 0 -205 103 -292 190c-26 25 -51 51 -76 73c-3 -4 -6 -8 -9 -11c-35 -41 -88 -67 -141 -67c-69 5 -104 37 -104 96c4 70 52 110 110 110c43 0 90 -26 136 -65c15 25 28 53 40 82c19 49 34 93 72 216c17 56 37 120 58 177
c-20 -4 -41 -7 -61 -10c-134 -21 -281 -44 -296 -152c-1 -4 -1 -8 -1 -12c-1 -22 5 -43 17 -59s29 -27 52 -30l10 -1c12 0 21 -10 20 -22c0 -11 -10 -20 -22 -20c-5 0 -10 0 -14 1c-35 5 -62 22 -80 47c-18 23 -26 54 -25 86c0 5 0 11 1 16c19 139 181 164 331 187zM739 731
c-1 -5 -2 -10 -5 -14l-36 -57c-5 -9 -12 -11 -20 -7c-8 3 -10 12 -5 20l17 31c-14 6 -21 19 -20 34c2 19 18 33 37 31s34 -19 32 -38zM485 670c42 9 78 38 78 54c0 8 -6 14 -14 14c-22 0 -48 -34 -64 -68zM213 89c3 4 6 8 10 12c-42 34 -80 58 -114 58
c-35 0 -65 -26 -67 -68c0 -39 28 -54 62 -54c40 0 82 21 109 52z" />
    <glyph glyph-name="Lcommaaccent" unicode="&#x13b;" horiz-adv-x="508" 
d="M433 655c22 58 65 123 116 123c35 0 59 -22 59 -54c0 -47 -72 -85 -143 -104c-24 -60 -47 -134 -66 -199c-33 -105 -55 -172 -74 -219c-14 -34 -29 -65 -47 -93l82 -79c83 -83 172 -177 263 -177c50 0 96 20 112 55c3 8 11 13 19 13c14 0 21 -14 21 -22c0 -2 -1 -5 -2 -8
c-25 -56 -91 -81 -151 -81c-106 0 -205 103 -292 190c-26 25 -51 51 -76 73c-3 -4 -6 -8 -9 -11c-35 -41 -88 -67 -141 -67c-69 5 -104 37 -104 96c4 70 52 110 110 110c43 0 90 -26 136 -65c15 25 28 53 40 82c19 49 34 93 72 216c17 56 37 120 58 177
c-20 -4 -41 -7 -61 -10c-134 -21 -281 -44 -296 -152c-1 -4 -1 -8 -1 -12c-1 -22 5 -43 17 -59s29 -27 52 -30l10 -1c12 0 21 -10 20 -22c0 -11 -10 -20 -22 -20c-5 0 -10 0 -14 1c-35 5 -62 22 -80 47c-18 23 -26 54 -25 86c0 5 0 11 1 16c19 139 181 164 331 187zM485 670
c42 9 78 38 78 54c0 8 -6 14 -14 14c-22 0 -48 -34 -64 -68zM213 89c3 4 6 8 10 12c-42 34 -80 58 -114 58c-35 0 -65 -26 -67 -68c0 -39 28 -54 62 -54c40 0 82 21 109 52zM277 -81c-1 -5 -2 -10 -5 -14l-36 -57c-5 -9 -12 -11 -20 -7c-8 3 -10 12 -5 20l17 31
c-14 6 -21 19 -20 34c2 19 18 33 37 31s34 -19 32 -38z" />
    <glyph glyph-name="Lslash" unicode="&#x141;" horiz-adv-x="508" 
d="M754 -79c14 0 21 -14 21 -22c0 -2 -1 -5 -2 -8c-25 -56 -91 -81 -151 -81c-106 0 -205 103 -292 190c-26 25 -51 51 -76 73c-3 -4 -6 -8 -9 -11c-35 -41 -88 -67 -141 -67c-69 5 -104 37 -104 96c4 70 52 110 110 110c43 0 90 -26 136 -65c15 25 28 53 40 82
c10 27 20 52 32 90l-50 -29c-12 -6 -24 -2 -29 8c-5 11 -3 22 8 29l90 52c7 19 13 41 21 66c17 56 37 120 58 177c-20 -4 -41 -7 -61 -10c-134 -21 -281 -44 -296 -152c-1 -4 -1 -8 -1 -12c-1 -22 5 -43 17 -59s29 -27 52 -30l10 -1c12 0 21 -10 20 -22
c0 -11 -10 -20 -22 -20c-5 0 -10 0 -14 1c-35 5 -62 22 -80 47c-18 23 -26 54 -25 86c0 5 0 11 1 16c19 139 181 164 331 187l85 13c22 58 65 123 116 123c35 0 59 -22 59 -54c0 -47 -72 -85 -143 -104c-24 -60 -47 -134 -66 -199c-2 -7 -5 -14 -7 -21l79 45
c11 6 23 3 29 -7s4 -22 -7 -29l-120 -69c-19 -61 -34 -104 -48 -138s-29 -65 -47 -93l82 -79c83 -83 172 -177 263 -177c50 0 96 20 112 55c3 8 11 13 19 13zM549 738c-22 0 -48 -34 -64 -68c42 9 78 38 78 54c0 8 -6 14 -14 14zM213 89c3 4 6 8 10 12
c-42 34 -80 58 -114 58c-35 0 -65 -26 -67 -68c0 -39 28 -54 62 -54c40 0 82 21 109 52z" />
    <glyph glyph-name="M" unicode="M" horiz-adv-x="1062" 
d="M1102 607c2 -72 -31 -154 -73 -270c-43 -117 -134 -366 -134 -428c0 -45 31 -70 70 -70c11 0 20 -8 20 -19s-9 -20 -20 -20c-69 0 -110 46 -110 109c0 72 94 323 137 442c41 113 71 187 71 256c0 66 -31 93 -90 93c-73 0 -150 -86 -198 -161c-66 -220 -78 -258 -169 -519
c-3 -9 -11 -14 -20 -14c-16 0 -24 15 -20 28c57 160 116 339 162 494c10 34 15 63 15 87c0 51 -18 92 -63 92c-83 0 -190 -152 -266 -262l-75 -230c-53 -164 -80 -218 -146 -218c-37 0 -53 28 -53 63c1 56 54 143 142 258c6 8 92 142 94 146l78 238
c-83 -60 -186 -141 -303 -141c-93 0 -160 62 -150 159c1 10 11 18 21 18c13 0 21 -11 21 -23c0 -75 42 -112 108 -112c92 0 197 75 281 136l50 35c4 3 8 4 12 4c19 0 23 -18 20 -28l-56 -172c81 103 141 171 224 171c65 0 103 -58 103 -128c54 66 118 118 188 118
c85 0 129 -45 129 -132zM299 228l25 77c-2 -4 -2 -4 -7 -11c-91 -136 -134 -178 -135 -238c0 -10 4 -16 11 -16c41 0 62 51 106 188z" />
    <glyph glyph-name="N" unicode="N" horiz-adv-x="767" 
d="M1 720c1 13 10 19 19 19c10 0 20 -7 20 -20c0 -79 38 -116 117 -116c89 0 206 87 275 136c18 14 35 26 50 36c3 2 7 3 11 3c6 0 12 -2 16 -8s5 -12 3 -18l-58 -177c73 94 139 164 228 164c91 0 122 -50 122 -126c1 -63 -19 -135 -72 -292c-44 -131 -125 -345 -126 -391
c0 -61 21 -89 68 -91c11 0 20 -9 20 -19c0 -11 -9 -20 -20 -20c-72 0 -108 49 -108 130c1 53 63 211 128 404c52 155 71 225 71 279c-1 52 -22 86 -83 86c-97 0 -191 -134 -270 -252c-115 -352 -130 -447 -221 -447c-35 0 -51 24 -51 61c0 73 104 206 133 248l103 156
l79 242c-83 -59 -199 -143 -298 -143c-96 0 -165 62 -156 156zM327 315c-5 -8 -10 -14 -22 -30c-29 -39 -124 -166 -126 -225c0 -13 4 -20 13 -20c46 0 64 47 135 275z" />
    <glyph glyph-name="Nacute" unicode="&#x143;" horiz-adv-x="767" 
d="M690 841l135 93c10 7 24 3 30 -7s4 -24 -7 -31l-138 -91c-11 -6 -22 -2 -28 7c-4 10 -2 22 8 29zM1 720c1 13 10 19 19 19c10 0 20 -7 20 -20c0 -79 38 -116 117 -116c89 0 206 87 275 136c18 14 35 26 50 36c3 2 7 3 11 3c6 0 12 -2 16 -8s5 -12 3 -18l-58 -177
c73 94 139 164 228 164c91 0 122 -50 122 -126c1 -63 -19 -135 -72 -292c-44 -131 -125 -345 -126 -391c0 -61 21 -89 68 -91c11 0 20 -9 20 -19c0 -11 -9 -20 -20 -20c-72 0 -108 49 -108 130c1 53 63 211 128 404c52 155 71 225 71 279c-1 52 -22 86 -83 86
c-97 0 -191 -134 -270 -252c-115 -352 -130 -447 -221 -447c-35 0 -51 24 -51 61c0 73 104 206 133 248l103 156l79 242c-83 -59 -199 -143 -298 -143c-96 0 -165 62 -156 156zM327 315c-5 -8 -10 -14 -22 -30c-29 -39 -124 -166 -126 -225c0 -13 4 -20 13 -20
c46 0 64 47 135 275z" />
    <glyph glyph-name="Ncaron" unicode="&#x147;" horiz-adv-x="767" 
d="M669 905c-5 11 0 20 8 25s21 1 26 -9l32 -67l100 74c10 8 20 5 26 -2c6 -9 6 -20 -3 -28l-115 -92c-14 -12 -32 -6 -36 5zM1 720c1 13 10 19 19 19c10 0 20 -7 20 -20c0 -79 38 -116 117 -116c89 0 206 87 275 136c18 14 35 26 50 36c3 2 7 3 11 3c6 0 12 -2 16 -8
s5 -12 3 -18l-58 -177c73 94 139 164 228 164c91 0 122 -50 122 -126c1 -63 -19 -135 -72 -292c-44 -131 -125 -345 -126 -391c0 -61 21 -89 68 -91c11 0 20 -9 20 -19c0 -11 -9 -20 -20 -20c-72 0 -108 49 -108 130c1 53 63 211 128 404c52 155 71 225 71 279
c-1 52 -22 86 -83 86c-97 0 -191 -134 -270 -252c-115 -352 -130 -447 -221 -447c-35 0 -51 24 -51 61c0 73 104 206 133 248l103 156l79 242c-83 -59 -199 -143 -298 -143c-96 0 -165 62 -156 156zM327 315c-5 -8 -10 -14 -22 -30c-29 -39 -124 -166 -126 -225
c0 -13 4 -20 13 -20c46 0 64 47 135 275z" />
    <glyph glyph-name="Ncommaaccent" unicode="&#x145;" horiz-adv-x="767" 
d="M1 720c1 13 10 19 19 19c10 0 20 -7 20 -20c0 -79 38 -116 117 -116c89 0 206 87 275 136c18 14 35 26 50 36c3 2 7 3 11 3c6 0 12 -2 16 -8s5 -12 3 -18l-58 -177c73 94 139 164 228 164c91 0 122 -50 122 -126c1 -63 -19 -135 -72 -292c-44 -131 -125 -345 -126 -391
c0 -61 21 -89 68 -91c11 0 20 -9 20 -19c0 -11 -9 -20 -20 -20c-72 0 -108 49 -108 130c1 53 63 211 128 404c52 155 71 225 71 279c-1 52 -22 86 -83 86c-97 0 -191 -134 -270 -252c-115 -352 -130 -447 -221 -447c-35 0 -51 24 -51 61c0 73 104 206 133 248l103 156
l79 242c-83 -59 -199 -143 -298 -143c-96 0 -165 62 -156 156zM327 315c-5 -8 -10 -14 -22 -30c-29 -39 -124 -166 -126 -225c0 -13 4 -20 13 -20c46 0 64 47 135 275zM414 -113c-1 -5 -2 -10 -5 -14l-36 -57c-5 -9 -12 -11 -20 -7c-8 3 -10 12 -5 20l17 31
c-14 6 -21 19 -20 34c2 19 18 33 37 31s34 -19 32 -38z" />
    <glyph glyph-name="Eng" unicode="&#x14a;" horiz-adv-x="832" 
d="M877 237c8 -4 13 -11 13 -19c0 -3 -1 -6 -2 -9c-62 -146 -145 -239 -291 -282c-48 -137 -110 -208 -182 -209c-60 -1 -99 38 -99 97c0 63 49 109 169 131c25 4 52 9 79 16l25 72c106 302 176 485 176 580c-1 52 -22 86 -83 86c-97 0 -191 -135 -270 -253
c-115 -352 -130 -447 -213 -447c-39 0 -59 21 -59 61c0 73 104 206 133 248l103 156l79 242c-83 -59 -199 -143 -298 -143c-96 0 -165 62 -156 156c1 13 10 19 19 19c10 0 20 -7 20 -20c0 -79 38 -116 117 -116c89 0 206 87 275 136c18 14 35 26 50 36c3 2 7 3 11 3
c6 0 12 -2 16 -8s5 -12 3 -18l-58 -177c73 94 139 165 228 165c91 0 122 -50 122 -126c2 -101 -111 -415 -175 -593l-15 -44c115 39 185 131 235 249c4 8 11 13 19 13c3 0 6 -1 9 -2zM327 315c-5 -8 -10 -14 -22 -30c-29 -39 -124 -166 -126 -225c0 -13 7 -20 21 -20
c38 0 56 47 127 275zM415 -240c54 1 100 54 133 155c-19 -4 -37 -8 -55 -11c-92 -16 -131 -42 -135 -88c0 -35 23 -57 57 -56z" />
    <glyph glyph-name="Ntilde" unicode="&#xd1;" horiz-adv-x="767" 
d="M866 881c0 -5 -2 -10 -4 -13c-15 -23 -46 -41 -73 -41c-23 0 -46 11 -62 30c-9 11 -19 16 -30 16c-14 0 -28 -8 -36 -19c-6 -8 -14 -14 -20 -14c-13 0 -21 8 -21 21c0 3 2 9 6 15c14 23 44 39 71 39c23 0 46 -11 62 -30c9 -11 19 -16 30 -16c14 0 30 10 37 22
c4 7 11 11 19 11c12 0 21 -9 21 -21zM1 720c1 13 10 19 19 19c10 0 20 -7 20 -20c0 -79 38 -116 117 -116c89 0 206 87 275 136c18 14 35 26 50 36c3 2 7 3 11 3c6 0 12 -2 16 -8s5 -12 3 -18l-58 -177c73 94 139 164 228 164c91 0 122 -50 122 -126
c1 -63 -19 -135 -72 -292c-44 -131 -125 -345 -126 -391c0 -61 21 -89 68 -91c11 0 20 -9 20 -19c0 -11 -9 -20 -20 -20c-72 0 -108 49 -108 130c1 53 63 211 128 404c52 155 71 225 71 279c-1 52 -22 86 -83 86c-97 0 -191 -134 -270 -252c-115 -352 -130 -447 -221 -447
c-35 0 -51 24 -51 61c0 73 104 206 133 248l103 156l79 242c-83 -59 -199 -143 -298 -143c-96 0 -165 62 -156 156zM327 315c-5 -8 -10 -14 -22 -30c-29 -39 -124 -166 -126 -225c0 -13 4 -20 13 -20c46 0 64 47 135 275z" />
    <glyph glyph-name="O" unicode="O" horiz-adv-x="735" 
d="M791 208c-41 -98 -90 -146 -152 -146c-31 0 -54 7 -75 28c-62 -78 -128 -129 -218 -129c-115 0 -165 85 -165 207c0 86 25 202 61 284c-20 -3 -38 -4 -58 -4c-110 0 -184 53 -184 144c0 51 21 85 55 119c4 4 9 6 14 6c6 0 11 -2 16 -7c4 -4 6 -9 6 -14
c0 -6 -2 -11 -6 -15c-29 -29 -43 -52 -43 -89c0 -67 62 -102 142 -102c27 0 53 3 80 8c53 104 130 196 224 196c29 0 49 -14 49 -43c0 -84 -142 -166 -244 -190c-45 -92 -70 -202 -70 -293c0 -98 32 -165 123 -165c78 0 147 57 193 125c-10 27 -11 67 -1 94c3 9 11 16 21 16
c14 0 23 -14 20 -27c-3 -10 -4 -20 -5 -29c64 111 112 256 112 375c0 88 -27 157 -106 157c-16 0 -32 -2 -54 -7c-16 -4 -27 7 -27 18s7 20 17 23c22 6 42 8 60 8c111 0 152 -86 152 -200c0 -136 -61 -314 -140 -431c13 -16 32 -21 48 -21c50 0 83 45 116 121
c3 8 11 13 19 13c13 0 26 -15 20 -30zM320 513c75 28 174 83 174 126c0 8 -5 13 -13 13c-61 0 -117 -68 -161 -139z" />
    <glyph glyph-name="Oacute" unicode="&#xd3;" horiz-adv-x="735" 
d="M567 841l135 93c10 7 24 3 30 -7s4 -24 -7 -31l-138 -91c-11 -6 -22 -2 -28 7c-4 10 -2 22 8 29zM791 208c-41 -98 -90 -146 -152 -146c-31 0 -54 7 -75 28c-62 -78 -128 -129 -218 -129c-115 0 -165 85 -165 207c0 86 25 202 61 284c-20 -3 -38 -4 -58 -4
c-110 0 -184 53 -184 144c0 51 21 85 55 119c4 4 9 6 14 6c6 0 11 -2 16 -7c4 -4 6 -9 6 -14c0 -6 -2 -11 -6 -15c-29 -29 -43 -52 -43 -89c0 -67 62 -102 142 -102c27 0 53 3 80 8c53 104 130 196 224 196c29 0 49 -14 49 -43c0 -84 -142 -166 -244 -190
c-45 -92 -70 -202 -70 -293c0 -98 32 -165 123 -165c78 0 147 57 193 125c-10 27 -11 67 -1 94c3 9 11 16 21 16c14 0 23 -14 20 -27c-3 -10 -4 -20 -5 -29c64 111 112 256 112 375c0 88 -27 157 -106 157c-16 0 -32 -2 -54 -7c-16 -4 -27 7 -27 18s7 20 17 23
c22 6 42 8 60 8c111 0 152 -86 152 -200c0 -136 -61 -314 -140 -431c13 -16 32 -21 48 -21c50 0 83 45 116 121c3 8 11 13 19 13c13 0 26 -15 20 -30zM320 513c75 28 174 83 174 126c0 8 -5 13 -13 13c-61 0 -117 -68 -161 -139z" />
    <glyph glyph-name="Ocircumflex" unicode="&#xd4;" horiz-adv-x="735" 
d="M717 818c6 -11 0 -22 -8 -25c-6 -2 -18 -1 -25 9l-50 75l-103 -73c-10 -7 -20 -5 -26 2c-6 9 -6 21 3 28l117 91c14 11 30 6 36 -5zM791 208c-41 -98 -90 -146 -152 -146c-31 0 -54 7 -75 28c-62 -78 -128 -129 -218 -129c-115 0 -165 85 -165 207c0 86 25 202 61 284
c-20 -3 -38 -4 -58 -4c-110 0 -184 53 -184 144c0 51 21 85 55 119c4 4 9 6 14 6c6 0 11 -2 16 -7c4 -4 6 -9 6 -14c0 -6 -2 -11 -6 -15c-29 -29 -43 -52 -43 -89c0 -67 62 -102 142 -102c27 0 53 3 80 8c53 104 130 196 224 196c29 0 49 -14 49 -43
c0 -84 -142 -166 -244 -190c-45 -92 -70 -202 -70 -293c0 -98 32 -165 123 -165c78 0 147 57 193 125c-10 27 -11 67 -1 94c3 9 11 16 21 16c14 0 23 -14 20 -27c-3 -10 -4 -20 -5 -29c64 111 112 256 112 375c0 88 -27 157 -106 157c-16 0 -32 -2 -54 -7
c-16 -4 -27 7 -27 18s7 20 17 23c22 6 42 8 60 8c111 0 152 -86 152 -200c0 -136 -61 -314 -140 -431c13 -16 32 -21 48 -21c50 0 83 45 116 121c3 8 11 13 19 13c13 0 26 -15 20 -30zM320 513c75 28 174 83 174 126c0 8 -5 13 -13 13c-61 0 -117 -68 -161 -139z" />
    <glyph glyph-name="Odieresis" unicode="&#xd6;" horiz-adv-x="735" 
d="M551 869c19 0 35 -16 35 -35s-16 -34 -35 -34s-34 15 -34 34s15 35 34 35zM661 869c19 0 35 -16 35 -35s-16 -34 -35 -34s-34 15 -34 34s15 35 34 35zM791 208c-41 -98 -90 -146 -152 -146c-31 0 -54 7 -75 28c-62 -78 -128 -129 -218 -129c-115 0 -165 85 -165 207
c0 86 25 202 61 284c-20 -3 -38 -4 -58 -4c-110 0 -184 53 -184 144c0 51 21 85 55 119c4 4 9 6 14 6c6 0 11 -2 16 -7c4 -4 6 -9 6 -14c0 -6 -2 -11 -6 -15c-29 -29 -43 -52 -43 -89c0 -67 62 -102 142 -102c27 0 53 3 80 8c53 104 130 196 224 196c29 0 49 -14 49 -43
c0 -84 -142 -166 -244 -190c-45 -92 -70 -202 -70 -293c0 -98 32 -165 123 -165c78 0 147 57 193 125c-10 27 -11 67 -1 94c3 9 11 16 21 16c14 0 23 -14 20 -27c-3 -10 -4 -20 -5 -29c64 111 112 256 112 375c0 88 -27 157 -106 157c-16 0 -32 -2 -54 -7
c-16 -4 -27 7 -27 18s7 20 17 23c22 6 42 8 60 8c111 0 152 -86 152 -200c0 -136 -61 -314 -140 -431c13 -16 32 -21 48 -21c50 0 83 45 116 121c3 8 11 13 19 13c13 0 26 -15 20 -30zM320 513c75 28 174 83 174 126c0 8 -5 13 -13 13c-61 0 -117 -68 -161 -139z" />
    <glyph glyph-name="Ograve" unicode="&#xd2;" horiz-adv-x="735" 
d="M668 834c9 -8 9 -19 3 -28c-6 -7 -17 -10 -26 -2l-110 97c-10 9 -10 22 -3 32c8 8 21 11 31 2zM791 208c-41 -98 -90 -146 -152 -146c-31 0 -54 7 -75 28c-62 -78 -128 -129 -218 -129c-115 0 -165 85 -165 207c0 86 25 202 61 284c-20 -3 -38 -4 -58 -4
c-110 0 -184 53 -184 144c0 51 21 85 55 119c4 4 9 6 14 6c6 0 11 -2 16 -7c4 -4 6 -9 6 -14c0 -6 -2 -11 -6 -15c-29 -29 -43 -52 -43 -89c0 -67 62 -102 142 -102c27 0 53 3 80 8c53 104 130 196 224 196c29 0 49 -14 49 -43c0 -84 -142 -166 -244 -190
c-45 -92 -70 -202 -70 -293c0 -98 32 -165 123 -165c78 0 147 57 193 125c-10 27 -11 67 -1 94c3 9 11 16 21 16c14 0 23 -14 20 -27c-3 -10 -4 -20 -5 -29c64 111 112 256 112 375c0 88 -27 157 -106 157c-16 0 -32 -2 -54 -7c-16 -4 -27 7 -27 18s7 20 17 23
c22 6 42 8 60 8c111 0 152 -86 152 -200c0 -136 -61 -314 -140 -431c13 -16 32 -21 48 -21c50 0 83 45 116 121c3 8 11 13 19 13c13 0 26 -15 20 -30zM320 513c75 28 174 83 174 126c0 8 -5 13 -13 13c-61 0 -117 -68 -161 -139z" />
    <glyph glyph-name="Ohungarumlaut" unicode="&#x150;" horiz-adv-x="735" 
d="M534 834l98 93c10 9 23 6 31 -2c7 -10 7 -23 -3 -32l-103 -89c-9 -8 -20 -5 -26 2c-6 9 -6 20 3 28zM644 834l98 93c10 9 23 6 31 -2c7 -10 7 -23 -3 -32l-103 -89c-9 -8 -20 -5 -26 2c-6 9 -6 20 3 28zM791 208c-41 -98 -90 -146 -152 -146c-31 0 -54 7 -75 28
c-62 -78 -128 -129 -218 -129c-115 0 -165 85 -165 207c0 86 25 202 61 284c-20 -3 -38 -4 -58 -4c-110 0 -184 53 -184 144c0 51 21 85 55 119c4 4 9 6 14 6c6 0 11 -2 16 -7c4 -4 6 -9 6 -14c0 -6 -2 -11 -6 -15c-29 -29 -43 -52 -43 -89c0 -67 62 -102 142 -102
c27 0 53 3 80 8c53 104 130 196 224 196c29 0 49 -14 49 -43c0 -84 -142 -166 -244 -190c-45 -92 -70 -202 -70 -293c0 -98 32 -165 123 -165c78 0 147 57 193 125c-10 27 -11 67 -1 94c3 9 11 16 21 16c14 0 23 -14 20 -27c-3 -10 -4 -20 -5 -29c64 111 112 256 112 375
c0 88 -27 157 -106 157c-16 0 -32 -2 -54 -7c-16 -4 -27 7 -27 18s7 20 17 23c22 6 42 8 60 8c111 0 152 -86 152 -200c0 -136 -61 -314 -140 -431c13 -16 32 -21 48 -21c50 0 83 45 116 121c3 8 11 13 19 13c13 0 26 -15 20 -30zM320 513c75 28 174 83 174 126
c0 8 -5 13 -13 13c-61 0 -117 -68 -161 -139z" />
    <glyph glyph-name="Omacron" unicode="&#x14c;" horiz-adv-x="735" 
d="M702 855c13 0 21 -9 22 -21c0 -11 -8 -21 -21 -21h-195c-13 0 -21 10 -21 21c1 12 9 21 22 21h193zM791 208c-41 -98 -90 -146 -152 -146c-31 0 -54 7 -75 28c-62 -78 -128 -129 -218 -129c-115 0 -165 85 -165 207c0 86 25 202 61 284c-20 -3 -38 -4 -58 -4
c-110 0 -184 53 -184 144c0 51 21 85 55 119c4 4 9 6 14 6c6 0 11 -2 16 -7c4 -4 6 -9 6 -14c0 -6 -2 -11 -6 -15c-29 -29 -43 -52 -43 -89c0 -67 62 -102 142 -102c27 0 53 3 80 8c53 104 130 196 224 196c29 0 49 -14 49 -43c0 -84 -142 -166 -244 -190
c-45 -92 -70 -202 -70 -293c0 -98 32 -165 123 -165c78 0 147 57 193 125c-10 27 -11 67 -1 94c3 9 11 16 21 16c14 0 23 -14 20 -27c-3 -10 -4 -20 -5 -29c64 111 112 256 112 375c0 88 -27 157 -106 157c-16 0 -32 -2 -54 -7c-16 -4 -27 7 -27 18s7 20 17 23
c22 6 42 8 60 8c111 0 152 -86 152 -200c0 -136 -61 -314 -140 -431c13 -16 32 -21 48 -21c50 0 83 45 116 121c3 8 11 13 19 13c13 0 26 -15 20 -30zM320 513c75 28 174 83 174 126c0 8 -5 13 -13 13c-61 0 -117 -68 -161 -139z" />
    <glyph glyph-name="Oslash" unicode="&#xd8;" horiz-adv-x="735" 
d="M771 238c13 0 26 -15 20 -30c-41 -98 -90 -146 -152 -146c-31 0 -54 7 -75 28c-62 -78 -128 -129 -218 -129c-18 0 -35 2 -50 6c-9 -19 -17 -38 -24 -57c-11 -28 -48 -10 -37 17l23 57c-53 33 -77 99 -77 184c0 86 25 202 61 284c-20 -3 -38 -4 -58 -4
c-110 0 -184 53 -184 144c0 51 21 85 55 119c4 4 9 6 14 6c6 0 11 -2 16 -7c4 -4 6 -9 6 -14c0 -6 -2 -11 -6 -15c-29 -29 -43 -52 -43 -89c0 -67 62 -102 142 -102c27 0 53 3 80 8c53 104 130 196 224 196c29 0 49 -14 49 -43c0 -84 -142 -166 -244 -190
c-45 -92 -70 -202 -70 -293c0 -66 15 -118 52 -145c91 206 235 476 359 676c-15 10 -32 15 -54 15c-16 0 -32 -2 -54 -7c-16 -4 -27 7 -27 18s7 20 17 23c22 6 42 8 60 8c33 0 59 -7 80 -21l38 58c18 27 50 3 32 -24c-13 -19 -26 -40 -39 -61c29 -36 41 -90 41 -152
c0 -136 -61 -314 -140 -431c13 -16 32 -21 48 -21c50 0 83 45 116 121c3 8 11 13 19 13zM559 238c14 0 23 -14 20 -27c-3 -10 -4 -20 -5 -29c64 111 112 256 112 375c0 44 -7 84 -24 112c-122 -196 -257 -450 -350 -662c11 -3 22 -4 34 -4c78 0 147 57 193 125
c-10 27 -11 67 -1 94c3 9 11 16 21 16zM481 652c-61 0 -117 -68 -161 -139c75 28 174 83 174 126c0 8 -5 13 -13 13z" />
    <glyph glyph-name="Otilde" unicode="&#xd5;" horiz-adv-x="735" 
d="M743 881c0 -5 -2 -10 -4 -13c-15 -23 -46 -41 -73 -41c-23 0 -46 11 -62 30c-9 11 -19 16 -30 16c-14 0 -28 -8 -36 -19c-6 -8 -14 -14 -20 -14c-13 0 -21 8 -21 21c0 3 2 9 6 15c14 23 44 39 71 39c23 0 46 -11 62 -30c9 -11 19 -16 30 -16c14 0 30 10 37 22
c4 7 11 11 19 11c12 0 21 -9 21 -21zM791 208c-41 -98 -90 -146 -152 -146c-31 0 -54 7 -75 28c-62 -78 -128 -129 -218 -129c-115 0 -165 85 -165 207c0 86 25 202 61 284c-20 -3 -38 -4 -58 -4c-110 0 -184 53 -184 144c0 51 21 85 55 119c4 4 9 6 14 6c6 0 11 -2 16 -7
c4 -4 6 -9 6 -14c0 -6 -2 -11 -6 -15c-29 -29 -43 -52 -43 -89c0 -67 62 -102 142 -102c27 0 53 3 80 8c53 104 130 196 224 196c29 0 49 -14 49 -43c0 -84 -142 -166 -244 -190c-45 -92 -70 -202 -70 -293c0 -98 32 -165 123 -165c78 0 147 57 193 125c-10 27 -11 67 -1 94
c3 9 11 16 21 16c14 0 23 -14 20 -27c-3 -10 -4 -20 -5 -29c64 111 112 256 112 375c0 88 -27 157 -106 157c-16 0 -32 -2 -54 -7c-16 -4 -27 7 -27 18s7 20 17 23c22 6 42 8 60 8c111 0 152 -86 152 -200c0 -136 -61 -314 -140 -431c13 -16 32 -21 48 -21
c50 0 83 45 116 121c3 8 11 13 19 13c13 0 26 -15 20 -30zM320 513c75 28 174 83 174 126c0 8 -5 13 -13 13c-61 0 -117 -68 -161 -139z" />
    <glyph glyph-name="OE" unicode="&#x152;" horiz-adv-x="1047" 
d="M1092 239c8 -4 13 -12 13 -20c0 -3 -1 -5 -2 -8c-71 -174 -170 -271 -324 -271c-117 0 -201 70 -208 183c-62 -95 -142 -162 -225 -162c-115 0 -165 85 -165 207c0 86 25 202 61 284c-20 -3 -38 -4 -58 -4c-110 0 -184 53 -184 144c0 51 21 85 55 119c4 4 9 6 14 6
c6 0 11 -2 16 -7c4 -4 6 -9 6 -14c0 -6 -2 -11 -6 -15c-29 -29 -43 -52 -43 -89c0 -67 62 -102 142 -102c27 0 53 3 80 8c53 104 130 196 224 196c29 0 49 -14 49 -43c0 -84 -142 -166 -244 -190c-45 -92 -70 -202 -70 -293c0 -98 32 -165 123 -165c166 0 320 343 320 554
c0 103 -29 157 -86 157c-16 0 -32 -2 -54 -7c-16 -4 -27 7 -27 18s7 20 17 23c22 6 42 8 60 8c87 0 132 -69 132 -200c0 -60 -11 -128 -30 -195c23 18 48 32 76 44c-25 27 -43 63 -43 99c0 128 111 237 245 237c63 0 109 -30 109 -80c-1 -26 -13 -53 -34 -79
c-10 -11 -25 -12 -33 -3s-7 22 2 32c13 16 21 33 23 50c0 26 -33 38 -67 38c-113 0 -202 -92 -202 -194c0 -31 19 -62 44 -84c23 6 69 14 87 14c30 0 61 -16 61 -44c0 -33 -25 -51 -59 -51c-32 0 -64 12 -97 34c-108 -39 -177 -132 -177 -236c0 -101 72 -156 166 -156
c136 0 220 87 285 245c4 11 17 16 28 12zM481 652c-61 0 -117 -68 -161 -139c75 28 174 83 174 126c0 8 -5 13 -13 13zM879 393c-5 0 -18 -1 -36 -4c15 -6 30 -8 44 -7c7 1 10 3 9 5c0 3 -6 6 -17 6z" />
    <glyph glyph-name="P" unicode="P" horiz-adv-x="731" 
d="M778 558c0 -142 -95 -274 -236 -274c-31 0 -62 7 -93 19c-9 3 -14 11 -14 20c0 13 10 20 20 20c3 0 5 0 8 -1c28 -10 56 -16 82 -16c115 0 191 120 191 232c0 109 -84 164 -201 164c-172 0 -269 -150 -269 -334c0 -11 -9 -21 -21 -21s-21 10 -21 21
c0 213 115 377 321 377c136 0 233 -84 233 -207zM519 608c-27 -53 -52 -136 -77 -224c-57 -194 -122 -445 -298 -445c-82 0 -144 56 -144 137c0 88 67 164 146 164c21 0 42 -5 42 -24c0 -14 -14 -24 -27 -20c-5 2 -11 2 -17 2c-55 0 -102 -62 -102 -120
c0 -61 47 -97 103 -97c134 0 192 196 256 414c27 91 52 176 81 232c19 39 63 76 94 76c10 0 21 -7 22 -17c2 -16 -9 -23 -18 -25c-26 -3 -49 -32 -61 -53z" />
    <glyph glyph-name="Thorn" unicode="&#xde;" horiz-adv-x="731" 
d="M494 544c136 0 233 -84 233 -207c0 -142 -95 -274 -236 -274c-31 0 -62 7 -93 19c-9 3 -14 11 -14 20c0 13 10 20 20 20c3 0 5 0 8 -1c28 -10 56 -16 82 -16c115 0 191 120 191 232c0 109 -84 164 -201 164h-7c-12 -36 -23 -76 -35 -117c-57 -194 -122 -445 -298 -445
c-82 0 -144 56 -144 137c0 88 67 164 146 164c21 0 42 -5 42 -24c0 -14 -14 -24 -27 -20c-5 2 -11 2 -17 2c-55 0 -102 -62 -102 -120c0 -61 47 -97 103 -97c134 0 192 196 256 414c10 35 20 69 31 101c-57 -11 -104 -40 -139 -82c-9 -11 -22 -14 -31 -7s-11 21 -3 32
c46 55 109 92 187 102c19 51 36 94 57 117c-213 -16 -350 -102 -350 -225c0 -59 32 -99 79 -99c11 0 21 -10 20 -22c0 -11 -10 -20 -21 -20c-74 0 -123 57 -121 142c4 161 190 268 466 269c12 0 21 -8 22 -17c2 -16 -9 -23 -18 -25c-45 -9 -68 -63 -88 -117h2z" />
    <glyph glyph-name="Q" unicode="Q" horiz-adv-x="707" 
d="M958 -120c0 -3 -1 -6 -2 -9c-24 -52 -88 -81 -151 -81c-103 0 -179 81 -249 156c-23 24 -45 47 -67 67c-42 -33 -90 -52 -143 -52c-116 0 -165 85 -165 207c0 86 25 202 61 284c-20 -3 -29 -4 -58 -4c-106 0 -184 52 -184 144c0 51 21 85 55 119c4 4 9 6 14 6
c6 0 11 -2 16 -7c4 -4 6 -9 6 -14c0 -6 -2 -11 -6 -15c-29 -29 -43 -52 -43 -89c0 -69 65 -102 142 -102c36 0 53 3 80 8c53 104 130 196 224 196c29 0 49 -14 49 -43c0 -85 -143 -166 -244 -190c-45 -92 -70 -202 -70 -293c0 -97 31 -165 123 -165c39 0 76 14 109 37
c-25 17 -50 27 -76 26c-16 0 -33 -10 -42 -17c-4 -4 -10 -6 -15 -6c-11 0 -21 10 -21 21c0 6 3 12 7 16c20 16 46 28 70 28c40 2 76 -14 110 -40l9 9c105 109 189 326 189 480c0 88 -27 157 -106 157c-20 0 -45 -8 -59 -8s-22 11 -22 18c0 28 37 32 77 32
c109 0 152 -84 152 -200c0 -167 -91 -395 -201 -509l-6 -6c22 -20 44 -43 65 -66c66 -69 134 -142 220 -142c44 0 95 20 112 55c4 8 11 13 19 13c11 0 21 -10 21 -21zM320 513c75 28 175 87 175 129c0 6 -6 10 -14 10c-61 0 -120 -74 -161 -139z" />
    <glyph glyph-name="R" unicode="R" horiz-adv-x="725" 
d="M759 532c-4 -108 -85 -192 -198 -223c52 -37 67 -104 67 -178c0 -64 -17 -185 -17 -210c2 -62 23 -88 68 -88c13 0 23 -7 23 -20s-10 -23 -23 -23c-74 0 -110 52 -110 131c0 46 17 139 17 209c0 85 -23 163 -125 164c-16 0 -24 11 -24 21c0 11 8 21 24 21
c136 5 251 80 256 196c3 106 -81 166 -193 164c-180 -3 -277 -145 -277 -333c0 -12 -9 -21 -21 -21c-11 0 -21 9 -21 21c0 214 119 376 319 376c142 0 240 -86 235 -207zM530 619c-43 -35 -73 -144 -101 -235c-55 -180 -117 -386 -283 -386c-82 0 -146 54 -146 136
c0 87 68 165 144 165c27 0 44 -6 44 -24c0 -14 -11 -25 -26 -21c-5 1 -11 2 -17 2c-55 0 -103 -62 -103 -122s48 -94 103 -94c140 0 197 203 244 356c32 108 59 206 113 256c18 16 40 26 54 26c12 0 23 -7 23 -18c0 -16 -9 -22 -18 -24c-10 -2 -21 -8 -31 -17z" />
    <glyph glyph-name="Racute" unicode="&#x154;" horiz-adv-x="725" 
d="M576 841l135 93c10 7 24 3 30 -7s4 -24 -7 -31l-138 -91c-11 -6 -22 -2 -28 7c-4 10 -2 22 8 29zM759 532c-4 -108 -85 -192 -198 -223c52 -37 67 -104 67 -178c0 -64 -17 -185 -17 -210c2 -62 23 -88 68 -88c13 0 23 -7 23 -20s-10 -23 -23 -23c-74 0 -110 52 -110 131
c0 46 17 139 17 209c0 85 -23 163 -125 164c-16 0 -24 11 -24 21c0 11 8 21 24 21c136 5 251 80 256 196c3 106 -81 166 -193 164c-180 -3 -277 -145 -277 -333c0 -12 -9 -21 -21 -21c-11 0 -21 9 -21 21c0 214 119 376 319 376c142 0 240 -86 235 -207zM530 619
c-43 -35 -73 -144 -101 -235c-55 -180 -117 -386 -283 -386c-82 0 -146 54 -146 136c0 87 68 165 144 165c27 0 44 -6 44 -24c0 -14 -11 -25 -26 -21c-5 1 -11 2 -17 2c-55 0 -103 -62 -103 -122s48 -94 103 -94c140 0 197 203 244 356c32 108 59 206 113 256
c18 16 40 26 54 26c12 0 23 -7 23 -18c0 -16 -9 -22 -18 -24c-10 -2 -21 -8 -31 -17z" />
    <glyph glyph-name="Rcaron" unicode="&#x158;" horiz-adv-x="725" 
d="M555 905c-5 11 0 20 8 25s21 1 26 -9l32 -67l100 74c10 8 20 5 26 -2c6 -9 6 -20 -3 -28l-115 -92c-14 -12 -32 -6 -36 5zM759 532c-4 -108 -85 -192 -198 -223c52 -37 67 -104 67 -178c0 -64 -17 -185 -17 -210c2 -62 23 -88 68 -88c13 0 23 -7 23 -20s-10 -23 -23 -23
c-74 0 -110 52 -110 131c0 46 17 139 17 209c0 85 -23 163 -125 164c-16 0 -24 11 -24 21c0 11 8 21 24 21c136 5 251 80 256 196c3 106 -81 166 -193 164c-180 -3 -277 -145 -277 -333c0 -12 -9 -21 -21 -21c-11 0 -21 9 -21 21c0 214 119 376 319 376
c142 0 240 -86 235 -207zM530 619c-43 -35 -73 -144 -101 -235c-55 -180 -117 -386 -283 -386c-82 0 -146 54 -146 136c0 87 68 165 144 165c27 0 44 -6 44 -24c0 -14 -11 -25 -26 -21c-5 1 -11 2 -17 2c-55 0 -103 -62 -103 -122s48 -94 103 -94c140 0 197 203 244 356
c32 108 59 206 113 256c18 16 40 26 54 26c12 0 23 -7 23 -18c0 -16 -9 -22 -18 -24c-10 -2 -21 -8 -31 -17z" />
    <glyph glyph-name="Rcommaaccent" unicode="&#x156;" horiz-adv-x="725" 
d="M759 532c-4 -108 -85 -192 -198 -223c52 -37 67 -104 67 -178c0 -64 -17 -185 -17 -210c2 -62 23 -88 68 -88c13 0 23 -7 23 -20s-10 -23 -23 -23c-74 0 -110 52 -110 131c0 46 17 139 17 209c0 85 -23 163 -125 164c-16 0 -24 11 -24 21c0 11 8 21 24 21
c136 5 251 80 256 196c3 106 -81 166 -193 164c-180 -3 -277 -145 -277 -333c0 -12 -9 -21 -21 -21c-11 0 -21 9 -21 21c0 214 119 376 319 376c142 0 240 -86 235 -207zM530 619c-43 -35 -73 -144 -101 -235c-55 -180 -117 -386 -283 -386c-82 0 -146 54 -146 136
c0 87 68 165 144 165c27 0 44 -6 44 -24c0 -14 -11 -25 -26 -21c-5 1 -11 2 -17 2c-55 0 -103 -62 -103 -122s48 -94 103 -94c140 0 197 203 244 356c32 108 59 206 113 256c18 16 40 26 54 26c12 0 23 -7 23 -18c0 -16 -9 -22 -18 -24c-10 -2 -21 -8 -31 -17zM408 -75
c-1 -5 -2 -10 -5 -14l-36 -57c-5 -9 -12 -11 -20 -7c-8 3 -10 12 -5 20l17 31c-14 6 -21 19 -20 34c2 19 18 33 37 31s34 -19 32 -38z" />
    <glyph glyph-name="S" unicode="S" horiz-adv-x="552" 
d="M508 674c-3 -59 -46 -108 -120 -131c10 -37 27 -75 45 -114c31 -68 63 -139 63 -216c0 -157 -117 -263 -268 -263c-133 0 -228 93 -228 215c0 119 94 218 202 218c83 0 140 -67 140 -144c0 -4 0 -10 -2 -18c-2 -7 -9 -15 -19 -15c-13 0 -23 10 -22 23
c6 58 -35 112 -97 112c-88 0 -160 -84 -160 -179c0 -100 82 -170 189 -170c132 0 223 96 223 221c0 69 -30 135 -59 199c-19 42 -37 83 -48 123c-15 -1 -31 -2 -49 -2c-132 0 -229 58 -286 175c-1 3 -2 6 -2 10c0 14 13 20 21 20s15 -4 19 -12c49 -102 132 -151 246 -151
c16 0 30 1 43 2c-1 9 -2 17 -2 26c0 70 41 145 109 145c42 0 64 -33 62 -74zM466 674c0 21 -8 32 -24 32c-41 0 -62 -57 -62 -102c0 -6 0 -13 1 -19c83 31 85 73 85 89z" />
    <glyph glyph-name="Sacute" unicode="&#x15a;" horiz-adv-x="552" 
d="M426 849l135 93c10 7 24 3 30 -7s4 -24 -7 -31l-138 -91c-11 -6 -22 -2 -28 7c-4 10 -2 22 8 29zM508 674c-3 -59 -46 -108 -120 -131c10 -37 27 -75 45 -114c31 -68 63 -139 63 -216c0 -157 -117 -263 -268 -263c-133 0 -228 93 -228 215c0 119 94 218 202 218
c83 0 140 -67 140 -144c0 -4 0 -10 -2 -18c-2 -7 -9 -15 -19 -15c-13 0 -23 10 -22 23c6 58 -35 112 -97 112c-88 0 -160 -84 -160 -179c0 -100 82 -170 189 -170c132 0 223 96 223 221c0 69 -30 135 -59 199c-19 42 -37 83 -48 123c-15 -1 -31 -2 -49 -2
c-132 0 -229 58 -286 175c-1 3 -2 6 -2 10c0 14 13 20 21 20s15 -4 19 -12c49 -102 132 -151 246 -151c16 0 30 1 43 2c-1 9 -2 17 -2 26c0 70 41 145 109 145c42 0 64 -33 62 -74zM466 674c0 21 -8 32 -24 32c-41 0 -62 -57 -62 -102c0 -6 0 -13 1 -19c83 31 85 73 85 89z
" />
    <glyph glyph-name="Scaron" unicode="&#x160;" horiz-adv-x="552" 
d="M405 913c-5 11 0 20 8 25s21 1 26 -9l32 -67l100 74c10 8 20 5 26 -2c6 -9 6 -20 -3 -28l-115 -92c-14 -12 -32 -6 -36 5zM508 674c-3 -59 -46 -108 -120 -131c10 -37 27 -75 45 -114c31 -68 63 -139 63 -216c0 -157 -117 -263 -268 -263c-133 0 -228 93 -228 215
c0 119 94 218 202 218c83 0 140 -67 140 -144c0 -4 0 -10 -2 -18c-2 -7 -9 -15 -19 -15c-13 0 -23 10 -22 23c6 58 -35 112 -97 112c-88 0 -160 -84 -160 -179c0 -100 82 -170 189 -170c132 0 223 96 223 221c0 69 -30 135 -59 199c-19 42 -37 83 -48 123
c-15 -1 -31 -2 -49 -2c-132 0 -229 58 -286 175c-1 3 -2 6 -2 10c0 14 13 20 21 20s15 -4 19 -12c49 -102 132 -151 246 -151c16 0 30 1 43 2c-1 9 -2 17 -2 26c0 70 41 145 109 145c42 0 64 -33 62 -74zM466 674c0 21 -8 32 -24 32c-41 0 -62 -57 -62 -102
c0 -6 0 -13 1 -19c83 31 85 73 85 89z" />
    <glyph glyph-name="Scedilla" unicode="&#x15e;" horiz-adv-x="552" 
d="M508 674c-3 -59 -46 -108 -120 -131c10 -37 27 -75 45 -114c31 -68 63 -139 63 -216c0 -157 -117 -263 -268 -263h-1l-23 -51c46 4 72 -23 66 -68c-7 -51 -43 -78 -104 -78c-26 0 -47 8 -65 22c-22 17 4 49 25 33c13 -9 29 -13 46 -13c34 0 53 12 56 36
c4 28 -10 38 -43 32c-17 -4 -30 7 -25 19l32 70c-114 15 -192 102 -192 213c0 119 94 218 202 218c83 0 140 -67 140 -144c0 -4 0 -10 -2 -18c-2 -7 -9 -15 -19 -15c-13 0 -23 10 -22 23c6 58 -35 112 -97 112c-88 0 -160 -84 -160 -179c0 -100 82 -170 189 -170
c132 0 223 96 223 221c0 69 -30 135 -59 199c-19 42 -37 83 -48 123c-15 -1 -31 -2 -49 -2c-132 0 -229 58 -286 175c-1 3 -2 6 -2 10c0 14 13 20 21 20s15 -4 19 -12c49 -102 132 -151 246 -151c16 0 30 1 43 2c-1 9 -2 17 -2 26c0 70 41 145 109 145c42 0 64 -33 62 -74z
M381 585c83 31 85 73 85 89c0 21 -8 32 -24 32c-41 0 -62 -57 -62 -102c0 -6 0 -13 1 -19z" />
    <glyph glyph-name="Scommaaccent" unicode="&#x218;" horiz-adv-x="552" 
d="M508 674c-3 -59 -46 -108 -120 -131c10 -37 27 -75 45 -114c31 -68 63 -139 63 -216c0 -157 -117 -263 -268 -263c-133 0 -228 93 -228 215c0 119 94 218 202 218c83 0 140 -67 140 -144c0 -4 0 -10 -2 -18c-2 -7 -9 -15 -19 -15c-13 0 -23 10 -22 23
c6 58 -35 112 -97 112c-88 0 -160 -84 -160 -179c0 -100 82 -170 189 -170c132 0 223 96 223 221c0 69 -30 135 -59 199c-19 42 -37 83 -48 123c-15 -1 -31 -2 -49 -2c-132 0 -229 58 -286 175c-1 3 -2 6 -2 10c0 14 13 20 21 20s15 -4 19 -12c49 -102 132 -151 246 -151
c16 0 30 1 43 2c-1 9 -2 17 -2 26c0 70 41 145 109 145c42 0 64 -33 62 -74zM466 674c0 21 -8 32 -24 32c-41 0 -62 -57 -62 -102c0 -6 0 -13 1 -19c83 31 85 73 85 89zM228 -134c-1 -5 -2 -10 -5 -14l-36 -57c-5 -9 -12 -11 -20 -7c-8 3 -10 12 -5 20l17 31
c-14 6 -21 19 -20 34c2 19 18 33 37 31s34 -19 32 -38z" />
    <glyph glyph-name="T" unicode="T" horiz-adv-x="619" 
d="M911 703c-2 -45 -49 -60 -119 -60c-49 0 -111 8 -174 20c-12 -12 -22 -25 -31 -39c-39 -67 -73 -176 -98 -255c-88 -291 -139 -433 -316 -430c-102 0 -173 77 -173 180c0 118 106 212 216 212c12 0 21 -9 21 -21s-9 -21 -21 -21c-88 0 -174 -79 -174 -170
c0 -85 58 -138 131 -138c170 -2 206 192 276 401c25 81 60 191 102 263c5 9 12 18 18 27c-88 19 -219 70 -332 70c-103 0 -164 -50 -164 -135c1 -70 47 -104 116 -104c30 0 62 8 91 21c3 1 6 2 10 2c14 0 20 -13 20 -21s-4 -15 -12 -19c-35 -16 -74 -25 -110 -25
c-93 0 -157 55 -157 146c0 112 77 178 208 178c107 0 252 -56 366 -77c50 42 124 64 185 64c58 0 121 -23 121 -69zM792 685c47 0 76 5 76 19c0 15 -50 26 -79 26c-39 0 -90 -13 -124 -32c48 -8 94 -13 127 -13z" />
    <glyph glyph-name="Tbar" unicode="&#x166;" horiz-adv-x="619" 
d="M790 772c58 0 121 -23 121 -69c-2 -45 -49 -60 -119 -60c-49 0 -111 8 -174 20c-12 -12 -22 -25 -31 -39c-37 -63 -69 -163 -93 -240h61c13 0 21 -9 22 -21c0 -11 -8 -21 -21 -21h-75c-83 -273 -137 -406 -308 -403c-102 0 -173 77 -173 180c0 118 106 212 216 212
c12 0 21 -9 21 -21s-9 -21 -21 -21c-88 0 -174 -79 -174 -170c0 -85 58 -138 131 -138c159 -2 201 168 263 361h-65c-13 0 -21 10 -21 21c1 12 9 21 22 21h78c25 81 59 190 101 261c5 9 12 18 18 27c-88 19 -219 70 -332 70c-103 0 -164 -50 -164 -135
c1 -70 47 -104 116 -104c30 0 62 8 91 21c3 1 6 2 10 2c14 0 20 -13 20 -21s-4 -15 -12 -19c-35 -16 -74 -25 -110 -25c-93 0 -157 55 -157 146c0 112 77 178 208 178c107 0 252 -56 366 -77c50 42 124 64 185 64zM792 685c47 0 76 5 76 19c0 15 -50 26 -79 26
c-39 0 -90 -13 -124 -32c48 -8 94 -13 127 -13z" />
    <glyph glyph-name="Tcaron" unicode="&#x164;" horiz-adv-x="619" 
d="M567 927c-5 11 0 20 8 25s21 1 26 -9l32 -67l100 74c10 8 20 5 26 -2c6 -9 6 -20 -3 -28l-115 -92c-14 -12 -32 -6 -36 5zM911 703c-2 -45 -49 -60 -119 -60c-49 0 -111 8 -174 20c-12 -12 -22 -25 -31 -39c-39 -67 -73 -176 -98 -255c-88 -291 -139 -433 -316 -430
c-102 0 -173 77 -173 180c0 118 106 212 216 212c12 0 21 -9 21 -21s-9 -21 -21 -21c-88 0 -174 -79 -174 -170c0 -85 58 -138 131 -138c170 -2 206 192 276 401c25 81 60 191 102 263c5 9 12 18 18 27c-88 19 -219 70 -332 70c-103 0 -164 -50 -164 -135
c1 -70 47 -104 116 -104c30 0 62 8 91 21c3 1 6 2 10 2c14 0 20 -13 20 -21s-4 -15 -12 -19c-35 -16 -74 -25 -110 -25c-93 0 -157 55 -157 146c0 112 77 178 208 178c107 0 252 -56 366 -77c50 42 124 64 185 64c58 0 121 -23 121 -69zM792 685c47 0 76 5 76 19
c0 15 -50 26 -79 26c-39 0 -90 -13 -124 -32c48 -8 94 -13 127 -13z" />
    <glyph glyph-name="uni0162" unicode="&#x162;" horiz-adv-x="619" 
d="M911 703c-2 -45 -49 -60 -119 -60c-49 0 -111 8 -174 20c-12 -12 -22 -25 -31 -39c-39 -67 -73 -176 -98 -255c-88 -291 -139 -433 -316 -430c-102 0 -173 77 -173 180c0 118 106 212 216 212c12 0 21 -9 21 -21s-9 -21 -21 -21c-88 0 -174 -79 -174 -170
c0 -85 58 -138 131 -138c170 -2 206 192 276 401c25 81 60 191 102 263c5 9 12 18 18 27c-88 19 -219 70 -332 70c-103 0 -164 -50 -164 -135c1 -70 47 -104 116 -104c30 0 62 8 91 21c3 1 6 2 10 2c14 0 20 -13 20 -21s-4 -15 -12 -19c-35 -16 -74 -25 -110 -25
c-93 0 -157 55 -157 146c0 112 77 178 208 178c107 0 252 -56 366 -77c50 42 124 64 185 64c58 0 121 -23 121 -69zM792 685c47 0 76 5 76 19c0 15 -50 26 -79 26c-39 0 -90 -13 -124 -32c48 -8 94 -13 127 -13zM172 -154c-1 -5 -2 -10 -5 -14l-36 -57c-5 -9 -12 -11 -20 -7
c-8 3 -10 12 -5 20l17 31c-14 6 -21 19 -20 34c2 19 18 33 37 31s34 -19 32 -38z" />
    <glyph glyph-name="uni021A" unicode="&#x21a;" horiz-adv-x="619" 
d="M911 703c-2 -45 -49 -60 -119 -60c-49 0 -111 8 -174 20c-12 -12 -22 -25 -31 -39c-39 -67 -73 -176 -98 -255c-88 -291 -139 -433 -316 -430c-102 0 -173 77 -173 180c0 118 106 212 216 212c12 0 21 -9 21 -21s-9 -21 -21 -21c-88 0 -174 -79 -174 -170
c0 -85 58 -138 131 -138c170 -2 206 192 276 401c25 81 60 191 102 263c5 9 12 18 18 27c-88 19 -219 70 -332 70c-103 0 -164 -50 -164 -135c1 -70 47 -104 116 -104c30 0 62 8 91 21c3 1 6 2 10 2c14 0 20 -13 20 -21s-4 -15 -12 -19c-35 -16 -74 -25 -110 -25
c-93 0 -157 55 -157 146c0 112 77 178 208 178c107 0 252 -56 366 -77c50 42 124 64 185 64c58 0 121 -23 121 -69zM792 685c47 0 76 5 76 19c0 15 -50 26 -79 26c-39 0 -90 -13 -124 -32c48 -8 94 -13 127 -13zM172 -154c-1 -5 -2 -10 -5 -14l-36 -57c-5 -9 -12 -11 -20 -7
c-8 3 -10 12 -5 20l17 31c-14 6 -21 19 -20 34c2 19 18 33 37 31s34 -19 32 -38z" />
    <glyph glyph-name="U" unicode="U" horiz-adv-x="776" 
d="M418 657c22 58 64 121 115 121c35 0 59 -22 59 -54c0 -47 -72 -85 -143 -104c-56 -138 -149 -456 -149 -515c0 -54 18 -90 68 -90h1c136 0 213 186 308 448l99 269c3 9 11 14 20 14c13 0 20 -10 20 -20c0 -3 0 -5 -1 -8l-98 -269l-54 -151c-13 -39 -45 -136 -45 -204
c0 -30 7 -52 27 -52c60 0 102 86 133 152c6 11 10 23 15 32c4 8 12 12 19 12c15 0 21 -13 21 -21c0 -3 -1 -7 -2 -10c-4 -9 -9 -20 -15 -31c-36 -76 -84 -176 -171 -176c-52 0 -69 39 -69 94c0 10 0 20 1 31c-55 -89 -118 -153 -208 -153h-2c-74 2 -109 55 -109 133
c0 63 70 304 142 506c-20 -4 -40 -7 -61 -10c-126 -20 -297 -45 -297 -164c-2 -53 35 -90 79 -90c12 0 21 -10 21 -22c-1 -11 -11 -21 -22 -20c-70 0 -120 59 -120 132c0 152 188 183 332 205zM469 670c42 9 78 38 78 54c0 8 -6 14 -14 14c-22 0 -48 -34 -64 -68z" />
    <glyph glyph-name="Uacute" unicode="&#xda;" horiz-adv-x="776" 
d="M645 861l135 93c10 7 24 3 30 -7s4 -24 -7 -31l-138 -91c-11 -6 -22 -2 -28 7c-4 10 -2 22 8 29zM418 657c22 58 64 121 115 121c35 0 59 -22 59 -54c0 -47 -72 -85 -143 -104c-56 -138 -149 -456 -149 -515c0 -54 18 -90 68 -90h1c136 0 213 186 308 448l99 269
c3 9 11 14 20 14c13 0 20 -10 20 -20c0 -3 0 -5 -1 -8l-98 -269l-54 -151c-13 -39 -45 -136 -45 -204c0 -30 7 -52 27 -52c60 0 102 86 133 152c6 11 10 23 15 32c4 8 12 12 19 12c15 0 21 -13 21 -21c0 -3 -1 -7 -2 -10c-4 -9 -9 -20 -15 -31c-36 -76 -84 -176 -171 -176
c-52 0 -69 39 -69 94c0 10 0 20 1 31c-55 -89 -118 -153 -208 -153h-2c-74 2 -109 55 -109 133c0 63 70 304 142 506c-20 -4 -40 -7 -61 -10c-126 -20 -297 -45 -297 -164c-2 -53 35 -90 79 -90c12 0 21 -10 21 -22c-1 -11 -11 -21 -22 -20c-70 0 -120 59 -120 132
c0 152 188 183 332 205zM469 670c42 9 78 38 78 54c0 8 -6 14 -14 14c-22 0 -48 -34 -64 -68z" />
    <glyph glyph-name="Ucircumflex" unicode="&#xdb;" horiz-adv-x="776" 
d="M795 838c6 -11 0 -22 -8 -25c-6 -2 -18 -1 -25 9l-50 75l-103 -73c-10 -7 -20 -5 -26 2c-6 9 -6 21 3 28l117 91c14 11 30 6 36 -5zM418 657c22 58 64 121 115 121c35 0 59 -22 59 -54c0 -47 -72 -85 -143 -104c-56 -138 -149 -456 -149 -515c0 -54 18 -90 68 -90h1
c136 0 213 186 308 448l99 269c3 9 11 14 20 14c13 0 20 -10 20 -20c0 -3 0 -5 -1 -8l-98 -269l-54 -151c-13 -39 -45 -136 -45 -204c0 -30 7 -52 27 -52c60 0 102 86 133 152c6 11 10 23 15 32c4 8 12 12 19 12c15 0 21 -13 21 -21c0 -3 -1 -7 -2 -10c-4 -9 -9 -20 -15 -31
c-36 -76 -84 -176 -171 -176c-52 0 -69 39 -69 94c0 10 0 20 1 31c-55 -89 -118 -153 -208 -153h-2c-74 2 -109 55 -109 133c0 63 70 304 142 506c-20 -4 -40 -7 -61 -10c-126 -20 -297 -45 -297 -164c-2 -53 35 -90 79 -90c12 0 21 -10 21 -22c-1 -11 -11 -21 -22 -20
c-70 0 -120 59 -120 132c0 152 188 183 332 205zM469 670c42 9 78 38 78 54c0 8 -6 14 -14 14c-22 0 -48 -34 -64 -68z" />
    <glyph glyph-name="Udieresis" unicode="&#xdc;" horiz-adv-x="776" 
d="M629 889c19 0 35 -16 35 -35s-16 -34 -35 -34s-34 15 -34 34s15 35 34 35zM739 889c19 0 35 -16 35 -35s-16 -34 -35 -34s-34 15 -34 34s15 35 34 35zM418 657c22 58 64 121 115 121c35 0 59 -22 59 -54c0 -47 -72 -85 -143 -104c-56 -138 -149 -456 -149 -515
c0 -54 18 -90 68 -90h1c136 0 213 186 308 448l99 269c3 9 11 14 20 14c13 0 20 -10 20 -20c0 -3 0 -5 -1 -8l-98 -269l-54 -151c-13 -39 -45 -136 -45 -204c0 -30 7 -52 27 -52c60 0 102 86 133 152c6 11 10 23 15 32c4 8 12 12 19 12c15 0 21 -13 21 -21
c0 -3 -1 -7 -2 -10c-4 -9 -9 -20 -15 -31c-36 -76 -84 -176 -171 -176c-52 0 -69 39 -69 94c0 10 0 20 1 31c-55 -89 -118 -153 -208 -153h-2c-74 2 -109 55 -109 133c0 63 70 304 142 506c-20 -4 -40 -7 -61 -10c-126 -20 -297 -45 -297 -164c-2 -53 35 -90 79 -90
c12 0 21 -10 21 -22c-1 -11 -11 -21 -22 -20c-70 0 -120 59 -120 132c0 152 188 183 332 205zM469 670c42 9 78 38 78 54c0 8 -6 14 -14 14c-22 0 -48 -34 -64 -68z" />
    <glyph glyph-name="Ugrave" unicode="&#xd9;" horiz-adv-x="776" 
d="M736 834c9 -8 9 -19 3 -28c-6 -7 -17 -10 -26 -2l-110 97c-10 9 -10 22 -3 32c8 8 21 11 31 2zM418 657c22 58 64 121 115 121c35 0 59 -22 59 -54c0 -47 -72 -85 -143 -104c-56 -138 -149 -456 -149 -515c0 -54 18 -90 68 -90h1c136 0 213 186 308 448l99 269
c3 9 11 14 20 14c13 0 20 -10 20 -20c0 -3 0 -5 -1 -8l-98 -269l-54 -151c-13 -39 -45 -136 -45 -204c0 -30 7 -52 27 -52c60 0 102 86 133 152c6 11 10 23 15 32c4 8 12 12 19 12c15 0 21 -13 21 -21c0 -3 -1 -7 -2 -10c-4 -9 -9 -20 -15 -31c-36 -76 -84 -176 -171 -176
c-52 0 -69 39 -69 94c0 10 0 20 1 31c-55 -89 -118 -153 -208 -153h-2c-74 2 -109 55 -109 133c0 63 70 304 142 506c-20 -4 -40 -7 -61 -10c-126 -20 -297 -45 -297 -164c-2 -53 35 -90 79 -90c12 0 21 -10 21 -22c-1 -11 -11 -21 -22 -20c-70 0 -120 59 -120 132
c0 152 188 183 332 205zM469 670c42 9 78 38 78 54c0 8 -6 14 -14 14c-22 0 -48 -34 -64 -68z" />
    <glyph glyph-name="Uhungarumlaut" unicode="&#x170;" horiz-adv-x="776" 
d="M612 854l98 93c10 9 23 6 31 -2c7 -10 7 -23 -3 -32l-103 -89c-9 -8 -20 -5 -26 2c-6 9 -6 20 3 28zM722 854l98 93c10 9 23 6 31 -2c7 -10 7 -23 -3 -32l-103 -89c-9 -8 -20 -5 -26 2c-6 9 -6 20 3 28zM418 657c22 58 64 121 115 121c35 0 59 -22 59 -54
c0 -47 -72 -85 -143 -104c-56 -138 -149 -456 -149 -515c0 -54 18 -90 68 -90h1c136 0 213 186 308 448l99 269c3 9 11 14 20 14c13 0 20 -10 20 -20c0 -3 0 -5 -1 -8l-98 -269l-54 -151c-13 -39 -45 -136 -45 -204c0 -30 7 -52 27 -52c60 0 102 86 133 152
c6 11 10 23 15 32c4 8 12 12 19 12c15 0 21 -13 21 -21c0 -3 -1 -7 -2 -10c-4 -9 -9 -20 -15 -31c-36 -76 -84 -176 -171 -176c-52 0 -69 39 -69 94c0 10 0 20 1 31c-55 -89 -118 -153 -208 -153h-2c-74 2 -109 55 -109 133c0 63 70 304 142 506c-20 -4 -40 -7 -61 -10
c-126 -20 -297 -45 -297 -164c-2 -53 35 -90 79 -90c12 0 21 -10 21 -22c-1 -11 -11 -21 -22 -20c-70 0 -120 59 -120 132c0 152 188 183 332 205zM469 670c42 9 78 38 78 54c0 8 -6 14 -14 14c-22 0 -48 -34 -64 -68z" />
    <glyph glyph-name="Umacron" unicode="&#x16a;" horiz-adv-x="776" 
d="M780 875c13 0 21 -9 22 -21c0 -11 -8 -21 -21 -21h-195c-13 0 -21 10 -21 21c1 12 9 21 22 21h193zM418 657c22 58 64 121 115 121c35 0 59 -22 59 -54c0 -47 -72 -85 -143 -104c-56 -138 -149 -456 -149 -515c0 -54 18 -90 68 -90h1c136 0 213 186 308 448l99 269
c3 9 11 14 20 14c13 0 20 -10 20 -20c0 -3 0 -5 -1 -8l-98 -269l-54 -151c-13 -39 -45 -136 -45 -204c0 -30 7 -52 27 -52c60 0 102 86 133 152c6 11 10 23 15 32c4 8 12 12 19 12c15 0 21 -13 21 -21c0 -3 -1 -7 -2 -10c-4 -9 -9 -20 -15 -31c-36 -76 -84 -176 -171 -176
c-52 0 -69 39 -69 94c0 10 0 20 1 31c-55 -89 -118 -153 -208 -153h-2c-74 2 -109 55 -109 133c0 63 70 304 142 506c-20 -4 -40 -7 -61 -10c-126 -20 -297 -45 -297 -164c-2 -53 35 -90 79 -90c12 0 21 -10 21 -22c-1 -11 -11 -21 -22 -20c-70 0 -120 59 -120 132
c0 152 188 183 332 205zM469 670c42 9 78 38 78 54c0 8 -6 14 -14 14c-22 0 -48 -34 -64 -68z" />
    <glyph glyph-name="Uogonek" unicode="&#x172;" horiz-adv-x="776" 
d="M812 238c15 0 21 -13 21 -21c0 -3 -1 -7 -2 -10c-4 -9 -9 -20 -15 -31c-23 -48 -51 -107 -90 -142l-2 -2c-98 -84 -123 -114 -123 -147c0 -21 14 -35 36 -35c26 0 38 4 60 16c25 14 42 -21 17 -35c-30 -17 -47 -23 -74 -23c-49 0 -81 29 -81 72c0 41 31 81 74 121
c-43 5 -57 42 -57 93c0 10 0 20 1 31c-55 -89 -118 -153 -208 -153h-2c-74 2 -109 55 -109 133c0 63 70 304 142 506c-20 -4 -40 -7 -61 -10c-126 -20 -297 -45 -297 -164c-2 -53 35 -90 79 -90c12 0 21 -10 21 -22c-1 -11 -11 -21 -22 -20c-70 0 -120 59 -120 132
c0 152 188 183 332 205l86 15c22 58 64 121 115 121c35 0 59 -22 59 -54c0 -47 -72 -85 -143 -104c-56 -138 -149 -456 -149 -515c0 -54 18 -90 68 -90h1c136 0 213 186 308 448l99 269c3 9 11 14 20 14c13 0 20 -10 20 -20c0 -3 0 -5 -1 -8l-98 -269l-54 -151
c-13 -39 -45 -136 -45 -204c0 -30 7 -52 27 -52c60 0 102 86 133 152c6 11 10 23 15 32c4 8 12 12 19 12zM533 738c-22 0 -48 -34 -64 -68c42 9 78 38 78 54c0 8 -6 14 -14 14z" />
    <glyph glyph-name="Uring" unicode="&#x16e;" horiz-adv-x="776" 
d="M689 820c-53 0 -91 44 -83 97c8 48 50 84 98 84c52 0 91 -44 83 -96c-8 -48 -50 -85 -98 -85zM689 862c27 0 52 22 56 49s-14 48 -41 48s-52 -22 -56 -48c-4 -28 13 -49 41 -49zM418 657c22 58 64 121 115 121c35 0 59 -22 59 -54c0 -47 -72 -85 -143 -104
c-56 -138 -149 -456 -149 -515c0 -54 18 -90 68 -90h1c136 0 213 186 308 448l99 269c3 9 11 14 20 14c13 0 20 -10 20 -20c0 -3 0 -5 -1 -8l-98 -269l-54 -151c-13 -39 -45 -136 -45 -204c0 -30 7 -52 27 -52c60 0 102 86 133 152c6 11 10 23 15 32c4 8 12 12 19 12
c15 0 21 -13 21 -21c0 -3 -1 -7 -2 -10c-4 -9 -9 -20 -15 -31c-36 -76 -84 -176 -171 -176c-52 0 -69 39 -69 94c0 10 0 20 1 31c-55 -89 -118 -153 -208 -153h-2c-74 2 -109 55 -109 133c0 63 70 304 142 506c-20 -4 -40 -7 -61 -10c-126 -20 -297 -45 -297 -164
c-2 -53 35 -90 79 -90c12 0 21 -10 21 -22c-1 -11 -11 -21 -22 -20c-70 0 -120 59 -120 132c0 152 188 183 332 205zM469 670c42 9 78 38 78 54c0 8 -6 14 -14 14c-22 0 -48 -34 -64 -68z" />
    <glyph glyph-name="V" unicode="V" horiz-adv-x="714" 
d="M418 657c22 58 64 121 115 121c35 0 59 -22 59 -54c0 -47 -72 -85 -143 -104c-43 -109 -143 -425 -143 -522c0 -53 15 -93 61 -93c105 0 186 193 265 384c83 200 165 398 291 398c12 0 22 -9 22 -21s-9 -21 -21 -21c-98 1 -175 -184 -253 -372
c-85 -204 -171 -411 -304 -411c-78 0 -103 59 -103 134c0 109 90 390 136 515c-20 -4 -40 -7 -61 -10c-126 -20 -297 -44 -297 -164c0 -53 35 -90 79 -90c12 0 21 -10 21 -22c-1 -11 -8 -20 -22 -20c-70 0 -120 59 -120 134c0 151 188 181 332 203c30 5 60 10 86 15z
M469 670c42 9 78 38 78 54c0 8 -6 14 -14 14c-22 0 -48 -34 -64 -68z" />
    <glyph glyph-name="W" unicode="W" horiz-adv-x="950" 
d="M417 655c22 58 65 123 116 123c35 0 59 -22 59 -54c0 -47 -72 -85 -143 -104c-57 -143 -152 -469 -152 -526c0 -60 22 -89 69 -91c58 0 119 95 172 209c30 63 147 387 157 433c3 11 12 16 21 16c15 0 25 -15 20 -28c-79 -237 -147 -435 -147 -534c0 -56 16 -94 62 -94
c105 0 166 192 226 383c64 200 126 399 254 399c12 0 22 -9 22 -21s-9 -21 -21 -21c-97 1 -155 -183 -215 -370c-65 -205 -130 -413 -266 -413c-71 0 -104 59 -104 137c0 13 1 27 2 41c-53 -102 -116 -179 -183 -179c-76 2 -111 51 -111 133c0 64 77 332 145 517
c-20 -4 -40 -7 -61 -10c-126 -20 -297 -44 -297 -164c0 -53 35 -90 79 -90c14 0 21 -10 21 -20c0 -11 -8 -22 -22 -22c-70 0 -122 59 -120 134c0 150 188 181 332 203c30 5 59 8 85 13zM469 670c42 9 78 38 78 54c0 8 -6 14 -14 14c-22 0 -48 -34 -64 -68z" />
    <glyph glyph-name="Wacute" unicode="&#x1e82;" horiz-adv-x="950" 
d="M743 841l135 93c10 7 24 3 30 -7s4 -24 -7 -31l-138 -91c-11 -6 -22 -2 -28 7c-4 10 -2 22 8 29zM417 655c22 58 65 123 116 123c35 0 59 -22 59 -54c0 -47 -72 -85 -143 -104c-57 -143 -152 -469 -152 -526c0 -60 22 -89 69 -91c58 0 119 95 172 209
c30 63 147 387 157 433c3 11 12 16 21 16c15 0 25 -15 20 -28c-79 -237 -147 -435 -147 -534c0 -56 16 -94 62 -94c105 0 166 192 226 383c64 200 126 399 254 399c12 0 22 -9 22 -21s-9 -21 -21 -21c-97 1 -155 -183 -215 -370c-65 -205 -130 -413 -266 -413
c-71 0 -104 59 -104 137c0 13 1 27 2 41c-53 -102 -116 -179 -183 -179c-76 2 -111 51 -111 133c0 64 77 332 145 517c-20 -4 -40 -7 -61 -10c-126 -20 -297 -44 -297 -164c0 -53 35 -90 79 -90c14 0 21 -10 21 -20c0 -11 -8 -22 -22 -22c-70 0 -122 59 -120 134
c0 150 188 181 332 203c30 5 59 8 85 13zM469 670c42 9 78 38 78 54c0 8 -6 14 -14 14c-22 0 -48 -34 -64 -68z" />
    <glyph glyph-name="Wcircumflex" unicode="&#x174;" horiz-adv-x="950" 
d="M893 818c6 -11 0 -22 -8 -25c-6 -2 -18 -1 -25 9l-50 75l-103 -73c-10 -7 -20 -5 -26 2c-6 9 -6 21 3 28l117 91c14 11 30 6 36 -5zM417 655c22 58 65 123 116 123c35 0 59 -22 59 -54c0 -47 -72 -85 -143 -104c-57 -143 -152 -469 -152 -526c0 -60 22 -89 69 -91
c58 0 119 95 172 209c30 63 147 387 157 433c3 11 12 16 21 16c15 0 25 -15 20 -28c-79 -237 -147 -435 -147 -534c0 -56 16 -94 62 -94c105 0 166 192 226 383c64 200 126 399 254 399c12 0 22 -9 22 -21s-9 -21 -21 -21c-97 1 -155 -183 -215 -370
c-65 -205 -130 -413 -266 -413c-71 0 -104 59 -104 137c0 13 1 27 2 41c-53 -102 -116 -179 -183 -179c-76 2 -111 51 -111 133c0 64 77 332 145 517c-20 -4 -40 -7 -61 -10c-126 -20 -297 -44 -297 -164c0 -53 35 -90 79 -90c14 0 21 -10 21 -20c0 -11 -8 -22 -22 -22
c-70 0 -122 59 -120 134c0 150 188 181 332 203c30 5 59 8 85 13zM469 670c42 9 78 38 78 54c0 8 -6 14 -14 14c-22 0 -48 -34 -64 -68z" />
    <glyph glyph-name="Wdieresis" unicode="&#x1e84;" horiz-adv-x="950" 
d="M727 869c19 0 35 -16 35 -35s-16 -34 -35 -34s-34 15 -34 34s15 35 34 35zM837 869c19 0 35 -16 35 -35s-16 -34 -35 -34s-34 15 -34 34s15 35 34 35zM417 655c22 58 65 123 116 123c35 0 59 -22 59 -54c0 -47 -72 -85 -143 -104c-57 -143 -152 -469 -152 -526
c0 -60 22 -89 69 -91c58 0 119 95 172 209c30 63 147 387 157 433c3 11 12 16 21 16c15 0 25 -15 20 -28c-79 -237 -147 -435 -147 -534c0 -56 16 -94 62 -94c105 0 166 192 226 383c64 200 126 399 254 399c12 0 22 -9 22 -21s-9 -21 -21 -21c-97 1 -155 -183 -215 -370
c-65 -205 -130 -413 -266 -413c-71 0 -104 59 -104 137c0 13 1 27 2 41c-53 -102 -116 -179 -183 -179c-76 2 -111 51 -111 133c0 64 77 332 145 517c-20 -4 -40 -7 -61 -10c-126 -20 -297 -44 -297 -164c0 -53 35 -90 79 -90c14 0 21 -10 21 -20c0 -11 -8 -22 -22 -22
c-70 0 -122 59 -120 134c0 150 188 181 332 203c30 5 59 8 85 13zM469 670c42 9 78 38 78 54c0 8 -6 14 -14 14c-22 0 -48 -34 -64 -68z" />
    <glyph glyph-name="Wgrave" unicode="&#x1e80;" horiz-adv-x="950" 
d="M844 834c9 -8 9 -19 3 -28c-6 -7 -17 -10 -26 -2l-110 97c-10 9 -10 22 -3 32c8 8 21 11 31 2zM417 655c22 58 65 123 116 123c35 0 59 -22 59 -54c0 -47 -72 -85 -143 -104c-57 -143 -152 -469 -152 -526c0 -60 22 -89 69 -91c58 0 119 95 172 209
c30 63 147 387 157 433c3 11 12 16 21 16c15 0 25 -15 20 -28c-79 -237 -147 -435 -147 -534c0 -56 16 -94 62 -94c105 0 166 192 226 383c64 200 126 399 254 399c12 0 22 -9 22 -21s-9 -21 -21 -21c-97 1 -155 -183 -215 -370c-65 -205 -130 -413 -266 -413
c-71 0 -104 59 -104 137c0 13 1 27 2 41c-53 -102 -116 -179 -183 -179c-76 2 -111 51 -111 133c0 64 77 332 145 517c-20 -4 -40 -7 -61 -10c-126 -20 -297 -44 -297 -164c0 -53 35 -90 79 -90c14 0 21 -10 21 -20c0 -11 -8 -22 -22 -22c-70 0 -122 59 -120 134
c0 150 188 181 332 203c30 5 59 8 85 13zM469 670c42 9 78 38 78 54c0 8 -6 14 -14 14c-22 0 -48 -34 -64 -68z" />
    <glyph glyph-name="X" unicode="X" horiz-adv-x="751" 
d="M1021 745c4 -4 6 -9 6 -14c0 -6 -3 -11 -7 -15s-10 -6 -15 -6s-11 2 -15 7c-10 10 -23 15 -37 15c-91 0 -176 -143 -262 -275c-42 -64 -87 -132 -135 -198c17 -191 22 -421 110 -421c14 0 26 6 34 11c4 3 8 5 13 5c6 0 12 -3 16 -8c3 -4 5 -8 5 -13c0 -6 -3 -12 -8 -17
c-20 -15 -41 -20 -60 -20c-126 0 -127 204 -148 413c-107 -138 -227 -249 -357 -249c-95 0 -161 66 -161 153c0 42 20 88 50 120c4 4 10 7 16 7c11 0 21 -10 21 -21c0 -6 -2 -11 -6 -15c-25 -27 -39 -62 -39 -91c0 -66 52 -111 119 -111c123 0 244 124 352 269
c-13 129 -19 289 -13 352c-24 -4 -49 -8 -74 -11c-119 -15 -256 -43 -256 -166c0 -42 36 -85 69 -85c11 0 20 -10 20 -22c-1 -12 -10 -20 -22 -20c-57 0 -109 67 -109 129c0 154 150 187 292 206c30 4 59 8 87 13c7 58 37 109 93 109c34 0 57 -21 57 -52
c0 -47 -55 -77 -113 -92c-10 -78 -1 -216 7 -308l104 157c101 154 185 293 298 293c25 0 49 -9 68 -29zM601 734c-25 -1 -38 -22 -48 -55c39 14 61 29 61 45c0 6 -5 10 -13 10z" />
    <glyph glyph-name="Y" unicode="Y" horiz-adv-x="765" 
d="M418 656c22 58 65 123 116 123c35 0 59 -22 59 -54c0 -47 -72 -85 -143 -104c-58 -142 -130 -395 -130 -459c0 -61 22 -90 69 -90c60 0 108 40 148 96c54 74 63 103 140 295l99 269c3 9 11 14 20 14c13 0 20 -10 20 -20c0 -3 0 -5 -1 -8l-98 -269
c-3 -6 -136 -380 -154 -428l-16 -44c115 39 185 131 235 249c4 8 11 13 19 13c3 0 6 -1 9 -2c8 -4 13 -11 13 -19c0 -3 -1 -6 -2 -9c-62 -146 -145 -239 -291 -282c-48 -137 -110 -208 -182 -209c-60 -1 -99 38 -99 97c0 63 49 109 169 131c25 4 52 9 79 16l55 157
c-44 -54 -97 -89 -163 -89c-73 0 -112 53 -112 132c1 64 60 273 124 449c-20 -4 -41 -7 -62 -10c-126 -20 -297 -44 -297 -164c0 -53 35 -90 79 -90c12 0 21 -9 21 -21s-8 -21 -22 -21c-70 0 -120 59 -120 134c0 151 188 181 332 203zM470 671c42 9 78 38 78 54
c0 8 -6 14 -14 14c-22 0 -48 -34 -64 -68zM481 -85c-19 -4 -37 -8 -55 -11c-92 -16 -131 -42 -135 -88c0 -35 23 -57 57 -56c54 1 100 54 133 155z" />
    <glyph glyph-name="Yacute" unicode="&#xdd;" horiz-adv-x="765" 
d="M630 841l135 93c10 7 24 3 30 -7s4 -24 -7 -31l-138 -91c-11 -6 -22 -2 -28 7c-4 10 -2 22 8 29zM418 656c22 58 65 123 116 123c35 0 59 -22 59 -54c0 -47 -72 -85 -143 -104c-58 -142 -130 -395 -130 -459c0 -61 22 -90 69 -90c60 0 108 40 148 96
c54 74 63 103 140 295l99 269c3 9 11 14 20 14c13 0 20 -10 20 -20c0 -3 0 -5 -1 -8l-98 -269c-3 -6 -136 -380 -154 -428l-16 -44c115 39 185 131 235 249c4 8 11 13 19 13c3 0 6 -1 9 -2c8 -4 13 -11 13 -19c0 -3 -1 -6 -2 -9c-62 -146 -145 -239 -291 -282
c-48 -137 -110 -208 -182 -209c-60 -1 -99 38 -99 97c0 63 49 109 169 131c25 4 52 9 79 16l55 157c-44 -54 -97 -89 -163 -89c-73 0 -112 53 -112 132c1 64 60 273 124 449c-20 -4 -41 -7 -62 -10c-126 -20 -297 -44 -297 -164c0 -53 35 -90 79 -90c12 0 21 -9 21 -21
s-8 -21 -22 -21c-70 0 -120 59 -120 134c0 151 188 181 332 203zM470 671c42 9 78 38 78 54c0 8 -6 14 -14 14c-22 0 -48 -34 -64 -68zM481 -85c-19 -4 -37 -8 -55 -11c-92 -16 -131 -42 -135 -88c0 -35 23 -57 57 -56c54 1 100 54 133 155z" />
    <glyph glyph-name="Ycircumflex" unicode="&#x176;" horiz-adv-x="765" 
d="M780 818c6 -11 0 -22 -8 -25c-6 -2 -18 -1 -25 9l-50 75l-103 -73c-10 -7 -20 -5 -26 2c-6 9 -6 21 3 28l117 91c14 11 30 6 36 -5zM418 656c22 58 65 123 116 123c35 0 59 -22 59 -54c0 -47 -72 -85 -143 -104c-58 -142 -130 -395 -130 -459c0 -61 22 -90 69 -90
c60 0 108 40 148 96c54 74 63 103 140 295l99 269c3 9 11 14 20 14c13 0 20 -10 20 -20c0 -3 0 -5 -1 -8l-98 -269c-3 -6 -136 -380 -154 -428l-16 -44c115 39 185 131 235 249c4 8 11 13 19 13c3 0 6 -1 9 -2c8 -4 13 -11 13 -19c0 -3 -1 -6 -2 -9
c-62 -146 -145 -239 -291 -282c-48 -137 -110 -208 -182 -209c-60 -1 -99 38 -99 97c0 63 49 109 169 131c25 4 52 9 79 16l55 157c-44 -54 -97 -89 -163 -89c-73 0 -112 53 -112 132c1 64 60 273 124 449c-20 -4 -41 -7 -62 -10c-126 -20 -297 -44 -297 -164
c0 -53 35 -90 79 -90c12 0 21 -9 21 -21s-8 -21 -22 -21c-70 0 -120 59 -120 134c0 151 188 181 332 203zM470 671c42 9 78 38 78 54c0 8 -6 14 -14 14c-22 0 -48 -34 -64 -68zM481 -85c-19 -4 -37 -8 -55 -11c-92 -16 -131 -42 -135 -88c0 -35 23 -57 57 -56
c54 1 100 54 133 155z" />
    <glyph glyph-name="Ydieresis" unicode="&#x178;" horiz-adv-x="765" 
d="M614 869c19 0 35 -16 35 -35s-16 -34 -35 -34s-34 15 -34 34s15 35 34 35zM724 869c19 0 35 -16 35 -35s-16 -34 -35 -34s-34 15 -34 34s15 35 34 35zM418 656c22 58 65 123 116 123c35 0 59 -22 59 -54c0 -47 -72 -85 -143 -104c-58 -142 -130 -395 -130 -459
c0 -61 22 -90 69 -90c60 0 108 40 148 96c54 74 63 103 140 295l99 269c3 9 11 14 20 14c13 0 20 -10 20 -20c0 -3 0 -5 -1 -8l-98 -269c-3 -6 -136 -380 -154 -428l-16 -44c115 39 185 131 235 249c4 8 11 13 19 13c3 0 6 -1 9 -2c8 -4 13 -11 13 -19c0 -3 -1 -6 -2 -9
c-62 -146 -145 -239 -291 -282c-48 -137 -110 -208 -182 -209c-60 -1 -99 38 -99 97c0 63 49 109 169 131c25 4 52 9 79 16l55 157c-44 -54 -97 -89 -163 -89c-73 0 -112 53 -112 132c1 64 60 273 124 449c-20 -4 -41 -7 -62 -10c-126 -20 -297 -44 -297 -164
c0 -53 35 -90 79 -90c12 0 21 -9 21 -21s-8 -21 -22 -21c-70 0 -120 59 -120 134c0 151 188 181 332 203zM470 671c42 9 78 38 78 54c0 8 -6 14 -14 14c-22 0 -48 -34 -64 -68zM481 -85c-19 -4 -37 -8 -55 -11c-92 -16 -131 -42 -135 -88c0 -35 23 -57 57 -56
c54 1 100 54 133 155z" />
    <glyph glyph-name="Ygrave" unicode="&#x1ef2;" horiz-adv-x="765" 
d="M731 834c9 -8 9 -19 3 -28c-6 -7 -17 -10 -26 -2l-110 97c-10 9 -10 22 -3 32c8 8 21 11 31 2zM418 656c22 58 65 123 116 123c35 0 59 -22 59 -54c0 -47 -72 -85 -143 -104c-58 -142 -130 -395 -130 -459c0 -61 22 -90 69 -90c60 0 108 40 148 96c54 74 63 103 140 295
l99 269c3 9 11 14 20 14c13 0 20 -10 20 -20c0 -3 0 -5 -1 -8l-98 -269c-3 -6 -136 -380 -154 -428l-16 -44c115 39 185 131 235 249c4 8 11 13 19 13c3 0 6 -1 9 -2c8 -4 13 -11 13 -19c0 -3 -1 -6 -2 -9c-62 -146 -145 -239 -291 -282c-48 -137 -110 -208 -182 -209
c-60 -1 -99 38 -99 97c0 63 49 109 169 131c25 4 52 9 79 16l55 157c-44 -54 -97 -89 -163 -89c-73 0 -112 53 -112 132c1 64 60 273 124 449c-20 -4 -41 -7 -62 -10c-126 -20 -297 -44 -297 -164c0 -53 35 -90 79 -90c12 0 21 -9 21 -21s-8 -21 -22 -21
c-70 0 -120 59 -120 134c0 151 188 181 332 203zM470 671c42 9 78 38 78 54c0 8 -6 14 -14 14c-22 0 -48 -34 -64 -68zM481 -85c-19 -4 -37 -8 -55 -11c-92 -16 -131 -42 -135 -88c0 -35 23 -57 57 -56c54 1 100 54 133 155z" />
    <glyph glyph-name="Z" unicode="Z" horiz-adv-x="627" 
d="M876 717c0 -45 -44 -63 -94 -63c-32 0 -78 10 -112 17c-73 -93 -224 -314 -293 -416c-54 -81 -76 -113 -101 -144c28 -25 56 -53 84 -81c83 -83 172 -177 263 -177c50 0 96 20 112 55c3 8 11 13 19 13c3 0 6 -1 9 -2c7 -4 12 -12 12 -20c0 -2 -1 -5 -2 -8
c-25 -56 -91 -81 -151 -81c-106 0 -205 103 -292 190l-81 78c-45 -50 -89 -83 -145 -83c-70 0 -104 37 -104 96c0 66 53 110 110 110c43 0 88 -25 134 -63c14 18 59 83 98 141c44 65 103 150 287 403c-117 36 -183 50 -245 50c-82 0 -143 -56 -143 -127c0 -27 8 -52 29 -74
c4 -4 6 -9 6 -14c0 -6 -3 -12 -7 -16s-9 -6 -14 -6c-6 0 -12 3 -16 7c-29 31 -40 68 -40 106c0 96 84 167 187 167c80 0 130 -14 267 -55c38 37 91 62 141 62c45 0 82 -22 82 -65zM833 719c0 19 -23 21 -39 21c-35 0 -67 -15 -91 -33c23 -6 58 -11 78 -11c26 0 52 4 52 23z
M217 106c-39 31 -76 53 -109 53c-34 0 -64 -26 -66 -68c0 -39 28 -54 62 -54c42 0 80 32 113 69z" />
    <glyph glyph-name="Zacute" unicode="&#x179;" horiz-adv-x="627" 
d="M590 841l135 93c10 7 24 3 30 -7s4 -24 -7 -31l-138 -91c-11 -6 -22 -2 -28 7c-4 10 -2 22 8 29zM876 717c0 -45 -44 -63 -94 -63c-32 0 -78 10 -112 17c-73 -93 -224 -314 -293 -416c-54 -81 -76 -113 -101 -144c28 -25 56 -53 84 -81c83 -83 172 -177 263 -177
c50 0 96 20 112 55c3 8 11 13 19 13c3 0 6 -1 9 -2c7 -4 12 -12 12 -20c0 -2 -1 -5 -2 -8c-25 -56 -91 -81 -151 -81c-106 0 -205 103 -292 190l-81 78c-45 -50 -89 -83 -145 -83c-70 0 -104 37 -104 96c0 66 53 110 110 110c43 0 88 -25 134 -63c14 18 59 83 98 141
c44 65 103 150 287 403c-117 36 -183 50 -245 50c-82 0 -143 -56 -143 -127c0 -27 8 -52 29 -74c4 -4 6 -9 6 -14c0 -6 -3 -12 -7 -16s-9 -6 -14 -6c-6 0 -12 3 -16 7c-29 31 -40 68 -40 106c0 96 84 167 187 167c80 0 130 -14 267 -55c38 37 91 62 141 62
c45 0 82 -22 82 -65zM833 719c0 19 -23 21 -39 21c-35 0 -67 -15 -91 -33c23 -6 58 -11 78 -11c26 0 52 4 52 23zM217 106c-39 31 -76 53 -109 53c-34 0 -64 -26 -66 -68c0 -39 28 -54 62 -54c42 0 80 32 113 69z" />
    <glyph glyph-name="Zcaron" unicode="&#x17d;" horiz-adv-x="627" 
d="M569 905c-5 11 0 20 8 25s21 1 26 -9l32 -67l100 74c10 8 20 5 26 -2c6 -9 6 -20 -3 -28l-115 -92c-14 -12 -32 -6 -36 5zM876 717c0 -45 -44 -63 -94 -63c-32 0 -78 10 -112 17c-73 -93 -224 -314 -293 -416c-54 -81 -76 -113 -101 -144c28 -25 56 -53 84 -81
c83 -83 172 -177 263 -177c50 0 96 20 112 55c3 8 11 13 19 13c3 0 6 -1 9 -2c7 -4 12 -12 12 -20c0 -2 -1 -5 -2 -8c-25 -56 -91 -81 -151 -81c-106 0 -205 103 -292 190l-81 78c-45 -50 -89 -83 -145 -83c-70 0 -104 37 -104 96c0 66 53 110 110 110c43 0 88 -25 134 -63
c14 18 59 83 98 141c44 65 103 150 287 403c-117 36 -183 50 -245 50c-82 0 -143 -56 -143 -127c0 -27 8 -52 29 -74c4 -4 6 -9 6 -14c0 -6 -3 -12 -7 -16s-9 -6 -14 -6c-6 0 -12 3 -16 7c-29 31 -40 68 -40 106c0 96 84 167 187 167c80 0 130 -14 267 -55
c38 37 91 62 141 62c45 0 82 -22 82 -65zM833 719c0 19 -23 21 -39 21c-35 0 -67 -15 -91 -33c23 -6 58 -11 78 -11c26 0 52 4 52 23zM217 106c-39 31 -76 53 -109 53c-34 0 -64 -26 -66 -68c0 -39 28 -54 62 -54c42 0 80 32 113 69z" />
    <glyph glyph-name="Zdotaccent" unicode="&#x17b;" horiz-adv-x="627" 
d="M628 800c-21 0 -38 16 -38 37c0 20 17 37 38 37s37 -17 37 -37c0 -21 -16 -37 -37 -37zM876 717c0 -45 -44 -63 -94 -63c-32 0 -78 10 -112 17c-73 -93 -224 -314 -293 -416c-54 -81 -76 -113 -101 -144c28 -25 56 -53 84 -81c83 -83 172 -177 263 -177
c50 0 96 20 112 55c3 8 11 13 19 13c3 0 6 -1 9 -2c7 -4 12 -12 12 -20c0 -2 -1 -5 -2 -8c-25 -56 -91 -81 -151 -81c-106 0 -205 103 -292 190l-81 78c-45 -50 -89 -83 -145 -83c-70 0 -104 37 -104 96c0 66 53 110 110 110c43 0 88 -25 134 -63c14 18 59 83 98 141
c44 65 103 150 287 403c-117 36 -183 50 -245 50c-82 0 -143 -56 -143 -127c0 -27 8 -52 29 -74c4 -4 6 -9 6 -14c0 -6 -3 -12 -7 -16s-9 -6 -14 -6c-6 0 -12 3 -16 7c-29 31 -40 68 -40 106c0 96 84 167 187 167c80 0 130 -14 267 -55c38 37 91 62 141 62
c45 0 82 -22 82 -65zM833 719c0 19 -23 21 -39 21c-35 0 -67 -15 -91 -33c23 -6 58 -11 78 -11c26 0 52 4 52 23zM217 106c-39 31 -76 53 -109 53c-34 0 -64 -26 -66 -68c0 -39 28 -54 62 -54c42 0 80 32 113 69z" />
    <glyph glyph-name="a" unicode="a" horiz-adv-x="403" 
d="M448 238c8 -4 13 -11 13 -19c0 -3 -1 -6 -2 -9l-1 -3c-38 -84 -92 -207 -182 -207c-48 0 -72 35 -72 84c-40 -56 -82 -84 -125 -84c-56 0 -82 48 -82 108c0 131 101 365 221 365c42 0 73 -17 91 -53c6 17 12 32 17 45c3 8 11 13 20 13c16 0 24 -16 19 -28l-50 -134
c-36 -101 -69 -188 -69 -232c0 -30 9 -42 30 -42c62 0 110 108 143 182l1 3c4 8 11 13 19 13c3 0 6 -1 9 -2zM78 42c81 0 140 150 180 252l24 64c-2 46 -28 73 -64 73c-92 -2 -177 -217 -179 -316c0 -44 9 -73 39 -73z" />
    <glyph glyph-name="aacute" unicode="&#xe1;" horiz-adv-x="403" 
d="M240 574l135 93c10 7 24 3 30 -7s4 -24 -7 -31l-138 -91c-11 -6 -22 -2 -28 7c-4 10 -2 22 8 29zM448 238c8 -4 13 -11 13 -19c0 -3 -1 -6 -2 -9l-1 -3c-38 -84 -92 -207 -182 -207c-48 0 -72 35 -72 84c-40 -56 -82 -84 -125 -84c-56 0 -82 48 -82 108
c0 131 101 365 221 365c42 0 73 -17 91 -53c6 17 12 32 17 45c3 8 11 13 20 13c16 0 24 -16 19 -28l-50 -134c-36 -101 -69 -188 -69 -232c0 -30 9 -42 30 -42c62 0 110 108 143 182l1 3c4 8 11 13 19 13c3 0 6 -1 9 -2zM78 42c81 0 140 150 180 252l24 64
c-2 46 -28 73 -64 73c-92 -2 -177 -217 -179 -316c0 -44 9 -73 39 -73z" />
    <glyph glyph-name="abreve" unicode="&#x103;" horiz-adv-x="403" 
d="M430 643c-30 -72 -76 -110 -134 -110c-72 0 -122 53 -101 124c3 9 11 16 21 16c14 0 23 -14 20 -27c-13 -46 17 -71 57 -71s74 29 98 85c3 8 11 13 19 13c13 0 26 -15 20 -30zM448 238c8 -4 13 -11 13 -19c0 -3 -1 -6 -2 -9l-1 -3c-38 -84 -92 -207 -182 -207
c-48 0 -72 35 -72 84c-40 -56 -82 -84 -125 -84c-56 0 -82 48 -82 108c0 131 101 365 221 365c42 0 73 -17 91 -53c6 17 12 32 17 45c3 8 11 13 20 13c16 0 24 -16 19 -28l-50 -134c-36 -101 -69 -188 -69 -232c0 -30 9 -42 30 -42c62 0 110 108 143 182l1 3
c4 8 11 13 19 13c3 0 6 -1 9 -2zM78 42c81 0 140 150 180 252l24 64c-2 46 -28 73 -64 73c-92 -2 -177 -217 -179 -316c0 -44 9 -73 39 -73z" />
    <glyph glyph-name="acircumflex" unicode="&#xe2;" horiz-adv-x="403" 
d="M390 551c6 -11 0 -22 -8 -25c-6 -2 -18 -1 -25 9l-50 75l-103 -73c-10 -7 -20 -5 -26 2c-6 9 -6 21 3 28l117 91c14 11 30 6 36 -5zM448 238c8 -4 13 -11 13 -19c0 -3 -1 -6 -2 -9l-1 -3c-38 -84 -92 -207 -182 -207c-48 0 -72 35 -72 84c-40 -56 -82 -84 -125 -84
c-56 0 -82 48 -82 108c0 131 101 365 221 365c42 0 73 -17 91 -53c6 17 12 32 17 45c3 8 11 13 20 13c16 0 24 -16 19 -28l-50 -134c-36 -101 -69 -188 -69 -232c0 -30 9 -42 30 -42c62 0 110 108 143 182l1 3c4 8 11 13 19 13c3 0 6 -1 9 -2zM78 42c81 0 140 150 180 252
l24 64c-2 46 -28 73 -64 73c-92 -2 -177 -217 -179 -316c0 -44 9 -73 39 -73z" />
    <glyph glyph-name="adieresis" unicode="&#xe4;" horiz-adv-x="403" 
d="M224 602c19 0 35 -16 35 -35s-16 -34 -35 -34s-34 15 -34 34s15 35 34 35zM334 602c19 0 35 -16 35 -35s-16 -34 -35 -34s-34 15 -34 34s15 35 34 35zM448 238c8 -4 13 -11 13 -19c0 -3 -1 -6 -2 -9l-1 -3c-38 -84 -92 -207 -182 -207c-48 0 -72 35 -72 84
c-40 -56 -82 -84 -125 -84c-56 0 -82 48 -82 108c0 131 101 365 221 365c42 0 73 -17 91 -53c6 17 12 32 17 45c3 8 11 13 20 13c16 0 24 -16 19 -28l-50 -134c-36 -101 -69 -188 -69 -232c0 -30 9 -42 30 -42c62 0 110 108 143 182l1 3c4 8 11 13 19 13c3 0 6 -1 9 -2z
M78 42c81 0 140 150 180 252l24 64c-2 46 -28 73 -64 73c-92 -2 -177 -217 -179 -316c0 -44 9 -73 39 -73z" />
    <glyph glyph-name="agrave" unicode="&#xe0;" horiz-adv-x="403" 
d="M341 567c9 -8 9 -19 3 -28c-6 -7 -17 -10 -26 -2l-110 97c-10 9 -10 22 -3 32c8 8 21 11 31 2zM448 238c8 -4 13 -11 13 -19c0 -3 -1 -6 -2 -9l-1 -3c-38 -84 -92 -207 -182 -207c-48 0 -72 35 -72 84c-40 -56 -82 -84 -125 -84c-56 0 -82 48 -82 108
c0 131 101 365 221 365c42 0 73 -17 91 -53c6 17 12 32 17 45c3 8 11 13 20 13c16 0 24 -16 19 -28l-50 -134c-36 -101 -69 -188 -69 -232c0 -30 9 -42 30 -42c62 0 110 108 143 182l1 3c4 8 11 13 19 13c3 0 6 -1 9 -2zM78 42c81 0 140 150 180 252l24 64
c-2 46 -28 73 -64 73c-92 -2 -177 -217 -179 -316c0 -44 9 -73 39 -73z" />
    <glyph glyph-name="amacron" unicode="&#x101;" horiz-adv-x="403" 
d="M375 588c13 0 21 -9 22 -21c0 -11 -8 -21 -21 -21h-195c-13 0 -21 10 -21 21c1 12 9 21 22 21h193zM448 238c8 -4 13 -11 13 -19c0 -3 -1 -6 -2 -9l-1 -3c-38 -84 -92 -207 -182 -207c-48 0 -72 35 -72 84c-40 -56 -82 -84 -125 -84c-56 0 -82 48 -82 108
c0 131 101 365 221 365c42 0 73 -17 91 -53c6 17 12 32 17 45c3 8 11 13 20 13c16 0 24 -16 19 -28l-50 -134c-36 -101 -69 -188 -69 -232c0 -30 9 -42 30 -42c62 0 110 108 143 182l1 3c4 8 11 13 19 13c3 0 6 -1 9 -2zM78 42c81 0 140 150 180 252l24 64
c-2 46 -28 73 -64 73c-92 -2 -177 -217 -179 -316c0 -44 9 -73 39 -73z" />
    <glyph glyph-name="aogonek" unicode="&#x105;" horiz-adv-x="403" 
d="M448 238c8 -4 13 -11 13 -19c0 -3 -1 -6 -2 -9l-1 -3c-28 -61 -64 -144 -117 -184c-90 -77 -113 -106 -113 -138c0 -21 14 -35 36 -35c26 0 38 4 60 16c25 14 42 -21 17 -35c-30 -17 -47 -23 -74 -23c-49 0 -81 29 -81 72c0 42 31 82 75 121c-38 7 -57 39 -57 83
c-40 -56 -82 -84 -125 -84c-56 0 -82 48 -82 108c0 131 101 365 221 365c42 0 73 -17 91 -53c6 17 12 32 17 45c3 8 11 13 20 13c16 0 24 -16 19 -28l-50 -134c-36 -101 -69 -188 -69 -232c0 -30 9 -42 30 -42c62 0 110 108 143 182l1 3c4 8 11 13 19 13c3 0 6 -1 9 -2z
M78 42c81 0 140 150 180 252l24 64c-2 46 -28 73 -64 73c-92 -2 -177 -217 -179 -316c0 -44 9 -73 39 -73z" />
    <glyph glyph-name="aring" unicode="&#xe5;" horiz-adv-x="403" 
d="M284 533c-53 0 -91 44 -83 97c8 48 50 84 98 84c52 0 91 -44 83 -96c-8 -48 -50 -85 -98 -85zM284 575c27 0 52 22 56 49s-14 48 -41 48s-52 -22 -56 -48c-4 -28 13 -49 41 -49zM448 238c8 -4 13 -11 13 -19c0 -3 -1 -6 -2 -9l-1 -3c-38 -84 -92 -207 -182 -207
c-48 0 -72 35 -72 84c-40 -56 -82 -84 -125 -84c-56 0 -82 48 -82 108c0 131 101 365 221 365c42 0 73 -17 91 -53c6 17 12 32 17 45c3 8 11 13 20 13c16 0 24 -16 19 -28l-50 -134c-36 -101 -69 -188 -69 -232c0 -30 9 -42 30 -42c62 0 110 108 143 182l1 3
c4 8 11 13 19 13c3 0 6 -1 9 -2zM78 42c81 0 140 150 180 252l24 64c-2 46 -28 73 -64 73c-92 -2 -177 -217 -179 -316c0 -44 9 -73 39 -73z" />
    <glyph glyph-name="atilde" unicode="&#xe3;" horiz-adv-x="403" 
d="M416 614c0 -5 -2 -10 -4 -13c-15 -23 -46 -41 -73 -41c-23 0 -46 11 -62 30c-9 11 -19 16 -30 16c-14 0 -28 -8 -36 -19c-6 -8 -14 -14 -20 -14c-13 0 -21 8 -21 21c0 3 2 9 6 15c14 23 44 39 71 39c23 0 46 -11 62 -30c9 -11 19 -16 30 -16c14 0 30 10 37 22
c4 7 11 11 19 11c12 0 21 -9 21 -21zM448 238c8 -4 13 -11 13 -19c0 -3 -1 -6 -2 -9l-1 -3c-38 -84 -92 -207 -182 -207c-48 0 -72 35 -72 84c-40 -56 -82 -84 -125 -84c-56 0 -82 48 -82 108c0 131 101 365 221 365c42 0 73 -17 91 -53c6 17 12 32 17 45c3 8 11 13 20 13
c16 0 24 -16 19 -28l-50 -134c-36 -101 -69 -188 -69 -232c0 -30 9 -42 30 -42c62 0 110 108 143 182l1 3c4 8 11 13 19 13c3 0 6 -1 9 -2zM78 42c81 0 140 150 180 252l24 64c-2 46 -28 73 -64 73c-92 -2 -177 -217 -179 -316c0 -44 9 -73 39 -73z" />
    <glyph glyph-name="ae" unicode="&#xe6;" horiz-adv-x="564" 
d="M609 238c8 -4 13 -12 13 -20c0 -3 -1 -5 -2 -8c-65 -144 -111 -210 -212 -210c-71 0 -118 41 -129 105c-40 -61 -92 -105 -146 -105c-50 0 -85 26 -85 74c0 103 145 154 256 181c9 29 14 58 15 82c2 57 0 92 -60 94c-82 2 -148 -96 -203 -221c-5 -10 -17 -15 -28 -11
c-8 4 -13 12 -13 20c0 3 1 5 2 8c60 142 142 246 243 246c71 0 100 -46 99 -105c40 61 92 105 146 105c50 0 85 -26 85 -74c0 -103 -145 -154 -256 -181c-9 -29 -14 -58 -15 -82c-2 -57 30 -92 90 -94c82 -2 116 56 172 185c5 10 17 15 28 11zM505 431
c-56 0 -116 -79 -152 -163c83 24 195 61 195 131c0 27 -21 32 -43 32zM133 42c56 0 116 79 152 163c-83 -24 -195 -61 -195 -131c0 -27 21 -32 43 -32z" />
    <glyph glyph-name="b" unicode="b" horiz-adv-x="382" 
d="M427 238c8 -3 13 -11 13 -19s-13 -34 -19 -45c-33 -65 -74 -110 -138 -110c-27 0 -52 9 -71 28c-41 -56 -89 -92 -151 -92c-54 0 -79 30 -79 88c0 45 19 95 31 128c6 18 116 333 119 343c6 19 14 45 22 67c3 9 11 14 20 14c15 0 25 -15 20 -28l-22 -65
c-17 -50 -25 -75 -42 -121c28 29 60 47 97 47c63 0 84 -49 84 -112c-1 -68 -33 -157 -72 -226c-1 -2 -2 -5 -4 -7c11 -13 30 -22 48 -22c50 0 76 41 101 87c16 30 16 47 34 47c3 0 6 -1 9 -2zM206 240c14 0 24 -13 21 -27c-2 -6 -3 -12 -4 -17c26 52 45 118 45 167
c0 40 -5 68 -39 68c-81 0 -143 -151 -183 -252c-15 -42 -22 -69 -22 -89c0 -32 11 -48 38 -48c47 0 90 35 125 88c-5 13 -8 28 -8 46c0 15 1 30 7 48c3 10 11 16 20 16z" />
    <glyph glyph-name="c" unicode="c" horiz-adv-x="317" 
d="M362 238c8 -4 13 -12 13 -20c0 -3 -1 -5 -2 -8c-61 -136 -133 -210 -249 -210c-73 0 -121 55 -121 137c0 156 125 336 227 336c57 0 85 -39 85 -94c0 -45 -22 -91 -45 -91c-13 0 -21 7 -21 20c0 14 24 31 24 71c0 35 -13 52 -43 52c-78 0 -185 -175 -185 -295
c0 -56 32 -94 80 -94c97 0 159 70 209 185c5 10 17 15 28 11z" />
    <glyph glyph-name="cacute" unicode="&#x107;" horiz-adv-x="317" 
d="M218 574l135 93c10 7 24 3 30 -7s4 -24 -7 -31l-138 -91c-11 -6 -22 -2 -28 7c-4 10 -2 22 8 29zM362 238c8 -4 13 -12 13 -20c0 -3 -1 -5 -2 -8c-61 -136 -133 -210 -249 -210c-73 0 -121 55 -121 137c0 156 125 336 227 336c57 0 85 -39 85 -94c0 -45 -22 -91 -45 -91
c-13 0 -21 7 -21 20c0 14 24 31 24 71c0 35 -13 52 -43 52c-78 0 -185 -175 -185 -295c0 -56 32 -94 80 -94c97 0 159 70 209 185c5 10 17 15 28 11z" />
    <glyph glyph-name="ccaron" unicode="&#x10d;" horiz-adv-x="317" 
d="M197 638c-5 11 0 20 8 25s21 1 26 -9l32 -67l100 74c10 8 20 5 26 -2c6 -9 6 -20 -3 -28l-115 -92c-14 -12 -32 -6 -36 5zM362 238c8 -4 13 -12 13 -20c0 -3 -1 -5 -2 -8c-61 -136 -133 -210 -249 -210c-73 0 -121 55 -121 137c0 156 125 336 227 336c57 0 85 -39 85 -94
c0 -45 -22 -91 -45 -91c-13 0 -21 7 -21 20c0 14 24 31 24 71c0 35 -13 52 -43 52c-78 0 -185 -175 -185 -295c0 -56 32 -94 80 -94c97 0 159 70 209 185c5 10 17 15 28 11z" />
    <glyph glyph-name="ccedilla" unicode="&#xe7;" horiz-adv-x="317" 
d="M362 238c8 -4 13 -12 13 -20c0 -3 -1 -5 -2 -8c-60 -134 -131 -208 -245 -210l-20 -45c46 4 72 -23 66 -68c-7 -51 -43 -78 -104 -78c-26 0 -47 8 -65 22c-22 17 4 49 25 33c13 -9 29 -13 46 -13c34 0 53 12 56 36c4 28 -10 38 -43 32c-17 -4 -30 7 -25 19l30 65
c-56 13 -91 64 -91 134c0 156 125 336 227 336c57 0 85 -39 85 -94c0 -45 -22 -91 -45 -91c-13 0 -21 7 -21 20c0 14 24 31 24 71c0 35 -13 52 -43 52c-78 0 -185 -175 -185 -295c0 -56 32 -94 80 -94c97 0 159 70 209 185c5 10 17 15 28 11z" />
    <glyph glyph-name="cdotaccent" unicode="&#x10b;" horiz-adv-x="317" 
d="M256 533c-21 0 -38 16 -38 37c0 20 17 37 38 37s37 -17 37 -37c0 -21 -16 -37 -37 -37zM362 238c8 -4 13 -12 13 -20c0 -3 -1 -5 -2 -8c-61 -136 -133 -210 -249 -210c-73 0 -121 55 -121 137c0 156 125 336 227 336c57 0 85 -39 85 -94c0 -45 -22 -91 -45 -91
c-13 0 -21 7 -21 20c0 14 24 31 24 71c0 35 -13 52 -43 52c-78 0 -185 -175 -185 -295c0 -56 32 -94 80 -94c97 0 159 70 209 185c5 10 17 15 28 11z" />
    <glyph glyph-name="d" unicode="d" horiz-adv-x="430" 
d="M475 238c8 -4 13 -11 13 -19c0 -3 -1 -6 -2 -9c-58 -125 -114 -210 -206 -210c-47 0 -74 32 -74 88c-35 -50 -76 -88 -127 -88c-56 0 -82 48 -82 108c0 131 100 365 221 365c45 0 74 -20 90 -51l19 52l53 153c3 8 11 13 19 13c17 0 24 -17 20 -28
c-10 -29 -129 -369 -138 -397c-15 -46 -33 -105 -33 -131c0 -24 9 -42 32 -42c72 0 120 83 167 186c4 7 12 12 20 12c2 0 5 -1 8 -2zM78 42c81 0 140 150 180 252c9 21 16 41 23 57c1 3 1 5 1 7c-2 46 -25 73 -64 73c-92 -3 -177 -217 -179 -316c0 -44 9 -73 39 -73z" />
    <glyph glyph-name="eth" unicode="&#xf0;" horiz-adv-x="418" 
d="M454 240c13 0 26 -15 20 -30c-41 -98 -90 -146 -152 -146c-29 0 -52 6 -76 28c-44 -53 -101 -92 -156 -92c-59 0 -103 46 -103 109c0 113 112 285 235 285c32 0 57 -10 75 -28c0 41 -7 78 -21 113l-61 -11c-13 -2 -23 6 -25 17c-1 12 6 22 18 25l47 8
c-18 29 -42 56 -74 82c-11 9 -14 21 -7 31c7 9 21 11 32 2c41 -33 72 -69 93 -107l60 10c13 2 22 -5 25 -17c2 -11 -4 -22 -17 -24l-50 -9c27 -73 26 -157 2 -256c-9 -35 -26 -71 -48 -103c14 -18 32 -21 48 -21c50 0 83 45 116 121c3 8 11 13 19 13zM90 42
c46 0 94 38 132 88c-5 15 -8 32 -8 48c0 17 3 32 7 46c3 9 11 16 21 16c14 0 23 -14 20 -27c-3 -11 -5 -21 -6 -28c11 20 19 41 24 61c0 1 1 2 1 4c3 11 4 23 4 33c0 42 -19 69 -63 69c-99 0 -194 -156 -194 -243c0 -40 29 -67 62 -67z" />
    <glyph glyph-name="dcaron" unicode="&#x10f;" horiz-adv-x="430" 
d="M531 602c-1 -5 -2 -10 -5 -14l-36 -57c-5 -9 -12 -11 -20 -7c-8 3 -10 12 -5 20l17 31c-14 6 -21 19 -20 34c2 19 18 33 37 31s34 -19 32 -38zM475 238c8 -4 13 -11 13 -19c0 -3 -1 -6 -2 -9c-58 -125 -114 -210 -206 -210c-47 0 -74 32 -74 88c-35 -50 -76 -88 -127 -88
c-56 0 -82 48 -82 108c0 131 100 365 221 365c45 0 74 -20 90 -51l19 52l53 153c3 8 11 13 19 13c17 0 24 -17 20 -28c-10 -29 -129 -369 -138 -397c-15 -46 -33 -105 -33 -131c0 -24 9 -42 32 -42c72 0 120 83 167 186c4 7 12 12 20 12c2 0 5 -1 8 -2zM78 42
c81 0 140 150 180 252c9 21 16 41 23 57c1 3 1 5 1 7c-2 46 -25 73 -64 73c-92 -3 -177 -217 -179 -316c0 -44 9 -73 39 -73z" />
    <glyph glyph-name="dcroat" unicode="&#x111;" horiz-adv-x="430" 
d="M475 238c8 -4 13 -11 13 -19c0 -3 -1 -6 -2 -9c-58 -125 -114 -210 -206 -210c-47 0 -74 32 -74 88c-35 -50 -76 -88 -127 -88c-56 0 -82 48 -82 108c0 131 100 365 221 365c45 0 74 -20 90 -51l19 52c4 13 9 25 13 38h-53c-13 0 -21 9 -21 21c1 12 9 20 22 21h67l25 73
c3 8 11 13 19 13c17 0 24 -17 20 -28l-20 -58h42c13 -1 21 -9 22 -22c0 -11 -8 -21 -21 -20h-58c-39 -112 -97 -278 -103 -297c-15 -46 -33 -105 -33 -131c0 -24 9 -42 32 -42c72 0 120 83 167 186c4 7 12 12 20 12c2 0 5 -1 8 -2zM78 42c81 0 140 150 180 252
c9 21 16 41 23 57c1 3 1 5 1 7c-2 46 -25 73 -64 73c-92 -3 -177 -217 -179 -316c0 -44 9 -73 39 -73z" />
    <glyph glyph-name="e" unicode="e" horiz-adv-x="317" 
d="M362 238c8 -4 13 -12 13 -20c0 -3 -1 -5 -2 -8c-65 -144 -141 -210 -242 -210c-83 0 -133 55 -131 137c6 128 110 336 228 336c50 0 85 -26 85 -74c0 -106 -149 -170 -260 -197c-7 -26 -10 -45 -11 -66c-2 -57 30 -92 90 -94c82 -2 146 56 202 185c5 10 17 15 28 11z
M69 250c83 26 202 75 202 149c0 27 -21 32 -43 32c-69 0 -127 -104 -159 -181z" />
    <glyph glyph-name="eacute" unicode="&#xe9;" horiz-adv-x="317" 
d="M218 574l135 93c10 7 24 3 30 -7s4 -24 -7 -31l-138 -91c-11 -6 -22 -2 -28 7c-4 10 -2 22 8 29zM362 238c8 -4 13 -12 13 -20c0 -3 -1 -5 -2 -8c-65 -144 -141 -210 -242 -210c-83 0 -133 55 -131 137c6 128 110 336 228 336c50 0 85 -26 85 -74
c0 -106 -149 -170 -260 -197c-7 -26 -10 -45 -11 -66c-2 -57 30 -92 90 -94c82 -2 146 56 202 185c5 10 17 15 28 11zM69 250c83 26 202 75 202 149c0 27 -21 32 -43 32c-69 0 -127 -104 -159 -181z" />
    <glyph glyph-name="ecaron" unicode="&#x11b;" horiz-adv-x="317" 
d="M197 638c-5 11 0 20 8 25s21 1 26 -9l32 -67l100 74c10 8 20 5 26 -2c6 -9 6 -20 -3 -28l-115 -92c-14 -12 -32 -6 -36 5zM362 238c8 -4 13 -12 13 -20c0 -3 -1 -5 -2 -8c-65 -144 -141 -210 -242 -210c-83 0 -133 55 -131 137c6 128 110 336 228 336c50 0 85 -26 85 -74
c0 -106 -149 -170 -260 -197c-7 -26 -10 -45 -11 -66c-2 -57 30 -92 90 -94c82 -2 146 56 202 185c5 10 17 15 28 11zM69 250c83 26 202 75 202 149c0 27 -21 32 -43 32c-69 0 -127 -104 -159 -181z" />
    <glyph glyph-name="ecircumflex" unicode="&#xea;" horiz-adv-x="317" 
d="M368 551c6 -11 0 -22 -8 -25c-6 -2 -18 -1 -25 9l-50 75l-103 -73c-10 -7 -20 -5 -26 2c-6 9 -6 21 3 28l117 91c14 11 30 6 36 -5zM362 238c8 -4 13 -12 13 -20c0 -3 -1 -5 -2 -8c-65 -144 -141 -210 -242 -210c-83 0 -133 55 -131 137c6 128 110 336 228 336
c50 0 85 -26 85 -74c0 -106 -149 -170 -260 -197c-7 -26 -10 -45 -11 -66c-2 -57 30 -92 90 -94c82 -2 146 56 202 185c5 10 17 15 28 11zM69 250c83 26 202 75 202 149c0 27 -21 32 -43 32c-69 0 -127 -104 -159 -181z" />
    <glyph glyph-name="edieresis" unicode="&#xeb;" horiz-adv-x="317" 
d="M202 602c19 0 35 -16 35 -35s-16 -34 -35 -34s-34 15 -34 34s15 35 34 35zM312 602c19 0 35 -16 35 -35s-16 -34 -35 -34s-34 15 -34 34s15 35 34 35zM362 238c8 -4 13 -12 13 -20c0 -3 -1 -5 -2 -8c-65 -144 -141 -210 -242 -210c-83 0 -133 55 -131 137
c6 128 110 336 228 336c50 0 85 -26 85 -74c0 -106 -149 -170 -260 -197c-7 -26 -10 -45 -11 -66c-2 -57 30 -92 90 -94c82 -2 146 56 202 185c5 10 17 15 28 11zM69 250c83 26 202 75 202 149c0 27 -21 32 -43 32c-69 0 -127 -104 -159 -181z" />
    <glyph glyph-name="edotaccent" unicode="&#x117;" horiz-adv-x="317" 
d="M256 533c-21 0 -38 16 -38 37c0 20 17 37 38 37s37 -17 37 -37c0 -21 -16 -37 -37 -37zM362 238c8 -4 13 -12 13 -20c0 -3 -1 -5 -2 -8c-65 -144 -141 -210 -242 -210c-83 0 -133 55 -131 137c6 128 110 336 228 336c50 0 85 -26 85 -74c0 -106 -149 -170 -260 -197
c-7 -26 -10 -45 -11 -66c-2 -57 30 -92 90 -94c82 -2 146 56 202 185c5 10 17 15 28 11zM69 250c83 26 202 75 202 149c0 27 -21 32 -43 32c-69 0 -127 -104 -159 -181z" />
    <glyph glyph-name="egrave" unicode="&#xe8;" horiz-adv-x="317" 
d="M319 567c9 -8 9 -19 3 -28c-6 -7 -17 -10 -26 -2l-110 97c-10 9 -10 22 -3 32c8 8 21 11 31 2zM362 238c8 -4 13 -12 13 -20c0 -3 -1 -5 -2 -8c-65 -144 -141 -210 -242 -210c-83 0 -133 55 -131 137c6 128 110 336 228 336c50 0 85 -26 85 -74
c0 -106 -149 -170 -260 -197c-7 -26 -10 -45 -11 -66c-2 -57 30 -92 90 -94c82 -2 146 56 202 185c5 10 17 15 28 11zM69 250c83 26 202 75 202 149c0 27 -21 32 -43 32c-69 0 -127 -104 -159 -181z" />
    <glyph glyph-name="emacron" unicode="&#x113;" horiz-adv-x="317" 
d="M353 588c13 0 21 -9 22 -21c0 -11 -8 -21 -21 -21h-195c-13 0 -21 10 -21 21c1 12 9 21 22 21h193zM362 238c8 -4 13 -12 13 -20c0 -3 -1 -5 -2 -8c-65 -144 -141 -210 -242 -210c-83 0 -133 55 -131 137c6 128 110 336 228 336c50 0 85 -26 85 -74
c0 -106 -149 -170 -260 -197c-7 -26 -10 -45 -11 -66c-2 -57 30 -92 90 -94c82 -2 146 56 202 185c5 10 17 15 28 11zM69 250c83 26 202 75 202 149c0 27 -21 32 -43 32c-69 0 -127 -104 -159 -181z" />
    <glyph glyph-name="eogonek" unicode="&#x119;" horiz-adv-x="317" 
d="M362 238c8 -4 13 -12 13 -20c0 -3 -1 -5 -2 -8c-39 -86 -81 -144 -131 -177l-1 -1c-98 -84 -123 -114 -123 -147c0 -21 14 -35 36 -35c26 0 38 4 60 16c25 14 42 -21 17 -35c-30 -17 -47 -23 -74 -23c-49 0 -81 29 -81 72c0 41 31 81 74 121c-6 -1 -12 -1 -19 -1
c-83 0 -133 55 -131 137c6 128 110 336 228 336c50 0 85 -26 85 -74c0 -106 -149 -170 -260 -197c-7 -26 -10 -45 -11 -66c-2 -57 30 -92 90 -94c82 -2 146 56 202 185c5 10 17 15 28 11zM228 431c-69 0 -127 -104 -159 -181c83 26 202 75 202 149c0 27 -21 32 -43 32z" />
    <glyph glyph-name="f" unicode="f" horiz-adv-x="192" 
d="M391 727c2 -3 3 -6 3 -9c0 -8 -5 -15 -12 -19c-3 -1 -6 -2 -9 -2c-8 0 -15 4 -19 12c-9 15 -22 18 -33 18c-58 3 -107 -93 -139 -178c-10 -24 -21 -51 -30 -76h64c11 0 21 -10 21 -21c0 -12 -10 -21 -21 -21h-80l-162 -454c115 39 185 131 235 249c4 8 11 13 19 13
c3 0 6 -1 9 -2c8 -4 13 -11 13 -19c0 -3 -1 -6 -2 -9c-62 -146 -145 -239 -291 -282c-48 -137 -110 -208 -182 -209c-60 -1 -99 38 -99 97c0 63 49 109 169 131c25 4 52 9 79 16c74 204 106 308 167 469h-65c-12 0 -21 9 -21 21c0 11 9 21 21 21h81l35 92
c39 103 96 205 177 205c32 0 58 -15 72 -43zM-92 -85c-19 -4 -37 -8 -55 -11c-92 -16 -131 -42 -135 -88c0 -35 23 -57 57 -56c54 1 100 54 133 155z" />
    <glyph glyph-name="g" unicode="g" horiz-adv-x="413" 
d="M458 237c8 -4 13 -11 13 -19c0 -3 -1 -6 -2 -9c-62 -146 -145 -239 -291 -282c-48 -137 -110 -208 -182 -209c-60 -1 -99 38 -99 97c0 63 49 109 169 131c25 4 52 9 79 16l30 86c-27 -28 -59 -48 -95 -48c-66 0 -82 51 -82 115c5 132 100 358 219 358c45 0 75 -21 92 -55
l16 41c3 9 11 14 19 14c14 0 27 -11 21 -29c-16 -39 -43 -111 -75 -196l-53 -149l-42 -122c115 39 185 131 235 249c4 8 11 13 19 13c3 0 6 -1 9 -2zM78 42c80 0 141 149 181 251l22 57c0 53 -27 81 -63 81c-93 -2 -175 -218 -177 -317c-2 -41 0 -72 37 -72zM-4 -240
c54 1 100 54 133 155c-19 -4 -37 -8 -55 -11c-92 -16 -131 -42 -135 -88c0 -35 23 -57 57 -56z" />
    <glyph glyph-name="gbreve" unicode="&#x11f;" horiz-adv-x="413" 
d="M407 643c-30 -72 -76 -110 -134 -110c-72 0 -122 53 -101 124c3 9 11 16 21 16c14 0 23 -14 20 -27c-13 -46 17 -71 57 -71s74 29 98 85c3 8 11 13 19 13c13 0 26 -15 20 -30zM458 237c8 -4 13 -11 13 -19c0 -3 -1 -6 -2 -9c-62 -146 -145 -239 -291 -282
c-48 -137 -110 -208 -182 -209c-60 -1 -99 38 -99 97c0 63 49 109 169 131c25 4 52 9 79 16l30 86c-27 -28 -59 -48 -95 -48c-66 0 -82 51 -82 115c5 132 100 358 219 358c45 0 75 -21 92 -55l16 41c3 9 11 14 19 14c14 0 27 -11 21 -29c-16 -39 -43 -111 -75 -196l-53 -149
l-42 -122c115 39 185 131 235 249c4 8 11 13 19 13c3 0 6 -1 9 -2zM78 42c80 0 141 149 181 251l22 57c0 53 -27 81 -63 81c-93 -2 -175 -218 -177 -317c-2 -41 0 -72 37 -72zM-4 -240c54 1 100 54 133 155c-19 -4 -37 -8 -55 -11c-92 -16 -131 -42 -135 -88
c0 -35 23 -57 57 -56z" />
    <glyph glyph-name="gcommaaccent" unicode="&#x123;" horiz-adv-x="384" 
d="M239 553c1 5 2 10 5 14l36 57c5 9 12 11 20 7c8 -3 10 -12 5 -20l-17 -31c14 -6 21 -19 20 -34c-2 -19 -18 -33 -37 -31s-34 19 -32 38zM458 237c8 -4 13 -11 13 -19c0 -3 -1 -6 -2 -9c-62 -146 -145 -239 -291 -282c-48 -137 -110 -208 -182 -209c-60 -1 -99 38 -99 97
c0 63 49 109 169 131c25 4 52 9 79 16l30 86c-27 -28 -59 -48 -95 -48c-66 0 -82 51 -82 115c5 132 100 358 219 358c45 0 75 -21 92 -55l16 41c3 9 11 14 19 14c14 0 27 -11 21 -29c-16 -39 -43 -111 -75 -196l-53 -149l-42 -122c115 39 185 131 235 249c4 8 11 13 19 13
c3 0 6 -1 9 -2zM78 42c80 0 141 149 181 251l22 57c0 53 -27 81 -63 81c-93 -2 -175 -218 -177 -317c-2 -41 0 -72 37 -72zM-4 -240c54 1 100 54 133 155c-19 -4 -37 -8 -55 -11c-92 -16 -131 -42 -135 -88c0 -35 23 -57 57 -56z" />
    <glyph glyph-name="gdotaccent" unicode="&#x121;" horiz-adv-x="413" 
d="M255 533c-21 0 -38 16 -38 37c0 20 17 37 38 37s37 -17 37 -37c0 -21 -16 -37 -37 -37zM458 237c8 -4 13 -11 13 -19c0 -3 -1 -6 -2 -9c-62 -146 -145 -239 -291 -282c-48 -137 -110 -208 -182 -209c-60 -1 -99 38 -99 97c0 63 49 109 169 131c25 4 52 9 79 16l30 86
c-27 -28 -59 -48 -95 -48c-66 0 -82 51 -82 115c5 132 100 358 219 358c45 0 75 -21 92 -55l16 41c3 9 11 14 19 14c14 0 27 -11 21 -29c-16 -39 -43 -111 -75 -196l-53 -149l-42 -122c115 39 185 131 235 249c4 8 11 13 19 13c3 0 6 -1 9 -2zM78 42c80 0 141 149 181 251
l22 57c0 53 -27 81 -63 81c-93 -2 -175 -218 -177 -317c-2 -41 0 -72 37 -72zM-4 -240c54 1 100 54 133 155c-19 -4 -37 -8 -55 -11c-92 -16 -131 -42 -135 -88c0 -35 23 -57 57 -56z" />
    <glyph glyph-name="h" unicode="h" horiz-adv-x="399" 
d="M444 238c8 -4 13 -11 13 -20c0 -2 -1 -5 -2 -8c-68 -151 -115 -210 -183 -210c-49 0 -72 35 -72 84c0 92 78 220 78 297c0 29 -13 52 -52 52c-25 0 -53 -23 -79 -55c-63 -80 -72 -119 -161 -363c-4 -12 -16 -17 -27 -14c-11 4 -17 16 -13 27c95 264 181 502 214 599
c3 8 11 13 20 13c15 0 25 -15 20 -28l-65 -184c29 29 59 47 91 47c71 0 94 -41 94 -94c0 -76 -78 -225 -78 -297c0 -29 9 -42 30 -42c48 0 87 56 144 185c4 8 11 13 19 13c3 0 6 -1 9 -2z" />
    <glyph glyph-name="hbar" unicode="&#x127;" horiz-adv-x="399" 
d="M444 238c8 -4 13 -11 13 -20c0 -2 -1 -5 -2 -8c-68 -151 -115 -210 -183 -210c-49 0 -72 35 -72 84c0 92 78 220 78 297c0 29 -13 52 -52 52c-25 0 -53 -23 -79 -55c-63 -80 -72 -119 -161 -363c-4 -12 -16 -17 -27 -14c-11 4 -17 16 -13 27l174 484h-33
c-13 0 -21 9 -21 21c1 12 9 21 22 21h47c10 29 18 54 25 73c3 8 11 13 20 13c15 0 25 -15 20 -28l-20 -58h71c13 0 21 -9 22 -22c0 -11 -8 -20 -21 -20h-87l-30 -84c29 29 59 47 91 47c71 0 94 -41 94 -94c0 -76 -78 -225 -78 -297c0 -29 9 -42 30 -42c48 0 87 56 144 185
c4 8 11 13 19 13c3 0 6 -1 9 -2z" />
    <glyph glyph-name="i" unicode="i" horiz-adv-x="184" 
d="M163 524c-19 0 -35 15 -35 34s16 34 35 34s34 -15 34 -34s-15 -34 -34 -34zM229 238c8 -3 13 -11 13 -19c0 -3 -1 -6 -2 -9c-48 -108 -100 -210 -184 -210c-48 0 -74 38 -72 84c3 78 74 261 118 375c3 9 11 14 19 14c13 0 26 -10 20 -27c-97 -273 -115 -319 -115 -362
c0 -29 9 -42 30 -42c62 0 108 103 145 185c4 8 12 13 20 13c3 0 5 -1 8 -2z" />
    <glyph glyph-name="dotlessi" unicode="&#x131;" horiz-adv-x="184" 
d="M229 238c8 -3 13 -11 13 -19c0 -3 -1 -6 -2 -9c-48 -108 -100 -210 -184 -210c-48 0 -74 38 -72 84c3 78 74 261 118 375c3 9 11 14 19 14c13 0 26 -10 20 -27c-97 -273 -115 -319 -115 -362c0 -29 9 -42 30 -42c62 0 108 103 145 185c4 8 12 13 20 13c3 0 5 -1 8 -2z
" />
    <glyph glyph-name="iacute" unicode="&#xed;" horiz-adv-x="184" 
d="M108 574l135 93c10 7 24 3 30 -7s4 -24 -7 -31l-138 -91c-11 -6 -22 -2 -28 7c-4 10 -2 22 8 29zM229 238c8 -3 13 -11 13 -19c0 -3 -1 -6 -2 -9c-48 -108 -100 -210 -184 -210c-48 0 -74 38 -72 84c3 78 74 261 118 375c3 9 11 14 19 14c13 0 26 -10 20 -27
c-97 -273 -115 -319 -115 -362c0 -29 9 -42 30 -42c62 0 108 103 145 185c4 8 12 13 20 13c3 0 5 -1 8 -2z" />
    <glyph glyph-name="icircumflex" unicode="&#xee;" horiz-adv-x="184" 
d="M228 558c5 -27 -33 -34 -38 -4l-11 65l-79 -74c-9 -9 -20 -5 -26 2c-6 9 -6 20 3 28l96 92c13 12 34 6 36 -5zM229 238c8 -3 13 -11 13 -19c0 -3 -1 -6 -2 -9c-48 -108 -100 -210 -184 -210c-48 0 -74 38 -72 84c3 78 74 261 118 375c3 9 11 14 19 14c13 0 26 -10 20 -27
c-97 -273 -115 -319 -115 -362c0 -29 9 -42 30 -42c62 0 108 103 145 185c4 8 12 13 20 13c3 0 5 -1 8 -2z" />
    <glyph glyph-name="idieresis" unicode="&#xef;" horiz-adv-x="184" 
d="M92 602c19 0 35 -16 35 -35s-16 -34 -35 -34s-34 15 -34 34s15 35 34 35zM202 602c19 0 35 -16 35 -35s-16 -34 -35 -34s-34 15 -34 34s15 35 34 35zM229 238c8 -3 13 -11 13 -19c0 -3 -1 -6 -2 -9c-48 -108 -100 -210 -184 -210c-48 0 -74 38 -72 84
c3 78 74 261 118 375c3 9 11 14 19 14c13 0 26 -10 20 -27c-97 -273 -115 -319 -115 -362c0 -29 9 -42 30 -42c62 0 108 103 145 185c4 8 12 13 20 13c3 0 5 -1 8 -2z" />
    <glyph glyph-name="i.loclTRK" horiz-adv-x="184" 
d="M146 533c-21 0 -38 16 -38 37c0 20 17 37 38 37s37 -17 37 -37c0 -21 -16 -37 -37 -37zM229 238c8 -3 13 -11 13 -19c0 -3 -1 -6 -2 -9c-48 -108 -100 -210 -184 -210c-48 0 -74 38 -72 84c3 78 74 261 118 375c3 9 11 14 19 14c13 0 26 -10 20 -27
c-97 -273 -115 -319 -115 -362c0 -29 9 -42 30 -42c62 0 108 103 145 185c4 8 12 13 20 13c3 0 5 -1 8 -2z" />
    <glyph glyph-name="igrave" unicode="&#xec;" horiz-adv-x="184" 
d="M209 567c9 -8 9 -19 3 -28c-6 -7 -17 -10 -26 -2l-110 97c-10 9 -10 22 -3 32c8 8 21 11 31 2zM229 238c8 -3 13 -11 13 -19c0 -3 -1 -6 -2 -9c-48 -108 -100 -210 -184 -210c-48 0 -74 38 -72 84c3 78 74 261 118 375c3 9 11 14 19 14c13 0 26 -10 20 -27
c-97 -273 -115 -319 -115 -362c0 -29 9 -42 30 -42c62 0 108 103 145 185c4 8 12 13 20 13c3 0 5 -1 8 -2z" />
    <glyph glyph-name="ij" unicode="&#x133;" horiz-adv-x="375" 
d="M163 524c-19 0 -35 15 -35 34s16 34 35 34s34 -15 34 -34s-15 -34 -34 -34zM347 524c-19 0 -35 15 -35 34s16 34 35 34s34 -15 34 -34s-15 -34 -34 -34zM420 237c8 -4 13 -11 13 -19c0 -3 -1 -6 -2 -9c-62 -146 -145 -239 -291 -282c-48 -137 -110 -208 -182 -209
c-60 -1 -99 38 -99 97c0 63 49 109 169 131c25 4 52 9 79 16l24 69c-22 -20 -47 -31 -75 -31c-48 0 -74 38 -72 84c3 78 74 261 118 375c3 9 11 14 19 14c13 0 26 -10 20 -27c-97 -273 -115 -319 -115 -362c0 -29 9 -42 30 -42c59 0 104 94 140 173l90 242c4 10 13 16 21 16
c13 0 25 -14 19 -30c-67 -180 -45 -116 -84 -227c-1 -2 -1 -4 -2 -6s-2 -4 -2 -5l-81 -228c115 39 185 131 235 249c4 8 11 13 19 13c3 0 6 -1 9 -2zM-42 -240c54 1 100 54 133 155c-19 -4 -37 -8 -55 -11c-92 -16 -131 -42 -135 -88c0 -35 23 -57 57 -56z" />
    <glyph glyph-name="imacron" unicode="&#x12b;" horiz-adv-x="184" 
d="M243 588c13 0 21 -9 22 -21c0 -11 -8 -21 -21 -21h-195c-13 0 -21 10 -21 21c1 12 9 21 22 21h193zM229 238c8 -3 13 -11 13 -19c0 -3 -1 -6 -2 -9c-48 -108 -100 -210 -184 -210c-48 0 -74 38 -72 84c3 78 74 261 118 375c3 9 11 14 19 14c13 0 26 -10 20 -27
c-97 -273 -115 -319 -115 -362c0 -29 9 -42 30 -42c62 0 108 103 145 185c4 8 12 13 20 13c3 0 5 -1 8 -2z" />
    <glyph glyph-name="iogonek" unicode="&#x12f;" horiz-adv-x="184" 
d="M146 533c-21 0 -38 16 -38 37c0 20 17 37 38 37s37 -17 37 -37c0 -21 -16 -37 -37 -37zM229 238c8 -3 13 -11 13 -19c0 -3 -1 -6 -2 -9c-33 -75 -69 -147 -115 -184c-92 -80 -116 -109 -116 -141c0 -21 14 -35 36 -35c26 0 38 4 60 16c25 14 42 -21 17 -35
c-30 -17 -47 -23 -74 -23c-49 0 -81 29 -81 72c0 41 31 82 75 121c-39 7 -60 42 -58 83c3 78 74 261 118 375c3 9 11 14 19 14c13 0 26 -10 20 -27c-97 -273 -115 -319 -115 -362c0 -29 9 -42 30 -42c62 0 108 103 145 185c4 8 12 13 20 13c3 0 5 -1 8 -2z" />
    <glyph glyph-name="j" unicode="j" horiz-adv-x="191" 
d="M163 524c-19 0 -35 15 -35 34s16 34 35 34s34 -15 34 -34s-15 -34 -34 -34zM236 237c8 -4 13 -11 13 -19c0 -3 -1 -6 -2 -9c-62 -146 -145 -239 -291 -282c-48 -137 -110 -208 -182 -209c-60 -1 -99 38 -99 97c0 63 49 109 169 131c25 4 52 9 79 16l179 495
c4 10 13 16 21 16c13 0 25 -14 19 -30l-169 -466c115 39 185 131 235 249c4 8 11 13 19 13c3 0 6 -1 9 -2zM-226 -240c54 1 100 54 133 155c-19 -4 -37 -8 -55 -11c-92 -16 -131 -42 -135 -88c0 -35 23 -57 57 -56z" />
    <glyph glyph-name="k" unicode="k" horiz-adv-x="395" 
d="M-15 15c-4 -10 -16 -17 -27 -14c-11 4 -17 16 -13 27l214 599c3 8 11 13 19 13c16 0 26 -15 21 -28zM440 238c8 -3 13 -11 13 -19c0 -3 -1 -6 -2 -9c-48 -107 -101 -210 -184 -210c-46 0 -74 38 -74 76c0 22 3 44 6 67c3 20 6 41 5 59c-1 26 -10 45 -44 45
c-29 0 -44 -30 -63 -30c-22 0 -27 22 -12 37c13 13 105 94 238 216c6 5 9 5 14 5c15 0 22 -13 22 -21c0 -6 -3 -11 -7 -15l-167 -152c47 -8 60 -42 61 -85c0 -23 -11 -100 -11 -123c0 -18 11 -37 32 -37c59 0 107 99 145 185c4 8 11 13 19 13c3 0 6 -1 9 -2z" />
    <glyph glyph-name="kcommaaccent" unicode="&#x137;" horiz-adv-x="395" 
d="M-15 15c-4 -10 -16 -17 -27 -14c-11 4 -17 16 -13 27l214 599c3 8 11 13 19 13c16 0 26 -15 21 -28zM440 238c8 -3 13 -11 13 -19c0 -3 -1 -6 -2 -9c-48 -107 -101 -210 -184 -210c-46 0 -74 38 -74 76c0 22 3 44 6 67c3 20 6 41 5 59c-1 26 -10 45 -44 45
c-29 0 -44 -30 -63 -30c-22 0 -27 22 -12 37c13 13 105 94 238 216c6 5 9 5 14 5c15 0 22 -13 22 -21c0 -6 -3 -11 -7 -15l-167 -152c47 -8 60 -42 61 -85c0 -23 -11 -100 -11 -123c0 -18 11 -37 32 -37c59 0 107 99 145 185c4 8 11 13 19 13c3 0 6 -1 9 -2zM123 -61
c-1 -5 -2 -10 -5 -14l-36 -57c-5 -9 -12 -11 -20 -7c-8 3 -10 12 -5 20l17 31c-14 6 -21 19 -20 34c2 19 18 33 37 31s34 -19 32 -38z" />
    <glyph glyph-name="l" unicode="l" horiz-adv-x="206" 
d="M252 238c7 -4 12 -11 12 -19c0 -3 -1 -6 -2 -9c-58 -125 -114 -210 -206 -210c-48 0 -74 36 -74 84c0 29 10 65 35 144l86 246l52 152c4 11 16 16 27 13c11 -4 17 -16 13 -27l-52 -152l-86 -245c-22 -68 -33 -113 -33 -131c0 -27 12 -42 32 -42c72 0 120 83 167 186
c4 7 12 12 20 12c3 0 6 -1 9 -2z" />
    <glyph glyph-name="lacute" unicode="&#x13a;" horiz-adv-x="206" 
d="M154 720l135 93c10 7 24 3 30 -7s4 -24 -7 -31l-138 -91c-11 -6 -22 -2 -28 7c-4 10 -2 22 8 29zM252 238c7 -4 12 -11 12 -19c0 -3 -1 -6 -2 -9c-58 -125 -114 -210 -206 -210c-48 0 -74 36 -74 84c0 29 10 65 35 144l86 246l52 152c4 11 16 16 27 13
c11 -4 17 -16 13 -27l-52 -152l-86 -245c-22 -68 -33 -113 -33 -131c0 -27 12 -42 32 -42c72 0 120 83 167 186c4 7 12 12 20 12c3 0 6 -1 9 -2z" />
    <glyph glyph-name="lcaron" unicode="&#x13e;" horiz-adv-x="206" 
d="M308 602c-1 -5 -2 -10 -5 -14l-36 -57c-5 -9 -12 -11 -20 -7c-8 3 -10 12 -5 20l17 31c-14 6 -21 19 -20 34c2 19 18 33 37 31s34 -19 32 -38zM252 238c7 -4 12 -11 12 -19c0 -3 -1 -6 -2 -9c-58 -125 -114 -210 -206 -210c-48 0 -74 36 -74 84c0 29 10 65 35 144l86 246
l52 152c4 11 16 16 27 13c11 -4 17 -16 13 -27l-52 -152l-86 -245c-22 -68 -33 -113 -33 -131c0 -27 12 -42 32 -42c72 0 120 83 167 186c4 7 12 12 20 12c3 0 6 -1 9 -2z" />
    <glyph glyph-name="lcommaaccent" unicode="&#x13c;" horiz-adv-x="206" 
d="M252 238c7 -4 12 -11 12 -19c0 -3 -1 -6 -2 -9c-58 -125 -114 -210 -206 -210c-48 0 -74 36 -74 84c0 29 10 65 35 144l86 246l52 152c4 11 16 16 27 13c11 -4 17 -16 13 -27l-52 -152l-86 -245c-22 -68 -33 -113 -33 -131c0 -27 12 -42 32 -42c72 0 120 83 167 186
c4 7 12 12 20 12c3 0 6 -1 9 -2zM55 -86c-1 -5 -2 -10 -5 -14l-36 -57c-5 -9 -12 -11 -20 -7c-8 3 -10 12 -5 20l17 31c-14 6 -21 19 -20 34c2 19 18 33 37 31s34 -19 32 -38z" />
    <glyph glyph-name="lslash" unicode="&#x142;" horiz-adv-x="206" 
d="M317 758c12 3 23 -3 26 -14s-2 -23 -14 -26l-251 -68c-13 -3 -24 4 -26 15c-2 12 3 22 15 26zM252 238c7 -4 12 -11 12 -19c0 -3 -1 -6 -2 -9c-58 -125 -114 -210 -206 -210c-48 0 -74 36 -74 84c0 29 10 65 35 144l86 246l52 152c4 11 16 16 27 13c11 -4 17 -16 13 -27
l-52 -152l-86 -245c-22 -68 -33 -113 -33 -131c0 -27 12 -42 32 -42c72 0 120 83 167 186c4 7 12 12 20 12c3 0 6 -1 9 -2z" />
    <glyph glyph-name="m" unicode="m" horiz-adv-x="617" 
d="M675 219c0 -3 -1 -5 -3 -12c-37 -84 -92 -207 -181 -207c-49 0 -73 35 -73 84c0 91 78 215 78 297c0 29 -12 52 -52 52c-58 0 -136 -131 -165 -212c-2 -6 -69 -202 -68 -200c-3 -9 -11 -14 -20 -14c-15 0 -25 15 -20 28c1 3 67 199 68 201c21 61 36 106 36 141
c0 37 -14 56 -50 56c-28 0 -58 -32 -87 -73c-18 -27 -78 -137 -84 -153l-68 -193c-4 -12 -16 -17 -27 -14c-11 4 -17 16 -13 27l154 432c3 9 11 14 20 14c15 0 25 -15 20 -28c-4 -9 -7 -17 -10 -27c29 34 61 57 95 57c60 0 92 -39 92 -92c29 46 80 92 127 92
c72 0 94 -41 94 -94c0 -96 -77 -211 -77 -297c0 -29 9 -42 30 -42c49 0 89 59 143 185c3 8 12 13 20 13c10 0 21 -10 21 -21z" />
    <glyph glyph-name="n" unicode="n" horiz-adv-x="399" 
d="M444 238c8 -4 13 -11 13 -19c0 -3 -1 -6 -2 -9c-68 -151 -115 -210 -183 -210c-48 0 -72 35 -72 84c0 94 78 210 78 297c0 29 -13 52 -52 52c-61 0 -137 -135 -169 -220l-70 -198c-4 -12 -16 -17 -27 -14c-11 4 -17 15 -13 27l154 432c3 9 11 14 20 14
c15 0 25 -15 20 -28l-8 -20c29 30 60 49 93 49c72 0 94 -41 94 -94c0 -89 -78 -220 -78 -297c0 -29 9 -42 30 -42c47 0 83 53 144 185c4 8 11 13 19 13c3 0 6 -1 9 -2z" />
    <glyph glyph-name="nacute" unicode="&#x144;" horiz-adv-x="399" 
d="M226 576l135 93c10 7 24 3 30 -7s4 -24 -7 -31l-138 -91c-11 -6 -22 -2 -28 7c-4 10 -2 22 8 29zM444 238c8 -4 13 -11 13 -19c0 -3 -1 -6 -2 -9c-68 -151 -115 -210 -183 -210c-48 0 -72 35 -72 84c0 94 78 210 78 297c0 29 -13 52 -52 52c-61 0 -137 -135 -169 -220
l-70 -198c-4 -12 -16 -17 -27 -14c-11 4 -17 15 -13 27l154 432c3 9 11 14 20 14c15 0 25 -15 20 -28l-8 -20c29 30 60 49 93 49c72 0 94 -41 94 -94c0 -89 -78 -220 -78 -297c0 -29 9 -42 30 -42c47 0 83 53 144 185c4 8 11 13 19 13c3 0 6 -1 9 -2z" />
    <glyph glyph-name="ncaron" unicode="&#x148;" horiz-adv-x="399" 
d="M205 640c-5 11 0 20 8 25s21 1 26 -9l32 -67l100 74c10 8 20 5 26 -2c6 -9 6 -20 -3 -28l-115 -92c-14 -12 -32 -6 -36 5zM444 238c8 -4 13 -11 13 -19c0 -3 -1 -6 -2 -9c-68 -151 -115 -210 -183 -210c-48 0 -72 35 -72 84c0 94 78 210 78 297c0 29 -13 52 -52 52
c-61 0 -137 -135 -169 -220l-70 -198c-4 -12 -16 -17 -27 -14c-11 4 -17 15 -13 27l154 432c3 9 11 14 20 14c15 0 25 -15 20 -28l-8 -20c29 30 60 49 93 49c72 0 94 -41 94 -94c0 -89 -78 -220 -78 -297c0 -29 9 -42 30 -42c47 0 83 53 144 185c4 8 11 13 19 13
c3 0 6 -1 9 -2z" />
    <glyph glyph-name="ncommaaccent" unicode="&#x146;" horiz-adv-x="399" 
d="M444 238c8 -4 13 -11 13 -19c0 -3 -1 -6 -2 -9c-68 -151 -115 -210 -183 -210c-48 0 -72 35 -72 84c0 94 78 210 78 297c0 29 -13 52 -52 52c-61 0 -137 -135 -169 -220l-70 -198c-4 -12 -16 -17 -27 -14c-11 4 -17 15 -13 27l154 432c3 9 11 14 20 14
c15 0 25 -15 20 -28l-8 -20c29 30 60 49 93 49c72 0 94 -41 94 -94c0 -89 -78 -220 -78 -297c0 -29 9 -42 30 -42c47 0 83 53 144 185c4 8 11 13 19 13c3 0 6 -1 9 -2zM139 -78c-1 -5 -2 -10 -5 -14l-36 -57c-5 -9 -12 -11 -20 -7c-8 3 -10 12 -5 20l17 31
c-14 6 -21 19 -20 34c2 19 18 33 37 31s34 -19 32 -38z" />
    <glyph glyph-name="eng" unicode="&#x14b;" horiz-adv-x="390" 
d="M435 239c11 -4 16 -17 12 -27c-63 -145 -131 -245 -272 -283l-12 -35c-35 -100 -67 -171 -154 -175c-71 0 -119 38 -119 98c0 65 60 110 174 131c25 5 51 9 78 16c54 156 136 355 136 417c0 29 -13 52 -52 52c-61 0 -137 -135 -169 -220l-70 -198c-4 -12 -16 -17 -27 -14
c-11 4 -17 15 -13 27l154 432c3 9 11 14 20 14c15 0 25 -15 20 -28l-8 -20c29 30 60 49 93 49c72 0 94 -41 94 -94c0 -50 -70 -241 -128 -402c121 52 162 122 216 249c3 8 11 13 19 13c3 0 5 -1 8 -2zM123 -93l3 10c-19 -4 -37 -7 -55 -11c-91 -15 -139 -46 -139 -88
c0 -39 33 -57 76 -57c64 2 88 69 115 146z" />
    <glyph glyph-name="ntilde" unicode="&#xf1;" horiz-adv-x="399" 
d="M402 616c0 -5 -2 -10 -4 -13c-15 -23 -46 -41 -73 -41c-23 0 -46 11 -62 30c-9 11 -19 16 -30 16c-14 0 -28 -8 -36 -19c-6 -8 -14 -14 -20 -14c-13 0 -21 8 -21 21c0 3 2 9 6 15c14 23 44 39 71 39c23 0 46 -11 62 -30c9 -11 19 -16 30 -16c14 0 30 10 37 22
c4 7 11 11 19 11c12 0 21 -9 21 -21zM444 238c8 -4 13 -11 13 -19c0 -3 -1 -6 -2 -9c-68 -151 -115 -210 -183 -210c-48 0 -72 35 -72 84c0 94 78 210 78 297c0 29 -13 52 -52 52c-61 0 -137 -135 -169 -220l-70 -198c-4 -12 -16 -17 -27 -14c-11 4 -17 15 -13 27l154 432
c3 9 11 14 20 14c15 0 25 -15 20 -28l-8 -20c29 30 60 49 93 49c72 0 94 -41 94 -94c0 -89 -78 -220 -78 -297c0 -29 9 -42 30 -42c47 0 83 53 144 185c4 8 11 13 19 13c3 0 6 -1 9 -2z" />
    <glyph glyph-name="o" unicode="o" horiz-adv-x="391" 
d="M447 211c-44 -101 -91 -147 -151 -147c-28 0 -54 9 -76 27c-37 -50 -88 -91 -136 -91c-65 0 -87 43 -87 101c0 116 52 213 85 267c42 70 91 105 141 105c66 -2 100 -47 100 -107c0 -63 -32 -161 -78 -239c11 -14 28 -21 51 -21c42 0 77 38 112 121c3 8 11 13 19 13
c15 0 26 -15 20 -29zM215 240c14 0 24 -13 20 -27c-3 -8 -3 -16 -4 -23c31 62 50 131 50 177c0 42 -25 64 -59 64c-38 0 -74 -35 -103 -85c-26 -43 -79 -140 -79 -243c0 -36 12 -61 44 -61c37 0 79 40 112 87c-11 26 -9 70 -2 95c2 10 11 16 21 16z" />
    <glyph glyph-name="oacute" unicode="&#xf3;" horiz-adv-x="391" 
d="M223 574l135 93c10 7 24 3 30 -7s4 -24 -7 -31l-138 -91c-11 -6 -22 -2 -28 7c-4 10 -2 22 8 29zM447 211c-44 -101 -91 -147 -151 -147c-28 0 -54 9 -76 27c-37 -50 -88 -91 -136 -91c-65 0 -87 43 -87 101c0 116 52 213 85 267c42 70 91 105 141 105
c66 -2 100 -47 100 -107c0 -63 -32 -161 -78 -239c11 -14 28 -21 51 -21c42 0 77 38 112 121c3 8 11 13 19 13c15 0 26 -15 20 -29zM215 240c14 0 24 -13 20 -27c-3 -8 -3 -16 -4 -23c31 62 50 131 50 177c0 42 -25 64 -59 64c-38 0 -74 -35 -103 -85
c-26 -43 -79 -140 -79 -243c0 -36 12 -61 44 -61c37 0 79 40 112 87c-11 26 -9 70 -2 95c2 10 11 16 21 16z" />
    <glyph glyph-name="ocircumflex" unicode="&#xf4;" horiz-adv-x="391" 
d="M373 551c6 -11 0 -22 -8 -25c-6 -2 -18 -1 -25 9l-50 75l-103 -73c-10 -7 -20 -5 -26 2c-6 9 -6 21 3 28l117 91c14 11 30 6 36 -5zM447 211c-44 -101 -91 -147 -151 -147c-28 0 -54 9 -76 27c-37 -50 -88 -91 -136 -91c-65 0 -87 43 -87 101c0 116 52 213 85 267
c42 70 91 105 141 105c66 -2 100 -47 100 -107c0 -63 -32 -161 -78 -239c11 -14 28 -21 51 -21c42 0 77 38 112 121c3 8 11 13 19 13c15 0 26 -15 20 -29zM215 240c14 0 24 -13 20 -27c-3 -8 -3 -16 -4 -23c31 62 50 131 50 177c0 42 -25 64 -59 64c-38 0 -74 -35 -103 -85
c-26 -43 -79 -140 -79 -243c0 -36 12 -61 44 -61c37 0 79 40 112 87c-11 26 -9 70 -2 95c2 10 11 16 21 16z" />
    <glyph glyph-name="odieresis" unicode="&#xf6;" horiz-adv-x="391" 
d="M207 602c19 0 35 -16 35 -35s-16 -34 -35 -34s-34 15 -34 34s15 35 34 35zM317 602c19 0 35 -16 35 -35s-16 -34 -35 -34s-34 15 -34 34s15 35 34 35zM447 211c-44 -101 -91 -147 -151 -147c-28 0 -54 9 -76 27c-37 -50 -88 -91 -136 -91c-65 0 -87 43 -87 101
c0 116 52 213 85 267c42 70 91 105 141 105c66 -2 100 -47 100 -107c0 -63 -32 -161 -78 -239c11 -14 28 -21 51 -21c42 0 77 38 112 121c3 8 11 13 19 13c15 0 26 -15 20 -29zM215 240c14 0 24 -13 20 -27c-3 -8 -3 -16 -4 -23c31 62 50 131 50 177c0 42 -25 64 -59 64
c-38 0 -74 -35 -103 -85c-26 -43 -79 -140 -79 -243c0 -36 12 -61 44 -61c37 0 79 40 112 87c-11 26 -9 70 -2 95c2 10 11 16 21 16z" />
    <glyph glyph-name="ograve" unicode="&#xf2;" horiz-adv-x="391" 
d="M324 567c9 -8 9 -19 3 -28c-6 -7 -17 -10 -26 -2l-110 97c-10 9 -10 22 -3 32c8 8 21 11 31 2zM447 211c-44 -101 -91 -147 -151 -147c-28 0 -54 9 -76 27c-37 -50 -88 -91 -136 -91c-65 0 -87 43 -87 101c0 116 52 213 85 267c42 70 91 105 141 105
c66 -2 100 -47 100 -107c0 -63 -32 -161 -78 -239c11 -14 28 -21 51 -21c42 0 77 38 112 121c3 8 11 13 19 13c15 0 26 -15 20 -29zM215 240c14 0 24 -13 20 -27c-3 -8 -3 -16 -4 -23c31 62 50 131 50 177c0 42 -25 64 -59 64c-38 0 -74 -35 -103 -85
c-26 -43 -79 -140 -79 -243c0 -36 12 -61 44 -61c37 0 79 40 112 87c-11 26 -9 70 -2 95c2 10 11 16 21 16z" />
    <glyph glyph-name="ohungarumlaut" unicode="&#x151;" horiz-adv-x="391" 
d="M190 567l98 93c10 9 23 6 31 -2c7 -10 7 -23 -3 -32l-103 -89c-9 -8 -20 -5 -26 2c-6 9 -6 20 3 28zM300 567l98 93c10 9 23 6 31 -2c7 -10 7 -23 -3 -32l-103 -89c-9 -8 -20 -5 -26 2c-6 9 -6 20 3 28zM447 211c-44 -101 -91 -147 -151 -147c-28 0 -54 9 -76 27
c-37 -50 -88 -91 -136 -91c-65 0 -87 43 -87 101c0 116 52 213 85 267c42 70 91 105 141 105c66 -2 100 -47 100 -107c0 -63 -32 -161 -78 -239c11 -14 28 -21 51 -21c42 0 77 38 112 121c3 8 11 13 19 13c15 0 26 -15 20 -29zM215 240c14 0 24 -13 20 -27
c-3 -8 -3 -16 -4 -23c31 62 50 131 50 177c0 42 -25 64 -59 64c-38 0 -74 -35 -103 -85c-26 -43 -79 -140 -79 -243c0 -36 12 -61 44 -61c37 0 79 40 112 87c-11 26 -9 70 -2 95c2 10 11 16 21 16z" />
    <glyph glyph-name="omacron" unicode="&#x14d;" horiz-adv-x="391" 
d="M358 588c13 0 21 -9 22 -21c0 -11 -8 -21 -21 -21h-195c-13 0 -21 10 -21 21c1 12 9 21 22 21h193zM447 211c-44 -101 -91 -147 -151 -147c-28 0 -54 9 -76 27c-37 -50 -88 -91 -136 -91c-65 0 -87 43 -87 101c0 116 52 213 85 267c42 70 91 105 141 105
c66 -2 100 -47 100 -107c0 -63 -32 -161 -78 -239c11 -14 28 -21 51 -21c42 0 77 38 112 121c3 8 11 13 19 13c15 0 26 -15 20 -29zM215 240c14 0 24 -13 20 -27c-3 -8 -3 -16 -4 -23c31 62 50 131 50 177c0 42 -25 64 -59 64c-38 0 -74 -35 -103 -85
c-26 -43 -79 -140 -79 -243c0 -36 12 -61 44 -61c37 0 79 40 112 87c-11 26 -9 70 -2 95c2 10 11 16 21 16z" />
    <glyph glyph-name="oslash" unicode="&#xf8;" horiz-adv-x="391" 
d="M427 240c15 0 26 -15 20 -29c-44 -101 -91 -147 -151 -147c-28 0 -54 9 -76 27c-37 -50 -88 -91 -136 -91c-7 0 -13 0 -19 1l-15 -38c-11 -28 -46 -10 -35 17c5 12 9 24 14 36c-23 17 -32 48 -32 85c0 116 52 213 85 267c42 70 91 105 141 105c12 0 22 -2 32 -5
c10 16 19 32 29 46c18 27 48 3 30 -24l-26 -40c23 -19 35 -49 35 -84c0 -63 -32 -161 -78 -239c11 -14 28 -21 51 -21c42 0 77 38 112 121c3 8 11 13 19 13zM40 103c0 -17 3 -31 8 -41c56 130 123 264 184 368c-3 1 -7 1 -10 1c-38 0 -74 -35 -103 -85
c-26 -43 -79 -140 -79 -243zM215 240c14 0 24 -13 20 -27c-3 -8 -3 -16 -4 -23c31 62 50 131 50 177c0 20 -6 35 -15 46c-60 -103 -127 -237 -184 -371h2c37 0 79 40 112 87c-11 26 -9 70 -2 95c2 10 11 16 21 16z" />
    <glyph glyph-name="otilde" unicode="&#xf5;" horiz-adv-x="391" 
d="M399 614c0 -5 -2 -10 -4 -13c-15 -23 -46 -41 -73 -41c-23 0 -46 11 -62 30c-9 11 -19 16 -30 16c-14 0 -28 -8 -36 -19c-6 -8 -14 -14 -20 -14c-13 0 -21 8 -21 21c0 3 2 9 6 15c14 23 44 39 71 39c23 0 46 -11 62 -30c9 -11 19 -16 30 -16c14 0 30 10 37 22
c4 7 11 11 19 11c12 0 21 -9 21 -21zM447 211c-44 -101 -91 -147 -151 -147c-28 0 -54 9 -76 27c-37 -50 -88 -91 -136 -91c-65 0 -87 43 -87 101c0 116 52 213 85 267c42 70 91 105 141 105c66 -2 100 -47 100 -107c0 -63 -32 -161 -78 -239c11 -14 28 -21 51 -21
c42 0 77 38 112 121c3 8 11 13 19 13c15 0 26 -15 20 -29zM215 240c14 0 24 -13 20 -27c-3 -8 -3 -16 -4 -23c31 62 50 131 50 177c0 42 -25 64 -59 64c-38 0 -74 -35 -103 -85c-26 -43 -79 -140 -79 -243c0 -36 12 -61 44 -61c37 0 79 40 112 87c-11 26 -9 70 -2 95
c2 10 11 16 21 16z" />
    <glyph glyph-name="oe" unicode="&#x153;" horiz-adv-x="520" 
d="M565 238c8 -4 13 -12 13 -20c0 -3 -1 -5 -2 -8c-65 -144 -121 -210 -222 -210c-68 0 -105 38 -120 112c-44 -64 -98 -112 -150 -112c-65 0 -87 43 -87 101c0 116 52 213 85 267c42 70 91 105 141 105c61 -2 95 -41 99 -94c39 55 88 94 139 94c50 0 85 -26 85 -74
c0 -103 -145 -154 -256 -181c-9 -29 -14 -58 -15 -82c-2 -57 20 -92 80 -94c82 -2 126 56 182 185c5 10 17 15 28 11zM84 42c91 0 197 215 197 325c0 42 -25 64 -59 64c-38 0 -74 -35 -103 -85c-26 -43 -79 -140 -79 -243c0 -36 12 -61 44 -61zM461 431
c-56 0 -116 -79 -152 -163c83 24 195 61 195 131c0 27 -21 32 -43 32z" />
    <glyph glyph-name="p" unicode="p" horiz-adv-x="380" 
d="M425 238c8 -3 13 -11 13 -19c0 -3 -1 -5 -2 -8c-21 -74 -86 -147 -155 -147c-29 0 -54 11 -69 26c-41 -55 -92 -95 -150 -93c-38 2 -61 15 -72 42c-45 -125 -86 -239 -96 -269c-3 -9 -11 -14 -20 -14c-15 0 -25 15 -20 28l112 313c57 156 115 317 127 348l6 16
c3 9 11 14 20 14c15 0 25 -15 20 -28l-8 -21c28 29 60 49 97 49c63 0 84 -52 84 -114c0 -69 -41 -181 -77 -235c12 -13 29 -20 47 -20c53 0 99 65 115 121c4 8 11 13 19 13c3 0 6 -1 9 -2zM204 240c14 0 24 -13 21 -27c-3 -9 -4 -18 -5 -26c29 61 49 126 49 176
c0 42 -9 70 -39 70c-82 0 -143 -153 -183 -254c-15 -42 -22 -55 -22 -88c0 -35 10 -51 38 -52c46 -1 89 36 123 88c-13 30 -10 69 -2 97c2 10 11 16 20 16z" />
    <glyph glyph-name="thorn" unicode="&#xfe;" horiz-adv-x="380" 
d="M425 238c8 -3 13 -11 13 -19c0 -3 -1 -5 -2 -8c-21 -74 -86 -147 -155 -147c-29 0 -54 11 -69 26c-41 -55 -92 -95 -150 -93c-38 2 -61 15 -72 42c-45 -125 -86 -239 -96 -269c-3 -9 -11 -14 -20 -14c-15 0 -25 15 -20 28l112 313l127 348l65 181c3 9 11 14 20 14
c15 0 25 -15 20 -28l-67 -186c28 29 60 49 97 49c63 0 84 -52 84 -114c0 -69 -41 -181 -77 -235c12 -13 29 -20 47 -20c53 0 99 65 115 121c4 8 11 13 19 13c3 0 6 -1 9 -2zM204 240c14 0 24 -13 21 -27c-3 -9 -4 -18 -5 -26c29 61 49 126 49 176c0 42 -9 70 -39 70
c-82 0 -143 -153 -183 -254c-15 -42 -22 -55 -22 -88c0 -35 10 -51 38 -52c46 -1 89 36 123 88c-13 30 -10 69 -2 97c2 10 11 16 20 16z" />
    <glyph glyph-name="q" unicode="q" horiz-adv-x="404" 
d="M449 237c8 -4 13 -12 13 -20c0 -3 -1 -5 -2 -8c-49 -103 -95 -190 -178 -194c7 -38 11 -72 11 -102c0 -105 -35 -192 -115 -192c-48 2 -72 29 -72 82c0 40 3 51 68 244c-27 -27 -58 -47 -93 -47c-60 0 -83 49 -83 106c0 132 100 367 221 367c42 0 69 -15 90 -51l15 38
c4 11 16 17 27 13c11 -5 16 -17 12 -28c-13 -32 -64 -169 -94 -253c-98 -279 -121 -349 -121 -389c0 -31 12 -40 30 -40c51 0 72 72 72 141c0 35 -3 79 -14 129c-1 3 -2 7 -1 10c2 12 14 18 25 16c6 -1 11 -2 16 -2c64 0 107 87 145 169c4 8 12 13 20 13c3 0 5 -1 8 -2z
M79 42c81 -2 140 150 180 252c6 16 24 57 24 58c-2 52 -23 79 -64 79c-92 -2 -177 -218 -179 -318c0 -44 9 -69 39 -71z" />
    <glyph glyph-name="r" unicode="r" horiz-adv-x="368" 
d="M413 238c8 -4 13 -11 13 -19c0 -3 -1 -6 -2 -9c-65 -149 -115 -210 -183 -210h-1c-47 0 -71 35 -71 84c0 20 3 40 10 65c8 32 52 165 61 187c-76 25 -87 29 -109 40c-4 -12 -11 -26 -91 -201c-4 -8 -11 -12 -18 -12c-4 0 -7 1 -10 2c-7 4 -12 11 -12 19c0 3 1 6 2 9
l80 174l12 30c-30 21 -51 47 -51 84c0 41 29 65 61 65c36 0 58 -26 58 -66c0 -16 -4 -25 -16 -64c28 -14 62 -25 91 -35c14 -4 27 -8 38 -12s16 -17 12 -29c-13 -33 -61 -176 -67 -201c-6 -21 -8 -38 -9 -55c0 -25 8 -42 30 -42c49 0 87 56 144 185c4 8 11 13 19 13
c3 0 6 -1 9 -2zM120 481c0 17 -8 23 -16 23c-13 0 -19 -8 -19 -19c0 -16 9 -34 24 -46c5 14 11 32 11 42z" />
    <glyph glyph-name="racute" unicode="&#x155;" horiz-adv-x="368" 
d="M243 514l135 93c10 7 24 3 30 -7s4 -24 -7 -31l-138 -91c-11 -6 -22 -2 -28 7c-4 10 -2 22 8 29zM413 238c8 -4 13 -11 13 -19c0 -3 -1 -6 -2 -9c-65 -149 -115 -210 -183 -210h-1c-47 0 -71 35 -71 84c0 20 3 40 10 65c8 32 52 165 61 187c-76 25 -87 29 -109 40
c-4 -12 -11 -26 -91 -201c-4 -8 -11 -12 -18 -12c-4 0 -7 1 -10 2c-7 4 -12 11 -12 19c0 3 1 6 2 9l80 174l12 30c-30 21 -51 47 -51 84c0 41 29 65 61 65c36 0 58 -26 58 -66c0 -16 -4 -25 -16 -64c28 -14 62 -25 91 -35c14 -4 27 -8 38 -12s16 -17 12 -29
c-13 -33 -61 -176 -67 -201c-6 -21 -8 -38 -9 -55c0 -25 8 -42 30 -42c49 0 87 56 144 185c4 8 11 13 19 13c3 0 6 -1 9 -2zM120 481c0 17 -8 23 -16 23c-13 0 -19 -8 -19 -19c0 -16 9 -34 24 -46c5 14 11 32 11 42z" />
    <glyph glyph-name="rcaron" unicode="&#x159;" horiz-adv-x="368" 
d="M222 578c-5 11 0 20 8 25s21 1 26 -9l32 -67l100 74c10 8 20 5 26 -2c6 -9 6 -20 -3 -28l-115 -92c-14 -12 -32 -6 -36 5zM413 238c8 -4 13 -11 13 -19c0 -3 -1 -6 -2 -9c-65 -149 -115 -210 -183 -210h-1c-47 0 -71 35 -71 84c0 20 3 40 10 65c8 32 52 165 61 187
c-76 25 -87 29 -109 40c-4 -12 -11 -26 -91 -201c-4 -8 -11 -12 -18 -12c-4 0 -7 1 -10 2c-7 4 -12 11 -12 19c0 3 1 6 2 9l80 174l12 30c-30 21 -51 47 -51 84c0 41 29 65 61 65c36 0 58 -26 58 -66c0 -16 -4 -25 -16 -64c28 -14 62 -25 91 -35c14 -4 27 -8 38 -12
s16 -17 12 -29c-13 -33 -61 -176 -67 -201c-6 -21 -8 -38 -9 -55c0 -25 8 -42 30 -42c49 0 87 56 144 185c4 8 11 13 19 13c3 0 6 -1 9 -2zM120 481c0 17 -8 23 -16 23c-13 0 -19 -8 -19 -19c0 -16 9 -34 24 -46c5 14 11 32 11 42z" />
    <glyph glyph-name="rcommaaccent" unicode="&#x157;" horiz-adv-x="368" 
d="M413 238c8 -4 13 -11 13 -19c0 -3 -1 -6 -2 -9c-65 -149 -115 -210 -183 -210h-1c-47 0 -71 35 -71 84c0 20 3 40 10 65c8 32 52 165 61 187c-76 25 -87 29 -109 40c-4 -12 -11 -26 -91 -201c-4 -8 -11 -12 -18 -12c-4 0 -7 1 -10 2c-7 4 -12 11 -12 19c0 3 1 6 2 9
l80 174l12 30c-30 21 -51 47 -51 84c0 41 29 65 61 65c36 0 58 -26 58 -66c0 -16 -4 -25 -16 -64c28 -14 62 -25 91 -35c14 -4 27 -8 38 -12s16 -17 12 -29c-13 -33 -61 -176 -67 -201c-6 -21 -8 -38 -9 -55c0 -25 8 -42 30 -42c49 0 87 56 144 185c4 8 11 13 19 13
c3 0 6 -1 9 -2zM120 481c0 17 -8 23 -16 23c-13 0 -19 -8 -19 -19c0 -16 9 -34 24 -46c5 14 11 32 11 42zM213 -74c-1 -5 -2 -10 -5 -14l-36 -57c-5 -9 -12 -11 -20 -7c-8 3 -10 12 -5 20l17 31c-14 6 -21 19 -20 34c2 19 18 33 37 31s34 -19 32 -38z" />
    <glyph glyph-name="s" unicode="s" horiz-adv-x="385" 
d="M330 177c-2 -108 -82 -177 -183 -177c-83 0 -151 65 -151 146c6 90 56 149 136 149c52 0 94 -46 96 -101c0 -12 -9 -21 -21 -21s-21 9 -21 21c-2 34 -27 59 -53 59c-55 0 -91 -46 -95 -107c0 -61 51 -104 109 -104c81 0 139 53 141 136c-1 44 -16 73 -69 166
c-7 -7 -14 -15 -20 -23c-4 -5 -10 -8 -16 -8c-5 0 -11 1 -15 5c-5 4 -7 11 -7 17c0 4 2 9 5 13c12 14 22 25 34 37c-9 21 -15 43 -15 66c0 52 32 96 73 96c29 0 46 -23 48 -52c0 -40 -25 -84 -56 -119c52 -96 79 -131 80 -199zM232 420c16 22 31 53 31 75c0 14 -11 11 -21 1
c-12 -12 -15 -30 -15 -44c0 -11 2 -21 5 -32z" />
    <glyph glyph-name="sacute" unicode="&#x15b;" horiz-adv-x="385" 
d="M238 648l135 93c10 7 24 3 30 -7s4 -24 -7 -31l-138 -91c-11 -6 -22 -2 -28 7c-4 10 -2 22 8 29zM330 177c-2 -108 -82 -177 -183 -177c-83 0 -151 65 -151 146c6 90 56 149 136 149c52 0 94 -46 96 -101c0 -12 -9 -21 -21 -21s-21 9 -21 21c-2 34 -27 59 -53 59
c-55 0 -91 -46 -95 -107c0 -61 51 -104 109 -104c81 0 139 53 141 136c-1 44 -16 73 -69 166c-7 -7 -14 -15 -20 -23c-4 -5 -10 -8 -16 -8c-5 0 -11 1 -15 5c-5 4 -7 11 -7 17c0 4 2 9 5 13c12 14 22 25 34 37c-9 21 -15 43 -15 66c0 52 32 96 73 96c29 0 46 -23 48 -52
c0 -40 -25 -84 -56 -119c52 -96 79 -131 80 -199zM232 420c16 22 31 53 31 75c0 14 -11 11 -21 1c-12 -12 -15 -30 -15 -44c0 -11 2 -21 5 -32z" />
    <glyph glyph-name="scaron" unicode="&#x161;" horiz-adv-x="385" 
d="M217 712c-5 11 0 20 8 25s21 1 26 -9l32 -67l100 74c10 8 20 5 26 -2c6 -9 6 -20 -3 -28l-115 -92c-14 -12 -32 -6 -36 5zM330 177c-2 -108 -82 -177 -183 -177c-83 0 -151 65 -151 146c6 90 56 149 136 149c52 0 94 -46 96 -101c0 -12 -9 -21 -21 -21s-21 9 -21 21
c-2 34 -27 59 -53 59c-55 0 -91 -46 -95 -107c0 -61 51 -104 109 -104c81 0 139 53 141 136c-1 44 -16 73 -69 166c-7 -7 -14 -15 -20 -23c-4 -5 -10 -8 -16 -8c-5 0 -11 1 -15 5c-5 4 -7 11 -7 17c0 4 2 9 5 13c12 14 22 25 34 37c-9 21 -15 43 -15 66c0 52 32 96 73 96
c29 0 46 -23 48 -52c0 -40 -25 -84 -56 -119c52 -96 79 -131 80 -199zM232 420c16 22 31 53 31 75c0 14 -11 11 -21 1c-12 -12 -15 -30 -15 -44c0 -11 2 -21 5 -32z" />
    <glyph glyph-name="scedilla" unicode="&#x15f;" horiz-adv-x="385" 
d="M330 177c-2 -108 -82 -177 -183 -177l-20 -45c46 4 72 -23 66 -68c-7 -51 -43 -78 -104 -78c-26 0 -47 8 -65 22c-22 17 4 49 25 33c13 -9 29 -13 46 -13c34 0 53 12 56 36c4 28 -10 38 -43 32c-17 -4 -30 7 -25 19l30 66c-67 15 -117 72 -117 142c6 90 56 149 136 149
c52 0 94 -46 96 -101c0 -12 -9 -21 -21 -21s-21 9 -21 21c-2 34 -27 59 -53 59c-55 0 -91 -46 -95 -107c0 -61 51 -104 109 -104c81 0 139 53 141 136c-1 44 -16 73 -69 166c-7 -7 -14 -15 -20 -23c-4 -5 -10 -8 -16 -8c-5 0 -11 1 -15 5c-5 4 -7 11 -7 17c0 4 2 9 5 13
c12 14 22 25 34 37c-9 21 -15 43 -15 66c0 52 32 96 73 96c29 0 46 -23 48 -52c0 -40 -25 -84 -56 -119c52 -96 79 -131 80 -199zM227 452c0 -11 2 -21 5 -32c16 22 31 53 31 75c0 14 -11 11 -21 1c-12 -12 -15 -30 -15 -44z" />
    <glyph glyph-name="scommaaccent" unicode="&#x219;" horiz-adv-x="385" 
d="M330 177c-2 -108 -82 -177 -183 -177c-83 0 -151 65 -151 146c6 90 56 149 136 149c52 0 94 -46 96 -101c0 -12 -9 -21 -21 -21s-21 9 -21 21c-2 34 -27 59 -53 59c-55 0 -91 -46 -95 -107c0 -61 51 -104 109 -104c81 0 139 53 141 136c-1 44 -16 73 -69 166
c-7 -7 -14 -15 -20 -23c-4 -5 -10 -8 -16 -8c-5 0 -11 1 -15 5c-5 4 -7 11 -7 17c0 4 2 9 5 13c12 14 22 25 34 37c-9 21 -15 43 -15 66c0 52 32 96 73 96c29 0 46 -23 48 -52c0 -40 -25 -84 -56 -119c52 -96 79 -131 80 -199zM232 420c16 22 31 53 31 75c0 14 -11 11 -21 1
c-12 -12 -15 -30 -15 -44c0 -11 2 -21 5 -32zM138 -84c-1 -5 -2 -10 -5 -14l-36 -57c-5 -9 -12 -11 -20 -7c-8 3 -10 12 -5 20l17 31c-14 6 -21 19 -20 34c2 19 18 33 37 31s34 -19 32 -38z" />
    <glyph glyph-name="germandbls" unicode="&#xdf;" horiz-adv-x="357" 
d="M415 259c10 -7 11 -21 2 -33c-50 -67 -92 -89 -136 -113c-6 -37 -15 -70 -28 -97c-16 -35 -53 -98 -104 -98c-32 0 -56 24 -56 56c0 57 58 120 149 160c3 23 4 47 4 74c0 68 -77 150 27 242c40 35 63 74 63 106c0 27 -18 42 -55 42c-51 0 -95 -43 -130 -130
c-29 -74 -119 -323 -163 -450c-5 -13 -17 -20 -28 -16s-16 16 -12 30c45 128 134 377 165 452c41 102 98 156 168 156c59 0 97 -32 97 -84c0 -44 -29 -96 -77 -138c-86 -75 -13 -94 -13 -210c0 -18 -1 -35 -2 -52c32 19 61 46 97 95c9 12 22 15 32 8zM149 -40
c22 0 48 34 68 75c7 15 12 31 16 50c-51 -24 -98 -80 -98 -111c0 -8 6 -14 14 -14z" />
    <glyph glyph-name="t" unicode="t" horiz-adv-x="208" 
d="M254 238c7 -4 12 -11 12 -19c0 -3 -1 -6 -2 -9c-58 -125 -114 -210 -206 -210c-48 0 -74 36 -74 84c0 37 25 124 57 206l51 143h-63c-12 0 -21 9 -21 21c0 11 9 21 21 21h77c2 4 51 145 52 149c3 9 11 14 20 14c15 0 25 -15 20 -28c3 6 -40 -116 -47 -135h67
c12 0 21 -10 21 -21c0 -12 -9 -21 -21 -21h-82c-6 -19 -23 -65 -56 -158c-41 -116 -54 -162 -54 -191c0 -27 12 -42 32 -42c72 0 120 83 167 186c4 7 12 12 20 12c3 0 6 -1 9 -2z" />
    <glyph glyph-name="tbar" unicode="&#x167;" horiz-adv-x="208" 
d="M254 238c7 -4 12 -11 12 -19c0 -3 -1 -6 -2 -9c-58 -125 -114 -210 -206 -210c-48 0 -74 36 -74 84c0 37 25 124 57 206c-5 -14 0 -1 8 23h-54c-13 0 -21 10 -21 21c1 12 9 21 22 21h68c13 37 27 74 28 78h-63c-12 0 -21 9 -21 21c0 11 9 21 21 21h77c2 4 51 145 52 149
c3 9 11 14 20 14c15 0 25 -15 20 -28c3 6 -40 -116 -47 -135h67c12 0 21 -10 21 -21c0 -12 -9 -21 -21 -21h-82l-27 -78h80c13 0 21 -9 22 -21c0 -11 -8 -21 -21 -21h-96c-5 -12 -9 -24 -14 -38c-41 -116 -54 -162 -54 -191c0 -27 12 -42 32 -42c72 0 120 83 167 186
c4 7 12 12 20 12c3 0 6 -1 9 -2z" />
    <glyph glyph-name="tcaron" unicode="&#x165;" horiz-adv-x="208" 
d="M313 602c-1 -5 -2 -10 -5 -14l-36 -57c-5 -9 -12 -11 -20 -7c-8 3 -10 12 -5 20l17 31c-14 6 -21 19 -20 34c2 19 18 33 37 31s34 -19 32 -38zM254 238c7 -4 12 -11 12 -19c0 -3 -1 -6 -2 -9c-58 -125 -114 -210 -206 -210c-48 0 -74 36 -74 84c0 37 25 124 57 206
l51 143h-63c-12 0 -21 9 -21 21c0 11 9 21 21 21h77c2 4 51 145 52 149c3 9 11 14 20 14c15 0 25 -15 20 -28c3 6 -40 -116 -47 -135h67c12 0 21 -10 21 -21c0 -12 -9 -21 -21 -21h-82c-6 -19 -23 -65 -56 -158c-41 -116 -54 -162 -54 -191c0 -27 12 -42 32 -42
c72 0 120 83 167 186c4 7 12 12 20 12c3 0 6 -1 9 -2z" />
    <glyph glyph-name="uni0163" unicode="&#x163;" horiz-adv-x="208" 
d="M254 238c7 -4 12 -11 12 -19c0 -3 -1 -6 -2 -9c-58 -125 -114 -210 -206 -210c-48 0 -74 36 -74 84c0 37 25 124 57 206l51 143h-63c-12 0 -21 9 -21 21c0 11 9 21 21 21h77c2 4 51 145 52 149c3 9 11 14 20 14c15 0 25 -15 20 -28c3 6 -40 -116 -47 -135h67
c12 0 21 -10 21 -21c0 -12 -9 -21 -21 -21h-82c-6 -19 -23 -65 -56 -158c-41 -116 -54 -162 -54 -191c0 -27 12 -42 32 -42c72 0 120 83 167 186c4 7 12 12 20 12c3 0 6 -1 9 -2zM51 -80c-1 -5 -2 -10 -5 -14l-36 -57c-5 -9 -12 -11 -20 -7c-8 3 -10 12 -5 20l17 31
c-14 6 -21 19 -20 34c2 19 18 33 37 31s34 -19 32 -38z" />
    <glyph glyph-name="uni021B" unicode="&#x21b;" horiz-adv-x="208" 
d="M254 238c7 -4 12 -11 12 -19c0 -3 -1 -6 -2 -9c-58 -125 -114 -210 -206 -210c-48 0 -74 36 -74 84c0 37 25 124 57 206l51 143h-63c-12 0 -21 9 -21 21c0 11 9 21 21 21h77c2 4 51 145 52 149c3 9 11 14 20 14c15 0 25 -15 20 -28c3 6 -40 -116 -47 -135h67
c12 0 21 -10 21 -21c0 -12 -9 -21 -21 -21h-82c-6 -19 -23 -65 -56 -158c-41 -116 -54 -162 -54 -191c0 -27 12 -42 32 -42c72 0 120 83 167 186c4 7 12 12 20 12c3 0 6 -1 9 -2zM51 -80c-1 -5 -2 -10 -5 -14l-36 -57c-5 -9 -12 -11 -20 -7c-8 3 -10 12 -5 20l17 31
c-14 6 -21 19 -20 34c2 19 18 33 37 31s34 -19 32 -38z" />
    <glyph glyph-name="u" unicode="u" horiz-adv-x="401" 
d="M447 238c7 -4 12 -11 12 -19c0 -3 -1 -6 -2 -9c-65 -149 -115 -210 -182 -210c-44 0 -66 27 -72 71c-29 -41 -75 -71 -120 -71h-1c-63 0 -96 36 -96 104c0 50 24 109 120 358c3 8 11 13 19 13c17 0 25 -15 20 -28c-106 -282 -117 -303 -117 -343c0 -41 19 -62 55 -62
c41 0 82 34 115 102c35 70 72 176 124 318c3 8 11 13 19 13c16 0 26 -15 21 -28l-56 -152c-38 -103 -61 -184 -61 -211c0 -29 9 -42 30 -42c48 0 87 57 144 185c3 8 11 13 19 13c3 0 6 -1 9 -2z" />
    <glyph glyph-name="uacute" unicode="&#xfa;" horiz-adv-x="401" 
d="M212 574l135 93c10 7 24 3 30 -7s4 -24 -7 -31l-138 -91c-11 -6 -22 -2 -28 7c-4 10 -2 22 8 29zM447 238c7 -4 12 -11 12 -19c0 -3 -1 -6 -2 -9c-65 -149 -115 -210 -182 -210c-44 0 -66 27 -72 71c-29 -41 -75 -71 -120 -71h-1c-63 0 -96 36 -96 104
c0 50 24 109 120 358c3 8 11 13 19 13c17 0 25 -15 20 -28c-106 -282 -117 -303 -117 -343c0 -41 19 -62 55 -62c41 0 82 34 115 102c35 70 72 176 124 318c3 8 11 13 19 13c16 0 26 -15 21 -28l-56 -152c-38 -103 -61 -184 -61 -211c0 -29 9 -42 30 -42c48 0 87 57 144 185
c3 8 11 13 19 13c3 0 6 -1 9 -2z" />
    <glyph glyph-name="ucircumflex" unicode="&#xfb;" horiz-adv-x="401" 
d="M362 551c6 -11 0 -22 -8 -25c-6 -2 -18 -1 -25 9l-50 75l-103 -73c-10 -7 -20 -5 -26 2c-6 9 -6 21 3 28l117 91c14 11 30 6 36 -5zM447 238c7 -4 12 -11 12 -19c0 -3 -1 -6 -2 -9c-65 -149 -115 -210 -182 -210c-44 0 -66 27 -72 71c-29 -41 -75 -71 -120 -71h-1
c-63 0 -96 36 -96 104c0 50 24 109 120 358c3 8 11 13 19 13c17 0 25 -15 20 -28c-106 -282 -117 -303 -117 -343c0 -41 19 -62 55 -62c41 0 82 34 115 102c35 70 72 176 124 318c3 8 11 13 19 13c16 0 26 -15 21 -28l-56 -152c-38 -103 -61 -184 -61 -211
c0 -29 9 -42 30 -42c48 0 87 57 144 185c3 8 11 13 19 13c3 0 6 -1 9 -2z" />
    <glyph glyph-name="udieresis" unicode="&#xfc;" horiz-adv-x="401" 
d="M204 602c19 0 35 -16 35 -35s-16 -34 -35 -34s-34 15 -34 34s15 35 34 35zM314 602c19 0 35 -16 35 -35s-16 -34 -35 -34s-34 15 -34 34s15 35 34 35zM447 238c7 -4 12 -11 12 -19c0 -3 -1 -6 -2 -9c-65 -149 -115 -210 -182 -210c-44 0 -66 27 -72 71
c-29 -41 -75 -71 -120 -71h-1c-63 0 -96 36 -96 104c0 50 24 109 120 358c3 8 11 13 19 13c17 0 25 -15 20 -28c-106 -282 -117 -303 -117 -343c0 -41 19 -62 55 -62c41 0 82 34 115 102c35 70 72 176 124 318c3 8 11 13 19 13c16 0 26 -15 21 -28l-56 -152
c-38 -103 -61 -184 -61 -211c0 -29 9 -42 30 -42c48 0 87 57 144 185c3 8 11 13 19 13c3 0 6 -1 9 -2z" />
    <glyph glyph-name="ugrave" unicode="&#xf9;" horiz-adv-x="401" 
d="M313 567c9 -8 9 -19 3 -28c-6 -7 -17 -10 -26 -2l-110 97c-10 9 -10 22 -3 32c8 8 21 11 31 2zM447 238c7 -4 12 -11 12 -19c0 -3 -1 -6 -2 -9c-65 -149 -115 -210 -182 -210c-44 0 -66 27 -72 71c-29 -41 -75 -71 -120 -71h-1c-63 0 -96 36 -96 104c0 50 24 109 120 358
c3 8 11 13 19 13c17 0 25 -15 20 -28c-106 -282 -117 -303 -117 -343c0 -41 19 -62 55 -62c41 0 82 34 115 102c35 70 72 176 124 318c3 8 11 13 19 13c16 0 26 -15 21 -28l-56 -152c-38 -103 -61 -184 -61 -211c0 -29 9 -42 30 -42c48 0 87 57 144 185c3 8 11 13 19 13
c3 0 6 -1 9 -2z" />
    <glyph glyph-name="uhungarumlaut" unicode="&#x171;" horiz-adv-x="401" 
d="M179 567l98 93c10 9 23 6 31 -2c7 -10 7 -23 -3 -32l-103 -89c-9 -8 -20 -5 -26 2c-6 9 -6 20 3 28zM289 567l98 93c10 9 23 6 31 -2c7 -10 7 -23 -3 -32l-103 -89c-9 -8 -20 -5 -26 2c-6 9 -6 20 3 28zM447 238c7 -4 12 -11 12 -19c0 -3 -1 -6 -2 -9
c-65 -149 -115 -210 -182 -210c-44 0 -66 27 -72 71c-29 -41 -75 -71 -120 -71h-1c-63 0 -96 36 -96 104c0 50 24 109 120 358c3 8 11 13 19 13c17 0 25 -15 20 -28c-106 -282 -117 -303 -117 -343c0 -41 19 -62 55 -62c41 0 82 34 115 102c35 70 72 176 124 318
c3 8 11 13 19 13c16 0 26 -15 21 -28l-56 -152c-38 -103 -61 -184 -61 -211c0 -29 9 -42 30 -42c48 0 87 57 144 185c3 8 11 13 19 13c3 0 6 -1 9 -2z" />
    <glyph glyph-name="umacron" unicode="&#x16b;" horiz-adv-x="401" 
d="M347 588c13 0 21 -9 22 -21c0 -11 -8 -21 -21 -21h-195c-13 0 -21 10 -21 21c1 12 9 21 22 21h193zM447 238c7 -4 12 -11 12 -19c0 -3 -1 -6 -2 -9c-65 -149 -115 -210 -182 -210c-44 0 -66 27 -72 71c-29 -41 -75 -71 -120 -71h-1c-63 0 -96 36 -96 104
c0 50 24 109 120 358c3 8 11 13 19 13c17 0 25 -15 20 -28c-106 -282 -117 -303 -117 -343c0 -41 19 -62 55 -62c41 0 82 34 115 102c35 70 72 176 124 318c3 8 11 13 19 13c16 0 26 -15 21 -28l-56 -152c-38 -103 -61 -184 -61 -211c0 -29 9 -42 30 -42c48 0 87 57 144 185
c3 8 11 13 19 13c3 0 6 -1 9 -2z" />
    <glyph glyph-name="uogonek" unicode="&#x173;" horiz-adv-x="401" 
d="M447 238c7 -4 12 -11 12 -19c0 -3 -1 -6 -2 -9c-37 -85 -70 -142 -103 -174c-1 -2 -2 -3 -3 -4c-98 -84 -123 -114 -123 -147c0 -21 14 -35 36 -35c26 0 38 4 60 16c25 14 42 -21 17 -35c-30 -17 -47 -23 -74 -23c-49 0 -81 29 -81 72c0 41 31 81 75 121
c-35 6 -53 31 -58 70c-29 -41 -75 -71 -120 -71h-1c-63 0 -96 36 -96 104c0 50 24 109 120 358c3 8 11 13 19 13c17 0 25 -15 20 -28c-106 -282 -117 -303 -117 -343c0 -41 19 -62 55 -62c41 0 82 34 115 102c35 70 72 176 124 318c3 8 11 13 19 13c16 0 26 -15 21 -28
l-56 -152c-38 -103 -61 -184 -61 -211c0 -29 9 -42 30 -42c48 0 87 57 144 185c3 8 11 13 19 13c3 0 6 -1 9 -2z" />
    <glyph glyph-name="uring" unicode="&#x16f;" horiz-adv-x="401" 
d="M256 533c-53 0 -91 44 -83 97c8 48 50 84 98 84c52 0 91 -44 83 -96c-8 -48 -50 -85 -98 -85zM256 575c27 0 52 22 56 49s-14 48 -41 48s-52 -22 -56 -48c-4 -28 13 -49 41 -49zM447 238c7 -4 12 -11 12 -19c0 -3 -1 -6 -2 -9c-65 -149 -115 -210 -182 -210
c-44 0 -66 27 -72 71c-29 -41 -75 -71 -120 -71h-1c-63 0 -96 36 -96 104c0 50 24 109 120 358c3 8 11 13 19 13c17 0 25 -15 20 -28c-106 -282 -117 -303 -117 -343c0 -41 19 -62 55 -62c41 0 82 34 115 102c35 70 72 176 124 318c3 8 11 13 19 13c16 0 26 -15 21 -28
l-56 -152c-38 -103 -61 -184 -61 -211c0 -29 9 -42 30 -42c48 0 87 57 144 185c3 8 11 13 19 13c3 0 6 -1 9 -2z" />
    <glyph glyph-name="v" unicode="v" horiz-adv-x="345" 
d="M390 238c8 -3 13 -11 13 -19c0 -3 -1 -5 -2 -8c-22 -75 -85 -147 -155 -147c-27 0 -52 9 -70 27c-49 -66 -78 -91 -121 -91c-50 0 -72 35 -72 84c0 64 49 179 119 378c3 8 11 13 20 13c16 0 25 -15 20 -28c-87 -240 -117 -325 -117 -363c0 -29 8 -42 30 -42
c35 0 72 47 95 87c-11 30 -9 67 -1 95c3 10 11 16 20 16c14 0 24 -13 21 -27c-2 -8 -4 -17 -5 -24c11 18 124 242 139 275c4 7 12 12 20 12c3 0 6 -1 9 -2c7 -4 12 -12 12 -20c0 -3 -1 -6 -2 -9c-34 -70 -145 -287 -164 -318c13 -14 29 -21 48 -21c53 0 99 64 115 121
c2 9 11 13 19 13c3 0 6 -1 9 -2z" />
    <glyph glyph-name="w" unicode="w" horiz-adv-x="526" 
d="M584 219c0 -3 -1 -5 -2 -8c-28 -77 -84 -147 -155 -147c-30 0 -54 11 -70 27c-38 -53 -74 -91 -121 -91c-46 0 -66 28 -72 71c-29 -41 -65 -71 -110 -71c-48 0 -72 35 -72 84c0 50 34 150 120 378c3 8 11 13 19 13c17 0 25 -15 20 -28c-98 -270 -117 -324 -117 -363
c0 -30 9 -42 30 -42c48 0 90 51 144 186c18 45 74 203 85 234c3 8 11 13 19 13c16 0 26 -15 21 -28c-63 -167 -117 -313 -117 -363c0 -32 11 -42 30 -42c32 0 50 23 95 87c-11 30 -9 67 -1 95c3 10 10 16 20 16c14 0 25 -13 21 -27c-3 -8 -4 -17 -5 -24
c30 57 108 210 139 275c4 7 12 12 20 12c11 0 20 -10 20 -21c0 -4 -1 -7 -2 -10c-44 -90 -128 -257 -163 -318c10 -13 29 -21 47 -21c52 0 84 47 116 121c4 8 11 13 19 13c11 0 22 -9 22 -21z" />
    <glyph glyph-name="wacute" unicode="&#x1e83;" horiz-adv-x="526" 
d="M288 576l135 93c10 7 24 3 30 -7s4 -24 -7 -31l-138 -91c-11 -6 -22 -2 -28 7c-4 10 -2 22 8 29zM584 219c0 -3 -1 -5 -2 -8c-28 -77 -84 -147 -155 -147c-30 0 -54 11 -70 27c-38 -53 -74 -91 -121 -91c-46 0 -66 28 -72 71c-29 -41 -65 -71 -110 -71
c-48 0 -72 35 -72 84c0 50 34 150 120 378c3 8 11 13 19 13c17 0 25 -15 20 -28c-98 -270 -117 -324 -117 -363c0 -30 9 -42 30 -42c48 0 90 51 144 186c18 45 74 203 85 234c3 8 11 13 19 13c16 0 26 -15 21 -28c-63 -167 -117 -313 -117 -363c0 -32 11 -42 30 -42
c32 0 50 23 95 87c-11 30 -9 67 -1 95c3 10 10 16 20 16c14 0 25 -13 21 -27c-3 -8 -4 -17 -5 -24c30 57 108 210 139 275c4 7 12 12 20 12c11 0 20 -10 20 -21c0 -4 -1 -7 -2 -10c-44 -90 -128 -257 -163 -318c10 -13 29 -21 47 -21c52 0 84 47 116 121c4 8 11 13 19 13
c11 0 22 -9 22 -21z" />
    <glyph glyph-name="wcircumflex" unicode="&#x175;" horiz-adv-x="526" 
d="M438 553c6 -11 0 -22 -8 -25c-6 -2 -18 -1 -25 9l-50 75l-103 -73c-10 -7 -20 -5 -26 2c-6 9 -6 21 3 28l117 91c14 11 30 6 36 -5zM584 219c0 -3 -1 -5 -2 -8c-28 -77 -84 -147 -155 -147c-30 0 -54 11 -70 27c-38 -53 -74 -91 -121 -91c-46 0 -66 28 -72 71
c-29 -41 -65 -71 -110 -71c-48 0 -72 35 -72 84c0 50 34 150 120 378c3 8 11 13 19 13c17 0 25 -15 20 -28c-98 -270 -117 -324 -117 -363c0 -30 9 -42 30 -42c48 0 90 51 144 186c18 45 74 203 85 234c3 8 11 13 19 13c16 0 26 -15 21 -28c-63 -167 -117 -313 -117 -363
c0 -32 11 -42 30 -42c32 0 50 23 95 87c-11 30 -9 67 -1 95c3 10 10 16 20 16c14 0 25 -13 21 -27c-3 -8 -4 -17 -5 -24c30 57 108 210 139 275c4 7 12 12 20 12c11 0 20 -10 20 -21c0 -4 -1 -7 -2 -10c-44 -90 -128 -257 -163 -318c10 -13 29 -21 47 -21
c52 0 84 47 116 121c4 8 11 13 19 13c11 0 22 -9 22 -21z" />
    <glyph glyph-name="wdieresis" unicode="&#x1e85;" horiz-adv-x="526" 
d="M272 604c19 0 35 -16 35 -35s-16 -34 -35 -34s-34 15 -34 34s15 35 34 35zM382 604c19 0 35 -16 35 -35s-16 -34 -35 -34s-34 15 -34 34s15 35 34 35zM584 219c0 -3 -1 -5 -2 -8c-28 -77 -84 -147 -155 -147c-30 0 -54 11 -70 27c-38 -53 -74 -91 -121 -91
c-46 0 -66 28 -72 71c-29 -41 -65 -71 -110 -71c-48 0 -72 35 -72 84c0 50 34 150 120 378c3 8 11 13 19 13c17 0 25 -15 20 -28c-98 -270 -117 -324 -117 -363c0 -30 9 -42 30 -42c48 0 90 51 144 186c18 45 74 203 85 234c3 8 11 13 19 13c16 0 26 -15 21 -28
c-63 -167 -117 -313 -117 -363c0 -32 11 -42 30 -42c32 0 50 23 95 87c-11 30 -9 67 -1 95c3 10 10 16 20 16c14 0 25 -13 21 -27c-3 -8 -4 -17 -5 -24c30 57 108 210 139 275c4 7 12 12 20 12c11 0 20 -10 20 -21c0 -4 -1 -7 -2 -10c-44 -90 -128 -257 -163 -318
c10 -13 29 -21 47 -21c52 0 84 47 116 121c4 8 11 13 19 13c11 0 22 -9 22 -21z" />
    <glyph glyph-name="wgrave" unicode="&#x1e81;" horiz-adv-x="526" 
d="M389 569c9 -8 9 -19 3 -28c-6 -7 -17 -10 -26 -2l-110 97c-10 9 -10 22 -3 32c8 8 21 11 31 2zM584 219c0 -3 -1 -5 -2 -8c-28 -77 -84 -147 -155 -147c-30 0 -54 11 -70 27c-38 -53 -74 -91 -121 -91c-46 0 -66 28 -72 71c-29 -41 -65 -71 -110 -71c-48 0 -72 35 -72 84
c0 50 34 150 120 378c3 8 11 13 19 13c17 0 25 -15 20 -28c-98 -270 -117 -324 -117 -363c0 -30 9 -42 30 -42c48 0 90 51 144 186c18 45 74 203 85 234c3 8 11 13 19 13c16 0 26 -15 21 -28c-63 -167 -117 -313 -117 -363c0 -32 11 -42 30 -42c32 0 50 23 95 87
c-11 30 -9 67 -1 95c3 10 10 16 20 16c14 0 25 -13 21 -27c-3 -8 -4 -17 -5 -24c30 57 108 210 139 275c4 7 12 12 20 12c11 0 20 -10 20 -21c0 -4 -1 -7 -2 -10c-44 -90 -128 -257 -163 -318c10 -13 29 -21 47 -21c52 0 84 47 116 121c4 8 11 13 19 13c11 0 22 -9 22 -21z
" />
    <glyph glyph-name="x" unicode="x" horiz-adv-x="458" 
d="M516 219c0 -3 -1 -6 -2 -9c-47 -105 -103 -210 -187 -210c-78 0 -116 75 -138 165l-141 -158c-4 -5 -10 -7 -16 -7c-5 0 -10 1 -14 5c-5 4 -7 10 -7 16c0 5 1 10 5 14l163 182c-7 40 -12 81 -16 118c-4 35 -7 67 -12 91c-12 -28 -110 -248 -111 -250
c-4 -8 -11 -13 -19 -13c-14 0 -21 14 -21 22c0 2 1 5 2 8c9 19 106 238 102 231c9 22 22 54 53 54c19 0 28 -11 33 -32c6 -27 10 -64 15 -106c3 -26 6 -54 10 -83l188 211c4 4 10 7 16 7c5 0 10 -2 14 -6s7 -9 7 -15c0 -5 -2 -10 -6 -14l-210 -236c16 -87 45 -161 103 -161
c61 0 112 103 148 184c4 8 12 13 20 13c10 0 21 -10 21 -21z" />
    <glyph glyph-name="y" unicode="y" horiz-adv-x="412" 
d="M457 237c8 -4 13 -11 13 -19c0 -3 -1 -6 -2 -9c-62 -146 -145 -239 -291 -282c-48 -137 -110 -208 -182 -209c-60 -1 -99 38 -99 97c0 63 49 109 169 131c25 4 52 9 79 16l25 72c-23 -22 -48 -34 -76 -34c-85 0 -109 57 -109 107c2 46 25 101 64 203l56 152
c3 8 11 13 19 13c17 0 25 -15 20 -28l-55 -152c-44 -121 -61 -152 -61 -188c0 -29 9 -65 66 -65c53 0 117 106 157 221c13 39 7 21 74 198c3 8 11 14 19 14c12 0 26 -14 21 -29l-75 -197l-80 -228l-15 -44c115 39 185 131 235 249c4 8 11 13 19 13c3 0 6 -1 9 -2zM-5 -240
c54 1 100 54 133 155c-19 -4 -37 -8 -55 -11c-92 -16 -131 -42 -135 -88c0 -35 23 -57 57 -56z" />
    <glyph glyph-name="yacute" unicode="&#xfd;" horiz-adv-x="412" 
d="M209 574l135 93c10 7 24 3 30 -7s4 -24 -7 -31l-138 -91c-11 -6 -22 -2 -28 7c-4 10 -2 22 8 29zM457 237c8 -4 13 -11 13 -19c0 -3 -1 -6 -2 -9c-62 -146 -145 -239 -291 -282c-48 -137 -110 -208 -182 -209c-60 -1 -99 38 -99 97c0 63 49 109 169 131c25 4 52 9 79 16
l25 72c-23 -22 -48 -34 -76 -34c-85 0 -109 57 -109 107c2 46 25 101 64 203l56 152c3 8 11 13 19 13c17 0 25 -15 20 -28l-55 -152c-44 -121 -61 -152 -61 -188c0 -29 9 -65 66 -65c53 0 117 106 157 221c13 39 7 21 74 198c3 8 11 14 19 14c12 0 26 -14 21 -29l-75 -197
l-80 -228l-15 -44c115 39 185 131 235 249c4 8 11 13 19 13c3 0 6 -1 9 -2zM-5 -240c54 1 100 54 133 155c-19 -4 -37 -8 -55 -11c-92 -16 -131 -42 -135 -88c0 -35 23 -57 57 -56z" />
    <glyph glyph-name="ycircumflex" unicode="&#x177;" horiz-adv-x="412" 
d="M359 551c6 -11 0 -22 -8 -25c-6 -2 -18 -1 -25 9l-50 75l-103 -73c-10 -7 -20 -5 -26 2c-6 9 -6 21 3 28l117 91c14 11 30 6 36 -5zM457 237c8 -4 13 -11 13 -19c0 -3 -1 -6 -2 -9c-62 -146 -145 -239 -291 -282c-48 -137 -110 -208 -182 -209c-60 -1 -99 38 -99 97
c0 63 49 109 169 131c25 4 52 9 79 16l25 72c-23 -22 -48 -34 -76 -34c-85 0 -109 57 -109 107c2 46 25 101 64 203l56 152c3 8 11 13 19 13c17 0 25 -15 20 -28l-55 -152c-44 -121 -61 -152 -61 -188c0 -29 9 -65 66 -65c53 0 117 106 157 221c13 39 7 21 74 198
c3 8 11 14 19 14c12 0 26 -14 21 -29l-75 -197l-80 -228l-15 -44c115 39 185 131 235 249c4 8 11 13 19 13c3 0 6 -1 9 -2zM-5 -240c54 1 100 54 133 155c-19 -4 -37 -8 -55 -11c-92 -16 -131 -42 -135 -88c0 -35 23 -57 57 -56z" />
    <glyph glyph-name="ydieresis" unicode="&#xff;" horiz-adv-x="412" 
d="M193 602c19 0 35 -16 35 -35s-16 -34 -35 -34s-34 15 -34 34s15 35 34 35zM303 602c19 0 35 -16 35 -35s-16 -34 -35 -34s-34 15 -34 34s15 35 34 35zM457 237c8 -4 13 -11 13 -19c0 -3 -1 -6 -2 -9c-62 -146 -145 -239 -291 -282c-48 -137 -110 -208 -182 -209
c-60 -1 -99 38 -99 97c0 63 49 109 169 131c25 4 52 9 79 16l25 72c-23 -22 -48 -34 -76 -34c-85 0 -109 57 -109 107c2 46 25 101 64 203l56 152c3 8 11 13 19 13c17 0 25 -15 20 -28l-55 -152c-44 -121 -61 -152 -61 -188c0 -29 9 -65 66 -65c53 0 117 106 157 221
c13 39 7 21 74 198c3 8 11 14 19 14c12 0 26 -14 21 -29l-75 -197l-80 -228l-15 -44c115 39 185 131 235 249c4 8 11 13 19 13c3 0 6 -1 9 -2zM-5 -240c54 1 100 54 133 155c-19 -4 -37 -8 -55 -11c-92 -16 -131 -42 -135 -88c0 -35 23 -57 57 -56z" />
    <glyph glyph-name="ygrave" unicode="&#x1ef3;" horiz-adv-x="412" 
d="M310 567c9 -8 9 -19 3 -28c-6 -7 -17 -10 -26 -2l-110 97c-10 9 -10 22 -3 32c8 8 21 11 31 2zM457 237c8 -4 13 -11 13 -19c0 -3 -1 -6 -2 -9c-62 -146 -145 -239 -291 -282c-48 -137 -110 -208 -182 -209c-60 -1 -99 38 -99 97c0 63 49 109 169 131c25 4 52 9 79 16
l25 72c-23 -22 -48 -34 -76 -34c-85 0 -109 57 -109 107c2 46 25 101 64 203l56 152c3 8 11 13 19 13c17 0 25 -15 20 -28l-55 -152c-44 -121 -61 -152 -61 -188c0 -29 9 -65 66 -65c53 0 117 106 157 221c13 39 7 21 74 198c3 8 11 14 19 14c12 0 26 -14 21 -29l-75 -197
l-80 -228l-15 -44c115 39 185 131 235 249c4 8 11 13 19 13c3 0 6 -1 9 -2zM-5 -240c54 1 100 54 133 155c-19 -4 -37 -8 -55 -11c-92 -16 -131 -42 -135 -88c0 -35 23 -57 57 -56z" />
    <glyph glyph-name="z" unicode="z" horiz-adv-x="399" 
d="M445 239c8 -3 13 -11 13 -19c0 -3 -1 -5 -2 -8c-60 -141 -139 -210 -217 -246c-53 -146 -126 -226 -221 -226c-63 0 -105 33 -105 96c0 68 46 108 155 127c42 7 89 14 138 35c15 54 23 104 4 138c-61 -28 -124 -23 -124 31c0 63 78 67 132 24c47 34 64 97 64 153
c0 52 -21 87 -68 87c-69 0 -123 -140 -170 -246l-4 -9c-4 -8 -10 -13 -18 -13c-11 0 -22 9 -22 21c0 3 1 6 2 9c57 136 116 280 212 280c72 0 110 -52 110 -129c0 -64 -23 -139 -78 -186c22 -36 21 -85 11 -134c58 37 115 98 160 204c4 8 11 13 19 13c3 0 6 -1 9 -2z
M182 167c-30 19 -53 18 -53 0c0 -12 31 -9 53 0zM185 -55c-39 -12 -76 -18 -110 -24c-85 -13 -120 -40 -120 -84c0 -28 25 -56 62 -56c65 0 119 58 168 164z" />
    <glyph glyph-name="zacute" unicode="&#x17a;" horiz-adv-x="399" 
d="M214 574l135 93c10 7 24 3 30 -7s4 -24 -7 -31l-138 -91c-11 -6 -22 -2 -28 7c-4 10 -2 22 8 29zM445 239c8 -3 13 -11 13 -19c0 -3 -1 -5 -2 -8c-60 -141 -139 -210 -217 -246c-53 -146 -126 -226 -221 -226c-63 0 -105 33 -105 96c0 68 46 108 155 127
c42 7 89 14 138 35c15 54 23 104 4 138c-61 -28 -124 -23 -124 31c0 63 78 67 132 24c47 34 64 97 64 153c0 52 -21 87 -68 87c-69 0 -123 -140 -170 -246l-4 -9c-4 -8 -10 -13 -18 -13c-11 0 -22 9 -22 21c0 3 1 6 2 9c57 136 116 280 212 280c72 0 110 -52 110 -129
c0 -64 -23 -139 -78 -186c22 -36 21 -85 11 -134c58 37 115 98 160 204c4 8 11 13 19 13c3 0 6 -1 9 -2zM182 167c-30 19 -53 18 -53 0c0 -12 31 -9 53 0zM185 -55c-39 -12 -76 -18 -110 -24c-85 -13 -120 -40 -120 -84c0 -28 25 -56 62 -56c65 0 119 58 168 164z" />
    <glyph glyph-name="zcaron" unicode="&#x17e;" horiz-adv-x="399" 
d="M193 638c-5 11 0 20 8 25s21 1 26 -9l32 -67l100 74c10 8 20 5 26 -2c6 -9 6 -20 -3 -28l-115 -92c-14 -12 -32 -6 -36 5zM445 239c8 -3 13 -11 13 -19c0 -3 -1 -5 -2 -8c-60 -141 -139 -210 -217 -246c-53 -146 -126 -226 -221 -226c-63 0 -105 33 -105 96
c0 68 46 108 155 127c42 7 89 14 138 35c15 54 23 104 4 138c-61 -28 -124 -23 -124 31c0 63 78 67 132 24c47 34 64 97 64 153c0 52 -21 87 -68 87c-69 0 -123 -140 -170 -246l-4 -9c-4 -8 -10 -13 -18 -13c-11 0 -22 9 -22 21c0 3 1 6 2 9c57 136 116 280 212 280
c72 0 110 -52 110 -129c0 -64 -23 -139 -78 -186c22 -36 21 -85 11 -134c58 37 115 98 160 204c4 8 11 13 19 13c3 0 6 -1 9 -2zM182 167c-30 19 -53 18 -53 0c0 -12 31 -9 53 0zM185 -55c-39 -12 -76 -18 -110 -24c-85 -13 -120 -40 -120 -84c0 -28 25 -56 62 -56
c65 0 119 58 168 164z" />
    <glyph glyph-name="zdotaccent" unicode="&#x17c;" horiz-adv-x="399" 
d="M252 533c-21 0 -38 16 -38 37c0 20 17 37 38 37s37 -17 37 -37c0 -21 -16 -37 -37 -37zM445 239c8 -3 13 -11 13 -19c0 -3 -1 -5 -2 -8c-60 -141 -139 -210 -217 -246c-53 -146 -126 -226 -221 -226c-63 0 -105 33 -105 96c0 68 46 108 155 127c42 7 89 14 138 35
c15 54 23 104 4 138c-61 -28 -124 -23 -124 31c0 63 78 67 132 24c47 34 64 97 64 153c0 52 -21 87 -68 87c-69 0 -123 -140 -170 -246l-4 -9c-4 -8 -10 -13 -18 -13c-11 0 -22 9 -22 21c0 3 1 6 2 9c57 136 116 280 212 280c72 0 110 -52 110 -129c0 -64 -23 -139 -78 -186
c22 -36 21 -85 11 -134c58 37 115 98 160 204c4 8 11 13 19 13c3 0 6 -1 9 -2zM182 167c-30 19 -53 18 -53 0c0 -12 31 -9 53 0zM185 -55c-39 -12 -76 -18 -110 -24c-85 -13 -120 -40 -120 -84c0 -28 25 -56 62 -56c65 0 119 58 168 164z" />
    <glyph glyph-name="ae.ss01" horiz-adv-x="510" 
d="M555 238c8 -4 13 -12 13 -20c0 -3 -1 -5 -2 -8c-65 -144 -141 -210 -222 -210c-66 0 -105 35 -117 91c-13 -39 -21 -65 -26 -78c-3 -8 -11 -13 -20 -13c-16 0 -22 15 -19 28l10 27c-31 -37 -58 -55 -93 -55c-56 0 -82 48 -82 108c0 131 101 365 221 365
c42 0 63 -17 81 -53c6 17 12 32 17 45c3 8 11 13 20 13c16 0 24 -16 19 -28l-6 -16c25 24 53 39 82 39c50 0 85 -26 85 -74c0 -106 -139 -170 -250 -197c-7 -26 -10 -45 -11 -66c-2 -57 30 -94 90 -94c62 0 126 56 182 185c5 10 17 15 28 11zM78 42c81 0 130 150 170 252
l24 64c-2 46 -18 73 -54 73c-92 -2 -177 -217 -179 -316c0 -44 9 -73 39 -73zM431 431c-69 0 -117 -104 -149 -181c83 26 192 75 192 149c0 27 -21 32 -43 32z" />
    <glyph glyph-name="uni0410" unicode="&#x410;" horiz-adv-x="765" 
d="M747 388c-22 -62 -39 -108 -44 -120c-39 -106 -108 -292 -108 -344c0 -63 20 -91 67 -91c11 0 21 -10 21 -22c0 -11 -10 -21 -21 -21c-75 2 -110 51 -110 134c0 61 72 251 112 358l4 11h-212c-80 -138 -181 -293 -304 -293c-83 0 -152 54 -152 137c0 88 74 165 154 165
c15 0 31 -3 46 -10c8 -4 12 -11 12 -19c0 -11 -9 -21 -21 -21c-5 0 -22 8 -37 8c-58 0 -112 -61 -112 -123c0 -57 50 -94 110 -94c101 0 187 136 255 250h-49c-12 0 -22 10 -22 21c0 12 10 22 22 22h74l73 132c47 87 89 166 125 213c29 35 68 59 103 59c60 0 80 -38 80 -93
c0 -75 -38 -180 -66 -259zM707 403c23 64 65 174 65 239c0 33 -10 55 -39 55c-23 0 -52 -20 -69 -42c-34 -44 -76 -122 -122 -207l-62 -112h203z" />
    <glyph glyph-name="uni0411" unicode="&#x411;" horiz-adv-x="848" 
d="M901 710c0 -5 -2 -10 -5 -14c-41 -45 -85 -56 -136 -56c-70 0 -117 58 -225 58c-191 0 -281 -130 -287 -335c0 -14 -12 -21 -22 -21c-11 0 -21 9 -21 21c0 219 114 377 331 377c117 0 164 -58 224 -58c38 0 73 6 104 42c4 4 9 7 16 7c12 0 21 -9 21 -21zM491 582
c-27 -52 -49 -124 -72 -198c-57 -188 -116 -384 -283 -384c-82 0 -146 53 -146 134c0 87 69 165 144 165c10 0 19 0 29 -4c9 -4 15 -11 15 -20c0 -14 -13 -25 -27 -21c-5 2 -10 2 -16 2c-54 0 -103 -61 -103 -120c0 -62 47 -94 103 -94c142 0 197 198 244 354
c23 77 46 151 74 206c21 39 63 76 95 76c10 0 19 -7 21 -18c0 -15 -9 -22 -17 -24c-23 -4 -50 -30 -61 -54zM581 441c116 0 194 -85 194 -214c0 -161 -100 -260 -246 -260c-108 0 -180 51 -180 128c0 62 49 107 101 107c49 0 88 -32 106 -79c5 -12 -4 -27 -19 -27
c-9 0 -17 5 -20 14c-11 30 -33 51 -66 51s-61 -32 -61 -66c0 -52 55 -86 139 -86c120 0 205 81 205 218c0 104 -61 173 -153 173c-32 0 -58 -8 -75 -23c-4 -3 -9 -5 -14 -5c-11 0 -20 9 -20 21c0 7 3 12 7 16c24 20 61 32 102 32z" />
    <glyph glyph-name="uni0412" unicode="&#x412;" horiz-adv-x="794" 
d="M758 530c0 -72 -45 -145 -108 -187l18 -21c34 -43 50 -99 50 -154c0 -129 -90 -230 -220 -230c-100 0 -173 48 -173 130c0 63 50 109 103 109c46 0 80 -33 98 -80c5 -13 -4 -28 -20 -28c-9 0 -17 5 -20 14c-11 32 -34 52 -57 52c-34 0 -62 -32 -62 -67
c0 -62 64 -88 131 -88c111 0 177 85 177 190c0 58 -23 119 -66 153c-22 -9 -64 -17 -88 -17c-45 0 -81 8 -81 51c0 32 20 49 52 49c37 0 90 -13 122 -35c62 33 102 100 102 161c3 99 -79 165 -181 165c-191 0 -281 -129 -287 -334c0 -14 -12 -21 -22 -21c-11 0 -21 9 -21 21
c0 219 114 376 331 376c126 0 225 -83 222 -209zM491 582c-27 -52 -49 -124 -72 -198c-57 -188 -116 -384 -283 -384c-82 0 -146 53 -146 134c0 87 69 165 144 165c10 0 19 0 29 -4c9 -4 15 -11 15 -20c0 -14 -13 -25 -27 -21c-5 2 -10 2 -16 2c-54 0 -103 -61 -103 -120
c0 -62 47 -94 103 -94c142 0 197 198 244 354c23 77 46 151 74 206c21 39 63 76 95 76c10 0 19 -7 21 -18c0 -15 -9 -22 -17 -24c-23 -4 -50 -30 -61 -54zM526 348c11 0 21 2 31 4c-10 4 -52 12 -61 12c-8 0 -14 -1 -14 -8c0 -8 29 -8 44 -8z" />
    <glyph glyph-name="uni0413" unicode="&#x413;" horiz-adv-x="600" 
d="M901 710c0 -5 -2 -10 -5 -14c-41 -45 -85 -56 -136 -56c-70 0 -117 58 -225 58c-191 0 -281 -130 -287 -335c0 -14 -12 -21 -22 -21c-11 0 -21 9 -21 21c0 219 114 377 331 377c117 0 164 -58 224 -58c38 0 73 6 104 42c4 4 9 7 16 7c12 0 21 -9 21 -21zM491 582
c-27 -52 -49 -124 -72 -198c-57 -188 -116 -384 -283 -384c-82 0 -146 53 -146 134c0 87 69 165 144 165c10 0 19 0 29 -4c9 -4 15 -11 15 -20c0 -14 -13 -25 -27 -21c-5 2 -10 2 -16 2c-54 0 -103 -61 -103 -120c0 -62 47 -94 103 -94c142 0 197 198 244 354
c23 77 46 151 74 206c21 39 63 76 95 76c10 0 19 -7 21 -18c0 -15 -9 -22 -17 -24c-23 -4 -50 -30 -61 -54z" />
    <glyph glyph-name="uni0414" unicode="&#x414;" horiz-adv-x="833" 
d="M799 406c0 -211 -109 -474 -308 -474c-95 0 -166 50 -166 131c0 65 48 110 103 110c47 0 81 -33 97 -80c4 -13 -5 -28 -19 -28c-9 0 -17 5 -20 14c-11 28 -32 52 -58 52c-33 0 -61 -30 -61 -68c0 -60 61 -89 124 -89c174 0 266 251 266 432c0 165 -63 283 -222 291
c-182 0 -286 -142 -288 -334c0 -12 -9 -21 -21 -21c-11 0 -21 9 -21 21c2 220 127 376 330 376c186 -9 264 -145 264 -333zM501 582c-27 -52 -49 -124 -72 -198c-55 -180 -117 -385 -283 -385c-82 0 -146 53 -146 135c0 87 68 165 144 165c10 0 19 -1 29 -4
c9 -3 15 -11 15 -20c0 -14 -13 -24 -27 -21c-5 1 -10 2 -16 2c-55 0 -103 -62 -103 -120c0 -62 47 -95 103 -95c140 0 197 202 244 355c23 77 46 151 74 206c20 38 52 66 91 76c14 3 23 -5 25 -18c0 -15 -9 -22 -17 -24c-23 -4 -50 -30 -61 -54z" />
    <glyph glyph-name="uni0415" unicode="&#x415;" horiz-adv-x="476" 
d="M521 239c8 -4 13 -12 13 -20c0 -3 -1 -5 -2 -8c-71 -174 -170 -271 -324 -271c-122 0 -208 77 -208 198c0 130 75 221 183 267c-25 27 -43 63 -43 99c0 28 7 51 9 59c-60 27 -111 83 -140 145c-1 3 -2 6 -2 10c0 7 4 14 12 18c3 1 6 2 9 2c8 0 15 -4 19 -12
c31 -64 60 -89 116 -124c40 86 127 139 222 139c63 0 109 -30 109 -80c-2 -78 -114 -129 -211 -129c-38 0 -68 7 -95 15c-3 -11 -5 -24 -5 -42c0 -31 19 -62 44 -84c23 6 69 14 87 14c30 0 61 -16 61 -44c0 -33 -25 -51 -59 -51c-32 0 -64 12 -97 34
c-108 -39 -177 -132 -177 -236c0 -101 72 -156 166 -156c136 0 220 87 285 245c4 11 17 16 28 12zM202 587c26 -8 50 -12 81 -12c72 0 166 36 169 86c0 26 -33 38 -67 38c-79 0 -152 -47 -183 -112zM280 389c15 -6 30 -8 44 -7c7 1 10 3 9 5c0 3 -6 6 -17 6
c-5 0 -18 -1 -36 -4z" />
    <glyph glyph-name="uni0401" unicode="&#x401;" horiz-adv-x="476" 
d="M346 870c19 0 35 -16 35 -35s-16 -34 -35 -34s-34 15 -34 34s15 35 34 35zM456 870c19 0 35 -16 35 -35s-16 -34 -35 -34s-34 15 -34 34s15 35 34 35zM521 239c8 -4 13 -12 13 -20c0 -3 -1 -5 -2 -8c-71 -174 -170 -271 -324 -271c-122 0 -208 77 -208 198
c0 130 75 221 183 267c-25 27 -43 63 -43 99c0 28 7 51 9 59c-60 27 -111 83 -140 145c-1 3 -2 6 -2 10c0 7 4 14 12 18c3 1 6 2 9 2c8 0 15 -4 19 -12c31 -64 60 -89 116 -124c40 86 127 139 222 139c63 0 109 -30 109 -80c-2 -78 -114 -129 -211 -129c-38 0 -68 7 -95 15
c-3 -11 -5 -24 -5 -42c0 -31 19 -62 44 -84c23 6 69 14 87 14c30 0 61 -16 61 -44c0 -33 -25 -51 -59 -51c-32 0 -64 12 -97 34c-108 -39 -177 -132 -177 -236c0 -101 72 -156 166 -156c136 0 220 87 285 245c4 11 17 16 28 12zM202 587c26 -8 50 -12 81 -12
c72 0 166 36 169 86c0 26 -33 38 -67 38c-79 0 -152 -47 -183 -112zM280 389c15 -6 30 -8 44 -7c7 1 10 3 9 5c0 3 -6 6 -17 6c-5 0 -18 -1 -36 -4z" />
    <glyph glyph-name="uni0416" unicode="&#x416;" horiz-adv-x="874" 
d="M655 753c12 26 51 9 38 -18c-42 -84 -77 -221 -113 -362c-34 -128 -68 -267 -116 -369c-12 -26 -51 -9 -38 18c42 84 77 221 113 362c34 128 68 267 116 369zM973 740c12 0 21 -9 21 -21s-9 -21 -21 -21c-77 0 -137 -45 -164 -127c-42 -123 -98 -183 -143 -195
c43 -16 80 -92 80 -221c0 -91 -7 -148 -7 -234c0 -60 22 -88 68 -88c11 0 21 -10 21 -22c0 -11 -10 -21 -21 -21c-74 0 -110 51 -110 131c0 82 7 129 7 234c0 141 -44 203 -81 203c-12 0 -21 9 -21 21s9 21 21 21c33 0 100 47 146 185c33 97 108 155 204 155zM506 368
c-51 -22 -100 -81 -122 -147c-54 -158 -110 -221 -198 -221c-72 0 -136 52 -136 134c0 87 68 165 144 165c10 0 19 -1 29 -4c9 -3 15 -11 15 -20c0 -14 -13 -24 -27 -21c-5 1 -10 2 -16 2c-55 0 -103 -62 -103 -120c0 -62 47 -94 94 -94c69 0 114 56 160 195
c22 68 72 132 125 161c-70 192 -114 300 -192 299c-49 0 -67 -35 -67 -78c0 -32 11 -70 27 -99c3 -3 4 -7 4 -12c0 -12 -9 -21 -21 -21c-9 0 -16 5 -19 12c-23 39 -33 79 -33 115c0 71 40 125 109 125c103 1 160 -122 237 -345c4 -12 0 -22 -10 -26z" />
    <glyph glyph-name="uni0417" unicode="&#x417;" horiz-adv-x="563" 
d="M681 735c10 -9 9 -21 -3 -34c-62 -67 -129 -113 -201 -140c-4 -68 -33 -127 -80 -169c49 -38 74 -97 74 -177c0 -40 -7 -77 -21 -110c5 -1 9 -1 13 -1c50 0 83 45 116 121c3 8 11 13 19 13c13 0 26 -15 20 -30c-41 -98 -90 -146 -152 -146c-12 0 -24 1 -35 4
c-48 -77 -135 -124 -242 -124c-152 0 -234 92 -241 268c0 16 8 25 21 25s21 -9 21 -24c5 -149 74 -227 199 -227c91 0 164 38 205 103c-3 2 -7 6 -10 9c-17 18 -26 50 -26 80c0 17 3 32 7 46c3 9 11 16 21 16c14 0 23 -14 20 -27c-4 -14 -6 -27 -6 -35c0 -20 4 -35 14 -49
c10 26 15 56 15 88c0 73 -23 123 -70 151c-28 -14 -69 -26 -104 -26c-45 0 -81 8 -81 51c0 32 34 49 66 49c44 0 86 -12 117 -25c42 31 69 78 77 133c-36 -9 -72 -14 -110 -14c-81 0 -135 42 -135 105s54 101 135 101c82 0 143 -51 152 -134c60 25 117 65 171 123
c12 13 24 15 34 6zM324 576c39 0 76 5 112 15c-5 67 -49 107 -112 107c-56 0 -93 -21 -93 -59s37 -63 93 -63zM260 382c11 0 21 2 31 4c-9 6 -45 12 -61 12c-8 0 -14 -1 -14 -8c0 -8 29 -8 44 -8z" />
    <glyph glyph-name="uni0418" unicode="&#x418;" horiz-adv-x="776" 
d="M418 657c22 58 64 121 115 121c35 0 59 -22 59 -54c0 -47 -72 -85 -143 -104c-56 -138 -149 -456 -149 -515c0 -54 18 -90 68 -90h1c136 0 213 186 308 448l99 269c3 9 11 14 20 14c13 0 20 -10 20 -20c0 -3 0 -5 -1 -8l-98 -269l-54 -151c-13 -39 -45 -136 -45 -204
c0 -30 7 -52 27 -52c60 0 102 86 133 152c6 11 10 23 15 32c4 8 12 12 19 12c15 0 21 -13 21 -21c0 -3 -1 -7 -2 -10c-4 -9 -9 -20 -15 -31c-36 -76 -84 -176 -171 -176c-52 0 -69 39 -69 94c0 10 0 20 1 31c-55 -89 -118 -153 -208 -153h-2c-74 2 -109 55 -109 133
c0 63 70 304 142 506c-20 -4 -40 -7 -61 -10c-126 -20 -297 -45 -297 -164c-2 -53 35 -90 79 -90c12 0 21 -10 21 -22c-1 -11 -11 -21 -22 -20c-70 0 -120 59 -120 132c0 152 188 183 332 205zM469 670c42 9 78 38 78 54c0 8 -6 14 -14 14c-22 0 -48 -34 -64 -68z" />
    <glyph glyph-name="uni0419" unicode="&#x419;" horiz-adv-x="776" 
d="M823 901c-25 -61 -79 -101 -134 -101c-81 0 -121 46 -101 115c3 9 11 16 21 16c14 0 23 -14 20 -27c-11 -37 12 -62 57 -62c39 0 78 30 98 76c3 8 11 13 19 13c13 0 26 -15 20 -30zM418 657c22 58 64 121 115 121c35 0 59 -22 59 -54c0 -47 -72 -85 -143 -104
c-56 -138 -149 -456 -149 -515c0 -54 18 -90 68 -90h1c136 0 213 186 308 448l99 269c3 9 11 14 20 14c13 0 20 -10 20 -20c0 -3 0 -5 -1 -8l-98 -269l-54 -151c-13 -39 -45 -136 -45 -204c0 -30 7 -52 27 -52c60 0 102 86 133 152c6 11 10 23 15 32c4 8 12 12 19 12
c15 0 21 -13 21 -21c0 -3 -1 -7 -2 -10c-4 -9 -9 -20 -15 -31c-36 -76 -84 -176 -171 -176c-52 0 -69 39 -69 94c0 10 0 20 1 31c-55 -89 -118 -153 -208 -153h-2c-74 2 -109 55 -109 133c0 63 70 304 142 506c-20 -4 -40 -7 -61 -10c-126 -20 -297 -45 -297 -164
c-2 -53 35 -90 79 -90c12 0 21 -10 21 -22c-1 -11 -11 -21 -22 -20c-70 0 -120 59 -120 132c0 152 188 183 332 205zM469 670c42 9 78 38 78 54c0 8 -6 14 -14 14c-22 0 -48 -34 -64 -68z" />
    <glyph glyph-name="uni041A" unicode="&#x41a;" horiz-adv-x="806" 
d="M1036 754c0 -10 -6 -18 -15 -21c-62 -20 -121 -96 -184 -176c-69 -87 -141 -179 -231 -218c61 -38 76 -119 76 -202c0 -49 -6 -98 -11 -140c-6 -46 -7 -53 -7 -76c0 -60 22 -88 68 -88c11 0 21 -10 21 -22c0 -11 -10 -21 -21 -21c-74 0 -110 51 -110 131c0 29 2 38 7 81
c5 41 10 89 11 135c0 123 -38 181 -124 183c-12 0 -21 9 -21 21c0 11 9 21 21 21c114 0 204 114 288 221c50 64 150 191 211 191c11 0 21 -8 21 -20zM576 602c-36 -67 -64 -156 -87 -227c-27 -83 -37 -117 -39 -122c-51 -158 -101 -308 -277 -308c-112 0 -175 80 -173 180
c6 121 104 210 216 212c12 0 21 -10 21 -21c0 -12 -9 -22 -21 -22c-91 0 -168 -74 -174 -170c0 -82 49 -137 132 -137c143 0 189 137 235 279l40 122c23 72 51 163 90 234l3 6c-43 10 -82 22 -119 33c-64 20 -124 39 -191 39s-131 -65 -131 -136c0 -70 48 -103 116 -103
c29 0 61 8 91 21c3 1 6 2 10 2c14 0 20 -13 20 -21s-4 -15 -12 -19c-35 -16 -74 -25 -110 -25c-96 0 -157 58 -157 145c0 98 85 178 173 178c74 0 136 -19 204 -40c41 -13 85 -27 134 -36c23 22 42 36 64 48c3 2 7 3 10 3c8 0 15 -4 19 -12c1 -3 2 -6 2 -9
c0 -8 -4 -15 -12 -19c-33 -18 -60 -42 -77 -75z" />
    <glyph glyph-name="uni041B" unicode="&#x41b;" horiz-adv-x="765" 
d="M443 271c-78 -133 -174 -271 -291 -271c-83 0 -152 54 -152 137c0 88 74 165 154 165c15 0 31 -3 46 -10c8 -4 12 -11 12 -19c0 -11 -9 -21 -21 -21c-5 0 -22 8 -37 8c-58 0 -112 -61 -112 -123c0 -57 50 -94 110 -94c101 0 187 136 254 250c65 111 178 328 224 388
c29 35 68 59 103 59c60 0 80 -38 80 -93c0 -77 -68 -264 -110 -379c-39 -107 -108 -292 -108 -344c0 -63 20 -91 67 -91c11 0 21 -10 21 -22c0 -11 -10 -21 -21 -21c-75 2 -110 51 -110 134c0 61 72 251 112 358c95 266 108 305 108 360c0 33 -10 55 -39 55
c-23 0 -52 -20 -69 -42c-52 -68 -200 -349 -221 -384z" />
    <glyph glyph-name="uni041C" unicode="&#x41c;" horiz-adv-x="1025" 
d="M963 268c-39 -107 -100 -293 -108 -344c-10 -63 10 -91 57 -91c11 0 21 -10 21 -22c0 -11 -10 -21 -21 -21c-75 2 -110 51 -100 134c7 61 72 251 112 358c95 266 108 305 108 360c0 33 -10 55 -39 55c-23 0 -53 -19 -86 -65c-88 -127 -270 -548 -302 -618
c-3 -8 -10 -14 -20 -14c-12 0 -21 9 -21 21c0 3 0 5 1 8c44 103 207 429 207 613c0 33 -10 55 -39 55c-23 0 -52 -20 -69 -42c-52 -68 -200 -349 -221 -384c-78 -133 -174 -271 -291 -271c-83 0 -152 54 -152 137c0 88 74 165 154 165c15 0 31 -3 46 -10c8 -4 12 -11 12 -19
c0 -11 -9 -21 -21 -21c-5 0 -22 8 -37 8c-58 0 -112 -61 -112 -123c0 -57 50 -94 110 -94c101 0 187 136 254 250c65 111 178 328 224 388c29 35 68 59 103 59c60 0 80 -38 80 -93c0 -27 -12 -98 -33 -175c39 87 86 177 110 209c28 36 68 59 103 59c60 0 80 -38 80 -93
c0 -77 -68 -264 -110 -379z" />
    <glyph glyph-name="uni041D" unicode="&#x41d;" horiz-adv-x="811" 
d="M884 717c17 0 25 -15 20 -28l-52 -148c-44 -126 -101 -290 -108 -309c-65 -177 -94 -259 -96 -311c-2 -50 17 -88 68 -88c11 0 21 -10 21 -22c-1 -11 -10 -21 -22 -21c-77 2 -109 58 -109 131c0 60 36 162 98 325l17 47h-258c-5 -14 -9 -27 -13 -40
c-51 -157 -101 -308 -277 -308c-112 0 -173 78 -173 180c0 121 105 210 216 212c12 0 21 -10 21 -21c0 -12 -9 -22 -21 -22c-89 0 -174 -73 -174 -170c0 -79 46 -137 132 -137c144 0 189 137 235 279c3 9 6 19 9 27h-42c-12 0 -21 10 -21 21c0 12 9 22 21 22h56l17 52
c23 72 51 163 90 234l3 6c-43 10 -82 22 -119 33c-64 20 -124 39 -191 39c-66 0 -131 -65 -131 -132c0 -74 48 -107 116 -107c29 0 61 8 91 21c3 1 6 2 10 2c14 0 20 -13 20 -21s-4 -15 -12 -19c-35 -16 -74 -25 -110 -25c-97 0 -157 59 -157 146c0 97 85 177 173 177
c74 0 136 -19 204 -40c41 -13 85 -27 134 -36c23 22 42 36 64 48c3 2 7 3 10 3c15 0 21 -13 21 -21s-4 -15 -12 -19c-32 -18 -62 -44 -77 -75c-36 -67 -64 -156 -87 -227l-12 -39h259l77 219c27 78 49 142 52 149c3 8 11 13 19 13z" />
    <glyph glyph-name="uni041E" unicode="&#x41e;" horiz-adv-x="735" 
d="M791 208c-41 -98 -90 -146 -152 -146c-31 0 -54 7 -75 28c-62 -78 -128 -129 -218 -129c-115 0 -165 85 -165 207c0 86 25 202 61 284c-20 -3 -38 -4 -58 -4c-110 0 -184 53 -184 144c0 51 21 85 55 119c4 4 9 6 14 6c6 0 11 -2 16 -7c4 -4 6 -9 6 -14
c0 -6 -2 -11 -6 -15c-29 -29 -43 -52 -43 -89c0 -67 62 -102 142 -102c27 0 53 3 80 8c53 104 130 196 224 196c29 0 49 -14 49 -43c0 -84 -142 -166 -244 -190c-45 -92 -70 -202 -70 -293c0 -98 32 -165 123 -165c78 0 147 57 193 125c-10 27 -11 67 -1 94c3 9 11 16 21 16
c14 0 23 -14 20 -27c-3 -10 -4 -20 -5 -29c64 111 112 256 112 375c0 88 -27 157 -106 157c-16 0 -32 -2 -54 -7c-16 -4 -27 7 -27 18s7 20 17 23c22 6 42 8 60 8c111 0 152 -86 152 -200c0 -136 -61 -314 -140 -431c13 -16 32 -21 48 -21c50 0 83 45 116 121
c3 8 11 13 19 13c13 0 26 -15 20 -30zM320 513c75 28 174 83 174 126c0 8 -5 13 -13 13c-61 0 -117 -68 -161 -139z" />
    <glyph glyph-name="uni041F" unicode="&#x41f;" horiz-adv-x="767" 
d="M1 720c1 13 10 19 19 19c10 0 20 -7 20 -20c0 -79 38 -116 117 -116c89 0 206 87 275 136c18 14 35 26 50 36c3 2 7 3 11 3c6 0 12 -2 16 -8s5 -12 3 -18l-58 -177c73 94 139 164 228 164c91 0 122 -50 122 -126c1 -63 -19 -135 -72 -292c-44 -131 -125 -345 -126 -391
c0 -61 21 -89 68 -91c11 0 20 -9 20 -19c0 -11 -9 -20 -20 -20c-72 0 -108 49 -108 130c1 53 63 211 128 404c52 155 71 225 71 279c-1 52 -22 86 -83 86c-97 0 -191 -134 -270 -252c-115 -352 -130 -447 -221 -447c-35 0 -51 24 -51 61c0 73 104 206 133 248l103 156
l79 242c-83 -59 -199 -143 -298 -143c-96 0 -165 62 -156 156zM327 315c-5 -8 -10 -14 -22 -30c-29 -39 -124 -166 -126 -225c0 -13 4 -20 13 -20c46 0 64 47 135 275z" />
    <glyph glyph-name="uni0420" unicode="&#x420;" horiz-adv-x="731" 
d="M778 558c0 -142 -95 -274 -236 -274c-31 0 -62 7 -93 19c-9 3 -14 11 -14 20c0 13 10 20 20 20c3 0 5 0 8 -1c28 -10 56 -16 82 -16c115 0 191 120 191 232c0 109 -84 164 -201 164c-172 0 -269 -150 -269 -334c0 -11 -9 -21 -21 -21s-21 10 -21 21
c0 213 115 377 321 377c136 0 233 -84 233 -207zM519 608c-27 -53 -52 -136 -77 -224c-57 -194 -122 -445 -298 -445c-82 0 -144 56 -144 137c0 88 67 164 146 164c21 0 42 -5 42 -24c0 -14 -14 -24 -27 -20c-5 2 -11 2 -17 2c-55 0 -102 -62 -102 -120
c0 -61 47 -97 103 -97c134 0 192 196 256 414c27 91 52 176 81 232c19 39 63 76 94 76c10 0 21 -7 22 -17c2 -16 -9 -23 -18 -25c-26 -3 -49 -32 -61 -53z" />
    <glyph glyph-name="uni0421" unicode="&#x421;" horiz-adv-x="593" 
d="M637 239c11 -5 16 -17 12 -28c-72 -174 -169 -279 -325 -279c-130 0 -198 81 -198 205c0 61 18 130 42 205c-102 24 -168 93 -168 195c0 68 28 141 72 195c4 5 10 7 16 7c11 0 21 -8 21 -21c0 -5 -1 -10 -5 -14c-36 -40 -62 -110 -62 -165c0 -89 58 -139 141 -157
c56 160 171 358 313 355c82 -2 124 -61 124 -140c0 -168 -196 -265 -366 -265c-15 0 -27 1 -44 3c-23 -74 -42 -140 -42 -198c0 -107 58 -163 156 -163c138 0 221 94 286 253c4 11 17 16 27 12zM225 375c8 -1 17 -1 26 -1c148 0 327 81 327 223c0 57 -27 98 -82 98
c-118 0 -224 -188 -271 -320z" />
    <glyph glyph-name="uni0422" unicode="&#x422;" horiz-adv-x="619" 
d="M911 703c-2 -45 -49 -60 -119 -60c-49 0 -111 8 -174 20c-12 -12 -22 -25 -31 -39c-39 -67 -73 -176 -98 -255c-88 -291 -139 -433 -316 -430c-102 0 -173 77 -173 180c0 118 106 212 216 212c12 0 21 -9 21 -21s-9 -21 -21 -21c-88 0 -174 -79 -174 -170
c0 -85 58 -138 131 -138c170 -2 206 192 276 401c25 81 60 191 102 263c5 9 12 18 18 27c-88 19 -219 70 -332 70c-103 0 -164 -50 -164 -135c1 -70 47 -104 116 -104c30 0 62 8 91 21c3 1 6 2 10 2c14 0 20 -13 20 -21s-4 -15 -12 -19c-35 -16 -74 -25 -110 -25
c-93 0 -157 55 -157 146c0 112 77 178 208 178c107 0 252 -56 366 -77c50 42 124 64 185 64c58 0 121 -23 121 -69zM792 685c47 0 76 5 76 19c0 15 -50 26 -79 26c-39 0 -90 -13 -124 -32c48 -8 94 -13 127 -13z" />
    <glyph glyph-name="uni0423" unicode="&#x423;" horiz-adv-x="765" 
d="M418 656c22 58 65 123 116 123c35 0 59 -22 59 -54c0 -47 -72 -85 -143 -104c-58 -142 -130 -395 -130 -459c0 -61 22 -90 69 -90c60 0 108 40 148 96c54 74 63 103 140 295l99 269c3 9 11 14 20 14c13 0 20 -10 20 -20c0 -3 0 -5 -1 -8l-98 -269
c-3 -6 -136 -380 -154 -428l-16 -44c115 39 185 131 235 249c4 8 11 13 19 13c3 0 6 -1 9 -2c8 -4 13 -11 13 -19c0 -3 -1 -6 -2 -9c-62 -146 -145 -239 -291 -282c-48 -137 -110 -208 -182 -209c-60 -1 -99 38 -99 97c0 63 49 109 169 131c25 4 52 9 79 16l55 157
c-44 -54 -97 -89 -163 -89c-73 0 -112 53 -112 132c1 64 60 273 124 449c-20 -4 -41 -7 -62 -10c-126 -20 -297 -44 -297 -164c0 -53 35 -90 79 -90c12 0 21 -9 21 -21s-8 -21 -22 -21c-70 0 -120 59 -120 134c0 151 188 181 332 203zM470 671c42 9 78 38 78 54
c0 8 -6 14 -14 14c-22 0 -48 -34 -64 -68zM481 -85c-19 -4 -37 -8 -55 -11c-92 -16 -131 -42 -135 -88c0 -35 23 -57 57 -56c54 1 100 54 133 155z" />
    <glyph glyph-name="uni0424" unicode="&#x424;" horiz-adv-x="945" 
d="M981 240c15 0 26 -15 20 -29c-44 -101 -91 -147 -151 -147c-40 0 -69 16 -87 41c-29 -16 -60 -25 -94 -25c-46 0 -82 14 -108 38c-12 12 -10 24 0 32s20 6 32 -4c18 -15 43 -24 76 -24c28 0 53 7 77 20c-6 25 -6 53 2 82c2 10 11 16 21 16c14 0 24 -13 20 -27
c-3 -8 -3 -16 -4 -23c0 -7 0 -14 1 -20c80 70 128 208 128 333c0 78 -32 114 -99 114c-90 0 -153 -89 -201 -203c-3 -12 -7 -25 -10 -38c-51 -193 -104 -348 -153 -453c-12 -26 -51 -9 -38 18c28 55 57 129 85 218c-37 -48 -88 -79 -167 -79c-83 0 -130 44 -130 150
c0 62 27 144 61 222c-20 -3 -38 -4 -58 -4c-110 0 -184 53 -184 144c0 51 21 85 55 119c4 4 9 6 14 6c6 0 11 -2 16 -7c4 -4 6 -9 6 -14c0 -6 -2 -11 -6 -15c-29 -29 -43 -52 -43 -89c0 -67 62 -102 142 -102c27 0 53 3 80 8c53 104 130 196 224 196c29 0 49 -14 49 -43
c0 -84 -142 -166 -244 -190c-43 -87 -70 -165 -70 -231c0 -82 28 -108 88 -108c129 0 173 97 221 222c4 14 7 28 11 43c49 184 99 332 147 434c12 26 51 9 38 -18c-30 -59 -60 -139 -90 -236c40 54 90 92 157 92c91 0 141 -56 141 -156c0 -143 -61 -299 -157 -375
c9 -14 25 -22 51 -22c42 0 77 38 112 121c3 8 11 13 19 13zM501 652c-61 0 -117 -68 -161 -139c75 28 174 83 174 126c0 8 -5 13 -13 13z" />
    <glyph glyph-name="uni0425" unicode="&#x425;" horiz-adv-x="751" 
d="M1021 745c4 -4 6 -9 6 -14c0 -6 -3 -11 -7 -15s-10 -6 -15 -6s-11 2 -15 7c-10 10 -23 15 -37 15c-91 0 -176 -143 -262 -275c-42 -64 -87 -132 -135 -198c17 -191 22 -421 110 -421c14 0 26 6 34 11c4 3 8 5 13 5c6 0 12 -3 16 -8c3 -4 5 -8 5 -13c0 -6 -3 -12 -8 -17
c-20 -15 -41 -20 -60 -20c-126 0 -127 204 -148 413c-107 -138 -227 -249 -357 -249c-95 0 -161 66 -161 153c0 42 20 88 50 120c4 4 10 7 16 7c11 0 21 -10 21 -21c0 -6 -2 -11 -6 -15c-25 -27 -39 -62 -39 -91c0 -66 52 -111 119 -111c123 0 244 124 352 269
c-13 129 -19 289 -13 352c-24 -4 -49 -8 -74 -11c-119 -15 -256 -43 -256 -166c0 -42 36 -85 69 -85c11 0 20 -10 20 -22c-1 -12 -10 -20 -22 -20c-57 0 -109 67 -109 129c0 154 150 187 292 206c30 4 59 8 87 13c7 58 37 109 93 109c34 0 57 -21 57 -52
c0 -47 -55 -77 -113 -92c-10 -78 -1 -216 7 -308l104 157c101 154 185 293 298 293c25 0 49 -9 68 -29zM601 734c-25 -1 -38 -22 -48 -55c39 14 61 29 61 45c0 6 -5 10 -13 10z" />
    <glyph glyph-name="uni0427" unicode="&#x427;" horiz-adv-x="759" 
d="M795 238c15 0 21 -13 21 -21c0 -3 -1 -7 -2 -10c-4 -9 -9 -20 -15 -31c-36 -76 -84 -176 -171 -176c-52 0 -69 39 -69 94c0 54 18 115 48 204c-52 -68 -113 -98 -172 -98h-2c-84 0 -119 55 -119 133c0 63 39 185 76 278c-20 -4 -40 -7 -61 -10
c-126 -20 -297 -45 -297 -164c-2 -53 35 -90 79 -90c12 0 21 -10 21 -22c-1 -11 -11 -21 -22 -20c-70 0 -120 59 -120 132c0 152 188 183 332 205l85 13c22 58 65 123 116 123c35 0 59 -22 59 -54c0 -47 -72 -85 -143 -104c-40 -99 -83 -228 -83 -287c0 -54 18 -90 78 -90h1
c74 0 164 56 225 220c0 0 0 1 1 1l98 268c3 9 11 14 20 14c13 0 20 -10 20 -20c0 -3 0 -5 -1 -8l-98 -269l-4 -10c-52 -140 -95 -266 -95 -345c0 -30 7 -52 39 -52c48 0 90 86 121 152c6 11 10 23 15 32c4 8 12 12 19 12zM523 738c-22 0 -48 -34 -64 -68c42 9 78 38 78 54
c0 8 -6 14 -14 14z" />
    <glyph glyph-name="uni0426" unicode="&#x426;" horiz-adv-x="967" 
d="M1012 237c8 -4 13 -11 13 -19c0 -3 -1 -6 -2 -9c-62 -146 -145 -239 -291 -282c-48 -137 -110 -208 -182 -209c-60 -1 -99 38 -99 97c0 63 49 109 169 131c25 4 52 9 79 16l30 74c-24 -22 -51 -36 -84 -36c-52 0 -69 39 -69 94c0 10 0 20 1 31
c-55 -89 -118 -153 -208 -153h-2c-74 2 -109 55 -109 133c0 63 70 304 142 506c-20 -4 -40 -7 -61 -10c-126 -20 -297 -45 -297 -164c-2 -53 35 -90 79 -90c12 0 21 -10 21 -22c-1 -11 -11 -21 -22 -20c-70 0 -120 59 -120 132c0 152 188 183 332 205l86 15
c22 58 64 121 115 121c35 0 59 -22 59 -54c0 -47 -72 -85 -143 -104c-56 -138 -149 -456 -149 -515c0 -54 18 -90 68 -90h1c136 0 213 186 308 448l99 269c3 9 11 14 20 14c13 0 20 -10 20 -20c0 -3 0 -5 -1 -8l-98 -269l-54 -151c-13 -39 -45 -136 -45 -204
c0 -30 7 -52 27 -52c60 0 102 86 133 152c6 11 10 23 15 32c4 8 12 12 19 12c15 0 21 -13 21 -21c0 -3 -1 -7 -2 -10c-28 -77 -56 -153 -82 -230c115 39 185 131 235 249c4 8 11 13 19 13c3 0 6 -1 9 -2zM533 738c-22 0 -48 -34 -64 -68c42 9 78 38 78 54c0 8 -6 14 -14 14z
M550 -240c54 1 100 54 133 155c-19 -4 -37 -8 -55 -11c-92 -16 -131 -42 -135 -88c0 -35 23 -57 57 -56z" />
    <glyph glyph-name="uni0428" unicode="&#x428;" horiz-adv-x="1007" 
d="M1043 238c15 0 21 -13 21 -21c0 -3 -1 -7 -2 -10c-4 -9 -9 -20 -15 -31c-36 -76 -84 -176 -171 -176c-52 0 -69 39 -69 94v5c-41 -68 -90 -111 -156 -111c-62 0 -104 44 -104 111c0 13 1 27 2 41c-53 -102 -116 -168 -183 -168c-72 0 -110 39 -110 113
c0 149 76 341 144 526c-20 -4 -40 -7 -61 -10c-126 -20 -297 -44 -297 -164c0 -53 35 -90 79 -90c14 0 21 -10 21 -20c0 -11 -8 -22 -22 -22c-70 0 -122 59 -120 134c0 150 188 181 332 203c30 5 60 10 86 15c22 58 65 123 116 123c35 0 59 -22 59 -54
c0 -47 -72 -85 -143 -104c-57 -143 -152 -395 -152 -537c0 -47 23 -72 68 -71c58 1 119 84 172 198c30 63 147 387 157 433c3 11 12 16 21 16c15 0 25 -15 20 -28c-79 -237 -147 -435 -147 -534c0 -41 25 -68 62 -68c105 0 157 168 227 357l3 8c7 21 15 43 24 67l54 146
c3 9 11 14 20 14c13 0 20 -10 20 -20c0 -3 0 -5 -1 -8l-53 -146c-53 -147 -96 -274 -96 -355c0 -30 7 -52 27 -52c60 0 102 86 133 152c6 11 10 23 15 32c4 8 12 12 19 12zM534 740c-22 0 -48 -34 -64 -68c42 9 78 38 78 54c0 8 -6 14 -14 14z" />
    </font>
</defs>
</svg>
